<svg width="64" height="64" viewBox="0 0 64 64" fill="none" xmlns="http://www.w3.org/2000/svg">
<path d="M59.7333 16H41.4816C42.6634 14.8453 43.4278 13.3305 43.6544 11.6939C47.9445 11.3568 49.0272 8.79467 49.7504 6.17173C50.0119 5.20844 49.809 4.17828 49.2016 3.38617C48.5942 2.59406 47.652 2.13074 46.6539 2.13333H43.7333C43.7333 0.955126 42.7782 0 41.6 0H22.4C21.2218 0 20.2667 0.955126 20.2667 2.13333V10.6667C20.2662 12.6756 21.0784 14.5993 22.5184 16H4.26667C2.49936 16 1.06667 17.4327 1.06667 19.2V22.2176C1.05166 24.79 2.82542 27.0276 5.33333 27.6V56.5333H3.2C1.43269 56.5333 0 57.966 0 59.7333V61.8667C0 63.0449 0.955126 64 2.13333 64H61.8667C63.0449 64 64 63.0449 64 61.8667V59.7333C64 57.966 62.5673 56.5333 60.8 56.5333H58.6667V27.6C61.1746 27.0276 62.9483 24.79 62.9333 22.2176V19.2C62.9333 17.4327 61.5006 16 59.7333 16ZM46.6539 4.26667C46.9896 4.26667 47.3058 4.42474 47.5072 4.69333C47.7076 4.95195 47.7748 5.28973 47.6885 5.60533C47.0272 8.02133 46.3627 9.29813 43.7333 9.54987V4.26667H46.6539ZM22.4 10.6667V7.46667H25.6C26.1891 7.46667 26.6667 6.9891 26.6667 6.4C26.6667 5.8109 26.1891 5.33333 25.6 5.33333H22.4V2.13333H41.6V5.33333H29.8667C29.2776 5.33333 28.8 5.8109 28.8 6.4C28.8 6.9891 29.2776 7.46667 29.8667 7.46667H41.6V10.6667C41.5965 13.6107 39.2107 15.9965 36.2667 16H27.7333C24.7893 15.9965 22.4035 13.6107 22.4 10.6667ZM56.5333 56.5333H52.2667V34.1333C52.2667 32.9551 51.3115 32 50.1333 32H39.4667C38.2885 32 37.3333 32.9551 37.3333 34.1333V56.5333H17.0667C16.4776 56.5333 16 57.0109 16 57.6C16 58.1891 16.4776 58.6667 17.0667 58.6667H60.8C61.3891 58.6667 61.8667 59.1442 61.8667 59.7333V61.8667H2.13333V59.7333C2.13333 59.1442 2.6109 58.6667 3.2 58.6667H11.7333C12.3224 58.6667 12.8 58.1891 12.8 57.6C12.8 57.0109 12.3224 56.5333 11.7333 56.5333H7.46667V27.6267C8.748 27.3786 9.89275 26.6664 10.6816 25.6267C11.6876 26.9598 13.2633 27.7405 14.9333 27.7333C16.6119 27.734 18.1947 26.9519 19.2139 25.6181C20.2178 26.9554 21.7945 27.7396 23.4667 27.7333C25.1452 27.734 26.728 26.9519 27.7472 25.6181C28.7511 26.9554 30.3279 27.7396 32 27.7333C33.6785 27.734 35.2614 26.9519 36.2805 25.6181C37.2844 26.9554 38.8612 27.7396 40.5333 27.7333C42.2119 27.734 43.7947 26.9519 44.8139 25.6181C45.8178 26.9554 47.3945 27.7396 49.0667 27.7333C50.7499 27.7479 52.3321 26.9319 53.296 25.552C54.0781 26.6225 55.2333 27.3605 56.5333 27.6203V56.5333ZM50.1333 56.5333H39.4667V34.1333H50.1333V56.5333ZM60.8 22.2176C60.8369 23.9094 59.5971 25.3591 57.92 25.5851C56.7924 25.6958 55.69 25.2036 55.0197 24.2901C54.639 23.7684 54.0325 23.4594 53.3867 23.4581C52.6929 23.4511 52.0374 23.7757 51.6224 24.3317C51.0176 25.1321 50.0725 25.6025 49.0693 25.6025C48.0662 25.6025 47.1211 25.1321 46.5163 24.3317C46.1138 23.7895 45.4785 23.4698 44.8032 23.4698C44.128 23.4698 43.4926 23.7895 43.0901 24.3317C42.4854 25.1325 41.54 25.6032 40.5365 25.6032C39.5331 25.6032 38.5877 25.1325 37.9829 24.3317C37.5654 23.8133 36.9356 23.5118 36.2699 23.5118C35.6042 23.5118 34.9743 23.8133 34.5568 24.3317C33.952 25.1325 33.0067 25.6032 32.0032 25.6032C30.9997 25.6032 30.0544 25.1325 29.4496 24.3317C29.0321 23.8133 28.4022 23.5118 27.7365 23.5118C27.0709 23.5118 26.441 23.8133 26.0235 24.3317C25.4187 25.1325 24.4733 25.6032 23.4699 25.6032C22.4664 25.6032 21.521 25.1325 20.9163 24.3317C20.4987 23.8133 19.8689 23.5118 19.2032 23.5118C18.5375 23.5118 17.9077 23.8133 17.4901 24.3317C16.8853 25.1321 15.9402 25.6025 14.9371 25.6025C13.9339 25.6025 12.9888 25.1321 12.384 24.3317C11.9696 23.7846 11.3242 23.4617 10.6379 23.4581H10.6165C9.9709 23.4592 9.36439 23.7678 8.98347 24.2891C8.31392 25.2053 7.20916 25.6985 6.08 25.5851C4.40316 25.3586 3.16361 23.9093 3.2 22.2176V19.2C3.2 18.6109 3.67756 18.1333 4.26667 18.1333H59.7333C60.3224 18.1333 60.8 18.6109 60.8 19.2V22.2176Z" fill="white"/>
<path d="M30.9329 32H13.8662C12.688 32 11.7329 32.9551 11.7329 34.1333V51.2C11.7329 52.3782 12.688 53.3333 13.8662 53.3333H30.9329C32.1111 53.3333 33.0662 52.3782 33.0662 51.2V34.1333C33.0662 32.9551 32.1111 32 30.9329 32ZM30.9329 34.1333V46.9333H13.8662V34.1333H30.9329ZM13.8662 51.2V49.0667H30.9329V51.2H13.8662Z" fill="white"/>
<path d="M46.9329 49.0666C47.522 49.0666 47.9995 48.589 47.9995 47.9999V42.6666C47.9995 42.0775 47.522 41.5999 46.9329 41.5999C46.3438 41.5999 45.8662 42.0775 45.8662 42.6666V47.9999C45.8662 48.589 46.3438 49.0666 46.9329 49.0666Z" fill="white"/>
<path d="M17.0667 39.4666C17.3496 39.4666 17.6209 39.3541 17.8208 39.1541L18.8875 38.0874C19.2918 37.6689 19.286 37.0036 18.8745 36.5921C18.4631 36.1807 17.7978 36.1749 17.3792 36.5792L16.3126 37.6458C16.0076 37.9509 15.9164 38.4096 16.0815 38.8081C16.2465 39.2066 16.6354 39.4665 17.0667 39.4666Z" fill="white"/>
<path d="M17.0667 44.8C17.3496 44.7999 17.6209 44.6875 17.8208 44.4874L24.2208 38.0874C24.6251 37.6689 24.6193 37.0036 24.2079 36.5921C23.7964 36.1807 23.1311 36.1749 22.7126 36.5792L16.3126 42.9792C16.0076 43.2842 15.9164 43.7429 16.0815 44.1415C16.2465 44.54 16.6354 44.7999 17.0667 44.8Z" fill="white"/>
</svg>
