<svg width="64" height="64" viewBox="0 0 64 64" fill="none" xmlns="http://www.w3.org/2000/svg">
<path d="M31.006 42.035L24.706 39.275L22.497 36.33C23.992 35.465 25 33.848 25 32V23C25 20.243 22.757 18 20 18H16C13.243 18 11 20.243 11 23V25C11 25.431 11.275 25.812 11.684 25.949L17.684 27.949C17.978 28.047 18.299 28.004 18.555 27.832L21.555 25.832L20.446 24.168L17.853 25.897L13 24.279V23C13 21.346 14.346 20 16 20H20C21.654 20 23 21.346 23 23V32C23 33.654 21.654 35 20 35H16C14.346 35 13 33.654 13 32V28H11V32C11 33.848 12.008 35.465 13.503 36.33L11.307 39.258L5.14 41.73C3.232 42.494 2 44.316 2 46.371V63C2 63.552 2.447 64 3 64H6V62H4V46.371C4 45.138 4.739 44.045 5.884 43.586L10.711 41.651L10.014 45.835C9.957 46.173 10.078 46.517 10.334 46.746C10.52 46.912 10.758 47 11 47C11.092 47 11.185 46.987 11.274 46.961L15.783 45.673L14.008 59.876C13.969 60.187 14.078 60.498 14.303 60.717L17.386 63.717C17.572 63.898 17.822 64 18.083 64H18.097C18.363 63.996 18.616 63.887 18.8 63.697L21.717 60.697C21.929 60.479 22.03 60.177 21.992 59.876L20.217 45.673L24.726 46.961C24.815 46.987 24.908 47 25 47C25.242 47 25.48 46.912 25.666 46.746C25.922 46.517 26.043 46.174 25.986 45.835L25.3 41.719L30.203 43.867C31.295 44.345 32 45.424 32 46.615V54H34V46.615C34 44.63 32.825 42.832 31.006 42.035ZM15.5 37H20.5L22.565 39.754L20.282 41.276L18 42.798L15.717 41.276L13.434 39.754L15.5 37ZM12.724 41.742L15.586 43.65L12.247 44.604L12.724 41.742ZM19.948 59.647L18.063 61.585L16.053 59.63L17.873 45.076L17.945 45.055C17.981 45.057 18.018 45.057 18.054 45.055L18.126 45.076L19.948 59.647ZM20.414 43.65L23.276 41.742L23.754 44.604L20.414 43.65Z" fill="white"/>
<path d="M32 62H30V64H33C33.553 64 34 63.552 34 63V56H32V62Z" fill="white"/>
<path d="M8 50H10V64H8V50Z" fill="white"/>
<path d="M26 50H28V64H26V50Z" fill="white"/>
<path d="M28 14H30V26H28V14Z" fill="white"/>
<path d="M34 14H36V26H34V14Z" fill="white"/>
<path d="M28 30H30V38H28V30Z" fill="white"/>
<path d="M34 30H36V42H34V30Z" fill="white"/>
<path d="M22 14H24V16H22V14Z" fill="white"/>
<path d="M45 34H57C57.553 34 58 33.552 58 33V21C58 20.448 57.553 20 57 20H45C44.447 20 44 20.448 44 21V33C44 33.552 44.447 34 45 34ZM56 32H52V22H56V32ZM46 22H50V32H46V22Z" fill="white"/>
<path d="M62 12V10H42V9C42 8.448 41.553 8 41 8H38V1C38 0.448 37.553 0 37 0H24C23.712 0 23.438 0.125 23.247 0.341L16.247 8.341C16.088 8.524 16 8.758 16 9V16H18V10H33V8H19.204L24.454 2H36V9C36 9.552 36.447 10 37 10H40V62H36V64H61C61.553 64 62 63.552 62 63V15C62 14.451 61.558 14.004 61.009 14L59 13.983V12H62ZM51 13.916V12H53V13.933L51 13.916ZM47 13.883V12H49V13.899L47 13.883ZM45 12V13.866L42 13.841V12H45ZM48 62V50H54V62H48ZM56 62V49C56 48.448 55.553 48 55 48H47C46.447 48 46 48.448 46 49V62H42V44H60V62H56ZM60 38H56V40H60V42H42V40H54V38H42V15.841L60 15.992V38ZM57 13.966L55 13.949V12H57V13.966Z" fill="white"/>
</svg>
