<svg width="64" height="64" viewBox="0 0 64 64" fill="none" xmlns="http://www.w3.org/2000/svg">
<path d="M60.4545 8.625H62.8125C63.3993 8.625 63.875 8.14927 63.875 7.5625V1.1875C63.875 0.600734 63.3993 0.125 62.8125 0.125H1.1875C0.600734 0.125 0.125 0.600734 0.125 1.1875V7.5625C0.125 8.14927 0.600734 8.625 1.1875 8.625H3.54545L4.375 11.9433V18.1875H1.1875C0.600734 18.1875 0.125 18.6632 0.125 19.25V23.5C0.125 24.0868 0.600734 24.5625 1.1875 24.5625H4.375V27.75H1.1875C0.600734 27.75 0.125 28.2257 0.125 28.8125V33.0625C0.125 33.6493 0.600734 34.125 1.1875 34.125H4.375V39.4375H2.51562C1.19746 39.4375 0.125 40.51 0.125 41.8281V58.2969C0.125 59.615 1.19746 60.6875 2.51562 60.6875H2.5467L3.36709 63.1485C3.51172 63.5823 3.91773 63.875 4.375 63.875H8.625C9.08227 63.875 9.48828 63.5823 9.63291 63.1485L10.4533 60.6875H53.5467L54.3671 63.1485C54.5117 63.5824 54.9177 63.875 55.375 63.875H59.625C60.0823 63.875 60.4883 63.5823 60.6329 63.1485L61.4533 60.6875H61.4844C62.8025 60.6875 63.875 59.615 63.875 58.2969V45.8125H61.75V58.2969C61.75 58.4434 61.6309 58.5625 61.4844 58.5625H2.51562C2.36913 58.5625 2.25 58.4434 2.25 58.2969V41.8281C2.25 41.6816 2.36913 41.5625 2.51562 41.5625H13.9375V45.8125H11.8125C11.2257 45.8125 10.75 46.2882 10.75 46.875V55.375C10.75 55.9618 11.2257 56.4375 11.8125 56.4375H28.8125C29.3993 56.4375 29.875 55.9618 29.875 55.375V52.1875H27.75V54.3125H12.875V47.9375H27.75V50.0625H29.875V46.875C29.875 46.2882 29.3993 45.8125 28.8125 45.8125H26.6875V41.5625H32V39.4375H10.75V34.125H13.9375C14.5243 34.125 15 33.6493 15 33.0625V28.8125C15 28.2257 14.5243 27.75 13.9375 27.75H10.75V24.5625H13.9375C14.5243 24.5625 15 24.0868 15 23.5V19.25C15 18.6632 14.5243 18.1875 13.9375 18.1875H10.75V12.875H16.0625V10.75H6.26705L5.7358 8.625H58.2642L57.733 10.75H18.1875V12.875H53.25V18.1875H50.0625C49.4757 18.1875 49 18.6632 49 19.25V23.5C49 24.0868 49.4757 24.5625 50.0625 24.5625H53.25V26.6875H55.375V24.5625H57.5V27.75H59.625V24.5625H62.8125C63.3993 24.5625 63.875 24.0868 63.875 23.5V19.25C63.875 18.6632 63.3993 18.1875 62.8125 18.1875H59.625V11.9433L60.4545 8.625ZM59.2133 60.6875L58.8591 61.75H56.1407L55.7865 60.6875H59.2133ZM8.21328 60.6875L7.85907 61.75H5.1408L4.78659 60.6875H8.21328ZM24.5625 45.8125H16.0625V41.5625H24.5625V45.8125ZM8.625 39.4375H6.5V34.125H8.625V39.4375ZM12.875 32H2.25V29.875H12.875V32ZM8.625 27.75H6.5V24.5625H8.625V27.75ZM12.875 22.4375H2.25V20.3125H12.875V22.4375ZM8.625 12.875V18.1875H6.5V12.875H8.625ZM2.25 6.5V2.25H61.75V6.5H2.25ZM61.75 22.4375H51.125V20.3125H61.75V22.4375ZM55.375 18.1875V12.875H57.5V18.1875H55.375Z" fill="white"/>
<path d="M43.6875 52.1875H54.3125C57.8276 52.1875 60.6875 49.3276 60.6875 45.8125V44.6156C62.5185 44.1426 63.875 42.4768 63.875 40.5C63.875 38.5232 62.5185 36.8575 60.6875 36.3844V35.1875C60.6875 31.6724 57.8276 28.8125 54.3125 28.8125H47.9375V30.9375H54.3125C56.656 30.9375 58.5625 32.844 58.5625 35.1875V36.25H39.4375V35.1875C39.4375 32.844 41.344 30.9375 43.6875 30.9375H45.8125V28.8125H43.6875C40.1724 28.8125 37.3125 31.6724 37.3125 35.1875V36.3844C35.4815 36.8574 34.125 38.5232 34.125 40.5C34.125 42.4768 35.4815 44.1425 37.3125 44.6156V45.8125C37.3125 49.3276 40.1724 52.1875 43.6875 52.1875ZM58.5625 45.8125C58.5625 48.156 56.656 50.0625 54.3125 50.0625H43.6875C41.344 50.0625 39.4375 48.156 39.4375 45.8125V44.75H44.75V44.7099L45.203 45.7291C45.7992 47.0706 47.1331 47.9375 48.6013 47.9375H49.3988C50.8669 47.9375 52.2009 47.0706 52.7971 45.7291L53.2322 44.75H58.5625V45.8125ZM59.625 38.375C60.7967 38.375 61.75 39.3283 61.75 40.5C61.75 41.6717 60.7967 42.625 59.625 42.625H54.1766L56.0655 38.375H59.625ZM53.7401 38.375L50.8551 44.8661C50.5996 45.441 50.0278 45.8125 49.3987 45.8125H48.6012C47.972 45.8125 47.4003 45.441 47.1447 44.8661L44.2599 38.375H53.7401ZM36.25 40.5C36.25 39.3283 37.2033 38.375 38.375 38.375H41.9345L43.8234 42.625H38.375C37.2033 42.625 36.25 41.6717 36.25 40.5Z" fill="white"/>
<path d="M15 50.0625H25.625V52.1875H15V50.0625Z" fill="white"/>
</svg>
