<svg width="73" height="64" viewBox="0 0 73 64" fill="none" xmlns="http://www.w3.org/2000/svg">
<path d="M2.166 36.8388V39.8995H15.3845C16.0729 39.8995 16.7909 39.8165 17.4407 39.9855C17.5089 40.0033 17.5739 40.0313 17.6336 40.0686C17.7737 40.1572 17.8901 40.2785 17.9727 40.4222C18.0553 40.5658 18.1017 40.7274 18.1078 40.893C18.114 41.0586 18.0797 41.2232 18.0079 41.3725C17.9361 41.5219 17.829 41.6515 17.6959 41.7502C17.6094 41.8151 17.5068 41.8551 17.3992 41.8659C15.7257 41.9845 14.0434 41.9489 12.3551 41.9549C10.3434 41.9549 8.33167 41.9549 6.23688 41.9549V61.918H44.8569C45.3524 61.918 45.8835 61.8142 46.3404 61.9625C46.385 61.9777 46.4286 61.9955 46.471 62.0159C46.6126 62.0949 46.7335 62.2062 46.8241 62.3407C46.9146 62.4752 46.9722 62.6291 46.9921 62.79C47.012 62.9509 46.9938 63.1142 46.9388 63.2667C46.8839 63.4192 46.7937 63.5566 46.6757 63.6678C46.5921 63.748 46.4983 63.8168 46.3968 63.8725C46.0437 64.0623 45.5275 63.9614 45.0824 63.9644C32.3258 63.9644 19.5672 63.9644 6.80657 63.9644C4.5931 63.9644 4.12133 63.4869 4.11836 61.2685C4.11836 55.3368 4.08275 49.4051 4.14506 43.4734C4.14506 42.2248 3.77417 41.8629 2.55172 41.9015C0.593424 41.9638 0.0178027 41.2935 0 39.3301V39.0335C0 34.9733 0 34.9733 4.02341 34.5284C4.05012 34.0865 4.10649 33.6149 4.10649 33.1433C4.10649 26.9655 4.13319 20.7876 4.07089 14.6098C4.07089 13.9039 3.59021 13.2039 3.33504 12.4981C2.92261 11.3651 2.27281 10.2559 2.14819 9.09329C1.95236 7.08541 2.08885 5.04491 2.08885 3.01923C2.10369 0.691042 2.77722 0 5.07971 0H67.8224C70.2228 0 70.8815 0.66435 70.8874 3.09041C70.8874 5.11609 71.0209 7.15659 70.837 9.16447C70.7331 10.2796 70.1071 11.3503 69.7095 12.4269C69.4395 13.1743 68.9261 13.9098 68.9172 14.6631C68.852 20.7906 68.8787 26.918 68.8846 33.0514C68.8846 33.5319 68.9321 34.0123 68.9558 34.4602C72.9644 35.1601 72.9674 35.1631 72.9911 37.1621C73.0415 41.3142 73.0415 41.3142 68.8816 42.1387V43.684C68.8816 49.5662 68.8816 55.4475 68.8816 61.3278C68.8816 63.4543 68.395 63.9496 66.2765 63.9526C61.6775 63.9526 57.0784 63.9526 52.4794 63.9526C52.1827 63.9526 51.8148 64.0534 51.6071 63.914C51.491 63.8386 51.3809 63.7543 51.2777 63.6619C51.1479 63.5576 51.0466 63.4222 50.9832 63.2683C50.9198 63.1144 50.8963 62.947 50.915 62.7815C50.9336 62.6161 50.9938 62.4581 51.0899 62.3222C51.186 62.1862 51.3149 62.0768 51.4647 62.004C51.5299 61.9742 51.6006 61.9581 51.6724 61.9565C54.4881 61.8735 57.3099 61.912 60.1257 61.912H66.7216V41.9311H62.3095C50.3955 41.9549 38.4835 41.9766 26.5735 41.9964C25.3398 42.0437 24.1044 42.003 22.8765 41.8748C22.7408 41.8481 22.6136 41.7891 22.5056 41.7028C22.368 41.6009 22.2598 41.4646 22.1918 41.3075C22.1238 41.1504 22.0985 40.9782 22.1183 40.8083C22.1382 40.6383 22.2025 40.4766 22.3049 40.3394C22.4073 40.2022 22.5441 40.0945 22.7014 40.0271C22.7714 39.9992 22.8457 39.9842 22.921 39.9826C25.6329 39.9025 28.3508 39.947 31.0657 39.9381C38.9226 39.9084 46.7914 39.855 54.6335 39.8491C59.3255 39.8491 64.0175 39.8817 68.7095 39.947C70.9527 39.9826 70.9527 40.0449 70.9082 37.8709C70.9082 37.5743 70.8696 37.2777 70.8399 36.8477L2.166 36.8388ZM66.7245 34.558V14.5326L62.1938 12.7235C59.9565 14.7462 57.4464 14.592 54.9837 12.5485C52.4408 14.7492 49.9811 14.5593 47.6222 12.5485C44.6818 14.6661 43.4178 14.6602 40.1777 12.59C37.181 14.6483 35.8042 14.6483 32.8163 12.59C29.5139 14.6661 28.8048 14.6661 25.3243 12.59C22.4225 14.6424 21.4374 14.6483 17.9392 12.6315C14.7525 14.6602 13.6487 14.6513 10.7855 12.7324L6.30216 14.4733V34.5076H10.4561C10.4561 31.177 10.4561 27.9828 10.4561 24.7648C10.471 22.2439 11.0525 21.6507 13.6309 21.6507C15.3637 21.6507 17.0936 21.6507 18.8234 21.6507C20.933 21.6507 21.6244 22.3684 21.6303 24.5216C21.6303 27.3866 21.6303 30.2516 21.6303 33.1226C21.6303 33.5941 21.6837 34.0657 21.7104 34.5165H44.1032C44.2664 32.8883 44.124 31.2541 44.6462 29.8928C45.3643 28.0006 47.4561 29.095 48.8981 28.5789C49.0376 27.3303 49.3461 26.227 47.5599 25.7406C46.1298 25.3521 45.4592 23.7386 45.655 22.2587C45.7348 21.5138 46.0639 20.8176 46.589 20.2831C47.114 19.7485 47.8043 19.4069 48.548 19.3136C49.5335 19.1955 50.5296 19.1955 51.5151 19.3136C52.2837 19.4133 52.9963 19.769 53.5379 20.3232C54.0795 20.8775 54.4184 21.598 54.5 22.3684C54.6632 23.7713 53.8651 25.4677 52.4705 25.8029C50.622 26.2507 51.0522 27.3896 51.165 28.748C54.3457 28.748 57.4464 28.748 60.544 28.748C61.2168 28.7531 61.8614 29.0191 62.3418 29.4899C62.8222 29.9607 63.1011 30.5996 63.1195 31.2719C63.1492 32.3396 63.1195 33.4103 63.1195 34.5343L66.7245 34.558ZM56.0429 2.13244C56.0429 2.96585 56.0429 3.65096 56.0429 4.33607C56.0429 6.11558 55.9925 7.89508 56.0785 9.67459C56.1408 10.9914 57.3574 12.0473 58.648 12.0947C59.2957 12.0954 59.9227 11.8676 60.4188 11.4514C60.9149 11.0353 61.2482 10.4575 61.36 9.81992C61.4371 9.33649 61.268 8.78187 61.4431 8.35479C61.4732 8.28778 61.5068 8.22243 61.544 8.15904C61.6425 7.99684 61.7827 7.86392 61.9499 7.77405C62.1171 7.68418 62.3054 7.64061 62.4951 7.64787C62.6848 7.65513 62.8691 7.71295 63.029 7.81534C63.1889 7.91773 63.3185 8.06096 63.4043 8.23022V8.24505C63.5735 8.61578 63.4281 9.11998 63.4666 9.56189C63.5128 10.206 63.7858 10.813 64.2372 11.2751C64.6886 11.7371 65.2892 12.0244 65.9323 12.0858C67.1399 12.1867 68.6027 11.3177 68.6739 10.0779C68.8282 7.45021 68.7214 4.80764 68.7214 2.14134H64.1491L63.1492 3.29209C63.0593 3.39501 62.9479 3.47698 62.8229 3.53222C62.6979 3.58745 62.5623 3.61462 62.4257 3.61179C62.289 3.60896 62.1547 3.57621 62.0321 3.51585C61.9095 3.45549 61.8016 3.36898 61.716 3.26243L60.7784 2.12948L56.0429 2.13244ZM12.5123 23.7564C12.5123 27.2294 12.4886 30.5779 12.5539 33.8937C12.5539 34.1488 13.171 34.5877 13.5182 34.6025C15.1412 34.6796 16.782 34.6025 18.3932 34.653C19.2091 34.6737 19.5503 34.4038 19.5414 33.5586C19.5088 30.652 19.5147 27.7485 19.5414 24.8419C19.5414 24.1361 19.3604 23.7327 18.5475 23.7475C16.6159 23.7802 14.6991 23.7564 12.5123 23.7564ZM46.5541 34.5343H60.909V30.8893H46.5541V34.5343ZM16.9126 2.0583C15.2658 2.0583 13.8416 2.01678 12.4204 2.09389C12.1236 2.10872 11.6252 2.56249 11.6192 2.82349C11.5688 5.13981 11.5243 7.46504 11.6459 9.7784C11.7171 11.1012 13.0583 12.1125 14.3163 12.0769C15.5744 12.0413 16.8384 11.0003 16.8829 9.66273C16.9689 7.20701 16.9126 4.74535 16.9126 2.0583ZM19.0133 2.10872C19.0133 4.72756 18.945 7.19218 19.04 9.6479C19.0793 10.3013 19.3663 10.9151 19.8427 11.3642C20.319 11.8133 20.9488 12.064 21.6036 12.0651C22.924 12.0413 24.1049 11.3681 24.2028 10.0809C24.3986 7.45614 24.2621 4.80467 24.2621 2.10872H19.0133ZM33.8489 2.10872C33.8489 4.75425 33.7806 7.26039 33.8786 9.7606C33.926 11.0389 35.1425 12.0117 36.3917 12.0651C37.5785 12.1155 38.9998 11.1753 39.0621 9.94745C39.1927 7.36123 39.1007 4.76315 39.1007 2.10872H33.8489ZM48.6607 2.07609C48.6607 4.72756 48.6133 7.14176 48.6785 9.55003C48.7076 10.2252 48.994 10.8637 49.4791 11.3345C49.9641 11.8053 50.6111 12.0726 51.2871 12.0818C51.9631 12.0909 52.617 11.841 53.1146 11.3835C53.6122 10.9259 53.9158 10.2954 53.963 9.62121C54.055 7.40275 54.0253 5.17244 53.963 2.96288C53.9078 2.75837 53.8002 2.57176 53.6509 2.42146C53.5016 2.27116 53.3156 2.16235 53.1114 2.10575C51.705 2.01381 50.2808 2.07609 48.6607 2.07609ZM9.49478 2.07609C7.84209 2.07609 6.36743 2.04347 4.89871 2.10872C4.73327 2.15129 4.5815 2.23552 4.45788 2.35338C4.33426 2.47124 4.24291 2.61879 4.19254 2.78196C4.15396 5.15464 4.09759 7.52732 4.24001 9.9C4.31716 11.1931 5.75918 12.1837 7.0024 12.0977C7.65844 12.0606 8.27717 11.7807 8.73795 11.3124C9.19873 10.8441 9.46854 10.2211 9.49478 9.56486C9.54818 7.14769 9.49478 4.72756 9.49478 2.0583V2.07609ZM31.7185 2.07609C30.0955 2.07609 28.7187 2.02567 27.3479 2.11465C27.0215 2.13541 26.4578 2.61291 26.4578 2.89467C26.3866 5.16057 26.3539 7.42945 26.4578 9.69239C26.5171 11.0389 27.7574 12.0651 29.0451 12.0799C30.3328 12.0947 31.6443 11.0745 31.7155 9.7606C31.8016 7.25743 31.7274 4.74535 31.7274 2.07609H31.7185ZM46.5541 6.31132C46.5541 1.89814 46.5719 1.92187 42.4001 2.0494C41.5278 2.07609 41.1658 2.31336 41.1895 3.23574C41.237 5.25251 41.1717 7.26929 41.2162 9.28607C41.2489 10.941 42.3526 12.0324 43.8866 12.0324C45.4206 12.0324 46.474 10.9351 46.557 9.26827C46.6045 8.27175 46.5837 7.28709 46.5837 6.30242L46.5541 6.31132ZM49.99 24.1064V24.0738C50.2867 24.0738 50.5834 24.0738 50.8801 24.0738C51.794 24.0738 52.4705 23.6467 52.4319 22.6976C52.3963 21.8079 51.797 21.3007 50.8445 21.3304C50.1591 21.3511 49.4025 21.185 48.8061 21.4193C48.5453 21.5476 48.3169 21.7333 48.1381 21.9624C47.9592 22.1914 47.8346 22.458 47.7736 22.7421C47.7291 23.1247 48.278 23.6971 48.6993 23.9759C49.0316 24.1687 49.5657 24.056 50.0078 24.0886L49.99 24.1064Z" fill="white"/>
<path d="M29.6238 51.9022C29.6492 50.1044 30.3788 48.3882 31.656 47.1221C32.9332 45.8559 34.6562 45.1409 36.4549 45.1304C38.2537 45.1199 39.9849 45.8148 41.2767 47.066C42.5686 48.3171 43.3182 50.0247 43.3646 51.8222C43.3737 52.7493 43.1974 53.6688 42.8459 54.5268C42.4943 55.3848 41.9748 56.1639 41.3176 56.8182C40.6605 57.4726 39.8792 57.989 39.0195 58.3371C38.1598 58.6852 37.2392 58.858 36.3117 58.8453C32.7363 58.8512 29.6238 55.6214 29.6238 51.9022ZM41.2994 51.8577C41.3141 51.2277 41.2006 50.6013 40.966 50.0164C40.7313 49.4315 40.3803 48.9003 39.9342 48.455C39.4882 48.0096 38.9563 47.6595 38.3709 47.4256C37.7854 47.1918 37.1586 47.0792 36.5283 47.0946C35.8959 47.0901 35.2688 47.2102 34.6829 47.448C34.0969 47.6857 33.5635 48.0365 33.1132 48.4803C32.6628 48.9242 32.3043 49.4523 32.0582 50.0346C31.812 50.6169 31.683 51.2419 31.6786 51.8741C31.6741 52.5062 31.7942 53.133 32.0321 53.7187C32.2699 54.3045 32.6209 54.8376 33.0649 55.2878C33.5089 55.7379 34.0373 56.0962 34.6198 56.3423C35.2024 56.5883 35.8277 56.7173 36.4601 56.7217C39.2729 56.7247 41.3054 54.6842 41.2994 51.8637V51.8577Z" fill="white"/>
<path d="M23.4398 56.1109C23.3686 55.3605 23.5674 54.5449 23.3923 53.8183C23.2762 53.2154 22.9828 52.6608 22.5496 52.2256C20.4727 50.541 20.0958 47.4802 21.9859 45.6118C23.0303 44.5767 24.2646 44.1555 25.6948 44.7843C27.1249 45.413 28.3652 47.2074 27.9973 48.8712C27.7451 50.0368 26.8935 51.0719 26.3209 52.1663C26.0241 52.7209 25.5672 53.2636 25.5138 53.845C25.3921 55.1618 25.4278 56.5142 25.4278 57.8281C25.4278 58.967 24.8759 59.1835 24.4723 59.1835C23.2558 59.1835 23.3537 58.2937 23.4516 57.4247C23.4922 56.9875 23.4882 56.5473 23.4398 56.1109ZM22.8464 48.7704C22.9828 49.6068 23.1431 50.6685 24.4278 50.6923C25.6147 50.713 25.9589 49.7521 26.0241 48.7822C26.0983 47.7175 25.6829 46.8189 24.5406 46.5846C23.7187 46.4155 22.8849 47.4891 22.8464 48.7704Z" fill="white"/>
<path d="M47.845 55.5266C47.845 54.9334 47.8064 54.3403 47.845 53.7471C47.9132 52.8989 47.7144 52.3027 46.9163 51.7867C45.7739 51.0482 45.5247 49.8262 45.676 48.5242C45.7799 47.5959 45.7532 46.638 45.9727 45.7393C45.9727 45.7037 45.9965 45.6652 46.0113 45.6296C46.3288 44.8614 47.4296 44.9118 47.7916 45.6592C47.8481 45.7661 47.8833 45.883 47.8954 46.0033C47.9844 46.9701 47.7738 47.9637 47.7115 48.9483C47.6551 49.7906 47.9014 50.4491 48.8983 50.4313C49.8953 50.4135 50.1534 49.7669 50.1059 48.9305C50.0495 47.8984 49.8359 46.8545 49.8953 45.8401C49.9076 45.7109 49.9492 45.5862 50.0169 45.4753C50.0948 45.3416 50.2033 45.2282 50.3335 45.1446C50.4638 45.0609 50.612 45.0092 50.766 44.9939C50.9201 44.9786 51.0756 44.9999 51.2197 45.0563C51.3639 45.1127 51.4927 45.2024 51.5954 45.3181C51.7213 45.4514 51.8129 45.6133 51.8625 45.7897C52.1028 46.8337 52.3164 47.9815 52.1236 49.0077C51.9326 50.0835 51.4385 51.0826 50.6993 51.8875C50.1059 52.4807 49.833 52.9552 49.8537 53.7382C49.9245 55.1651 49.9166 56.5948 49.83 58.0209C49.8068 58.1816 49.7389 58.3327 49.6342 58.4568C49.545 58.5715 49.4313 58.6647 49.3013 58.7295C49.1713 58.7944 49.0285 58.8292 48.8832 58.8315C48.738 58.8338 48.5941 58.8034 48.4622 58.7427C48.3302 58.6819 48.2136 58.5924 48.1209 58.4806C48.0069 58.3548 47.9255 58.2031 47.8836 58.0387C47.7204 57.2349 47.839 56.3689 47.839 55.5296L47.845 55.5266Z" fill="white"/>
</svg>
