<svg width="154" height="43" viewBox="0 0 154 43" fill="none" xmlns="http://www.w3.org/2000/svg">
<path d="M10.944 35C8.196 35 6.162 34.346 4.842 33.038C3.534 31.718 2.88 29.684 2.88 26.936V18.62C2.88 15.848 3.54 13.814 4.86 12.518C6.18 11.21 8.208 10.568 10.944 10.592H15.264C18.024 10.592 20.058 11.246 21.366 12.554C22.674 13.862 23.328 15.896 23.328 18.656V26.936C23.328 29.684 22.674 31.718 21.366 33.038C20.058 34.346 18.024 35 15.264 35H10.944ZM10.944 31.976H15.264C16.548 31.976 17.556 31.826 18.288 31.526C19.02 31.214 19.536 30.692 19.836 29.96C20.148 29.228 20.304 28.22 20.304 26.936V18.656C20.304 17.384 20.148 16.382 19.836 15.65C19.536 14.918 19.02 14.396 18.288 14.084C17.556 13.772 16.548 13.616 15.264 13.616H10.944C9.672 13.604 8.67 13.748 7.938 14.048C7.206 14.348 6.684 14.864 6.372 15.596C6.06 16.328 5.904 17.336 5.904 18.62V26.936C5.904 28.22 6.054 29.228 6.354 29.96C6.666 30.692 7.188 31.214 7.92 31.526C8.652 31.826 9.66 31.976 10.944 31.976ZM38.7003 35C38.0763 35 37.5843 34.604 37.2243 33.812L28.3323 12.752C28.1523 12.332 28.1043 11.96 28.1883 11.636C28.2723 11.3 28.5483 11.024 29.0163 10.808C30.0003 10.316 30.6963 10.568 31.1043 11.564L39.5103 31.472H38.4663L46.6563 11.564C47.0523 10.58 47.7483 10.328 48.7443 10.808C49.1643 11.024 49.4223 11.3 49.5183 11.636C49.6263 11.96 49.5963 12.332 49.4283 12.752L40.4643 33.812C40.0923 34.604 39.5523 35 38.8443 35H38.7003ZM57.4771 35C56.4691 35 55.9651 34.496 55.9651 33.488V12.104C55.9651 11.096 56.4691 10.592 57.4771 10.592C58.4851 10.592 58.9891 11.096 58.9891 12.104V20.654L68.1691 11.168C68.8651 10.424 69.5731 10.412 70.2931 11.132C71.0371 11.828 71.0491 12.536 70.3291 13.256L62.6791 21.158L71.6971 32.372C72.3091 33.176 72.2371 33.884 71.4811 34.496C70.7011 35.132 69.9931 35.06 69.3571 34.28L60.5551 23.372L58.9891 24.992V33.488C58.9891 34.496 58.4851 35 57.4771 35Z" fill="white"/>
<path d="M93.6 20.144C92.832 20.144 92.172 19.964 91.62 19.604C91.076 19.236 90.696 18.732 90.48 18.092L91.2 17.672C91.352 18.192 91.632 18.6 92.04 18.896C92.448 19.184 92.972 19.328 93.612 19.328C94.236 19.328 94.72 19.192 95.064 18.92C95.416 18.64 95.592 18.272 95.592 17.816C95.592 17.376 95.432 17.044 95.112 16.82C94.792 16.596 94.264 16.364 93.528 16.124C92.656 15.836 92.08 15.604 91.8 15.428C91.16 15.044 90.84 14.488 90.84 13.76C90.84 13.048 91.088 12.488 91.584 12.08C92.08 11.664 92.692 11.456 93.42 11.456C94.076 11.456 94.644 11.628 95.124 11.972C95.604 12.308 95.96 12.74 96.192 13.268L95.484 13.664C95.1 12.736 94.412 12.272 93.42 12.272C92.9 12.272 92.48 12.4 92.16 12.656C91.84 12.912 91.68 13.268 91.68 13.724C91.68 14.14 91.824 14.452 92.112 14.66C92.4 14.868 92.876 15.08 93.54 15.296C93.844 15.4 94.06 15.476 94.188 15.524C94.324 15.564 94.516 15.636 94.764 15.74C95.02 15.836 95.208 15.924 95.328 16.004C95.448 16.076 95.592 16.18 95.76 16.316C95.936 16.444 96.06 16.576 96.132 16.712C96.212 16.84 96.28 17 96.336 17.192C96.4 17.376 96.432 17.576 96.432 17.792C96.432 18.504 96.172 19.076 95.652 19.508C95.132 19.932 94.448 20.144 93.6 20.144ZM98.6555 19.208H102.735V20H97.8155V11.6H102.675V12.392H98.6555V15.368H102.375V16.16H98.6555V19.208ZM109.339 20L107.371 16.64H105.019V20H104.179V11.6H107.539C108.235 11.6 108.827 11.848 109.315 12.344C109.811 12.832 110.059 13.424 110.059 14.12C110.059 14.688 109.887 15.196 109.543 15.644C109.207 16.084 108.775 16.38 108.247 16.532L110.299 20H109.339ZM105.019 12.392V15.848H107.539C108.003 15.848 108.399 15.68 108.727 15.344C109.055 15 109.219 14.592 109.219 14.12C109.219 13.64 109.055 13.232 108.727 12.896C108.399 12.56 108.003 12.392 107.539 12.392H105.019ZM113.642 20L110.546 11.6H111.458L114.074 18.884L116.69 11.6H117.602L114.506 20H113.642ZM118.687 11.6H119.527V20H118.687V11.6ZM125.376 20.144C124.104 20.144 123.052 19.724 122.22 18.884C121.388 18.044 120.972 17.016 120.972 15.8C120.972 14.584 121.388 13.556 122.22 12.716C123.052 11.876 124.104 11.456 125.376 11.456C126.152 11.456 126.864 11.644 127.512 12.02C128.16 12.388 128.66 12.888 129.012 13.52L128.268 13.952C128.004 13.44 127.612 13.032 127.092 12.728C126.572 12.424 126 12.272 125.376 12.272C124.328 12.272 123.472 12.612 122.808 13.292C122.144 13.972 121.812 14.808 121.812 15.8C121.812 16.792 122.144 17.628 122.808 18.308C123.472 18.988 124.328 19.328 125.376 19.328C126 19.328 126.572 19.176 127.092 18.872C127.612 18.568 128.004 18.16 128.268 17.648L129.012 18.068C128.668 18.7 128.168 19.204 127.512 19.58C126.864 19.956 126.152 20.144 125.376 20.144ZM131.234 19.208H135.314V20H130.394V11.6H135.254V12.392H131.234V15.368H134.954V16.16H131.234V19.208ZM98.988 30.004V30.436C98.988 31.476 98.616 32.356 97.872 33.076C97.128 33.788 96.132 34.144 94.884 34.144C93.612 34.144 92.56 33.724 91.728 32.884C90.896 32.044 90.48 31.016 90.48 29.8C90.48 28.584 90.896 27.556 91.728 26.716C92.56 25.876 93.612 25.456 94.884 25.456C95.66 25.456 96.372 25.644 97.02 26.02C97.668 26.396 98.168 26.896 98.52 27.52L97.776 27.952C97.512 27.44 97.12 27.032 96.6 26.728C96.08 26.424 95.508 26.272 94.884 26.272C93.836 26.272 92.98 26.612 92.316 27.292C91.652 27.972 91.32 28.808 91.32 29.8C91.32 30.792 91.652 31.628 92.316 32.308C92.98 32.988 93.836 33.328 94.884 33.328C95.828 33.328 96.584 33.092 97.152 32.62C97.72 32.14 98.044 31.532 98.124 30.796H94.788V30.004H98.988ZM105.589 34L103.621 30.64H101.269V34H100.429V25.6H103.789C104.485 25.6 105.077 25.848 105.565 26.344C106.061 26.832 106.309 27.424 106.309 28.12C106.309 28.688 106.137 29.196 105.793 29.644C105.457 30.084 105.025 30.38 104.497 30.532L106.549 34H105.589ZM101.269 26.392V29.848H103.789C104.253 29.848 104.649 29.68 104.977 29.344C105.305 29 105.469 28.592 105.469 28.12C105.469 27.64 105.305 27.232 104.977 26.896C104.649 26.56 104.253 26.392 103.789 26.392H101.269ZM114.701 32.884C113.861 33.724 112.833 34.144 111.617 34.144C110.401 34.144 109.373 33.724 108.533 32.884C107.693 32.036 107.273 31.008 107.273 29.8C107.273 28.592 107.693 27.568 108.533 26.728C109.373 25.88 110.401 25.456 111.617 25.456C112.833 25.456 113.861 25.88 114.701 26.728C115.541 27.568 115.961 28.592 115.961 29.8C115.961 31.008 115.541 32.036 114.701 32.884ZM109.121 32.308C109.793 32.988 110.625 33.328 111.617 33.328C112.609 33.328 113.441 32.988 114.113 32.308C114.785 31.62 115.121 30.784 115.121 29.8C115.121 28.816 114.785 27.984 114.113 27.304C113.441 26.616 112.609 26.272 111.617 26.272C110.625 26.272 109.793 26.616 109.121 27.304C108.449 27.984 108.113 28.816 108.113 29.8C108.113 30.784 108.449 31.62 109.121 32.308ZM122.595 33.328C122.019 33.872 121.267 34.144 120.339 34.144C119.411 34.144 118.659 33.872 118.083 33.328C117.507 32.784 117.219 32.056 117.219 31.144V25.6H118.059V31.144C118.059 31.816 118.259 32.348 118.659 32.74C119.059 33.132 119.619 33.328 120.339 33.328C121.059 33.328 121.619 33.132 122.019 32.74C122.419 32.348 122.619 31.816 122.619 31.144V25.6H123.459V31.144C123.459 32.056 123.171 32.784 122.595 33.328ZM128.261 25.6C129.013 25.6 129.641 25.852 130.145 26.356C130.649 26.86 130.901 27.488 130.901 28.24C130.901 28.992 130.649 29.62 130.145 30.124C129.641 30.628 129.013 30.88 128.261 30.88H126.101V34H125.261V25.6H128.261ZM128.261 30.088C128.781 30.088 129.209 29.916 129.545 29.572C129.889 29.22 130.061 28.776 130.061 28.24C130.061 27.704 129.889 27.264 129.545 26.92C129.209 26.568 128.781 26.392 128.261 26.392H126.101V30.088H128.261Z" fill="white"/>
</svg>
