<svg width="64" height="64" viewBox="0 0 64 64" fill="none" xmlns="http://www.w3.org/2000/svg">
<path d="M4.97778 29.6545H9.01841C9.53616 29.6545 9.95591 29.2348 9.95591 28.717V20.8883C9.95591 20.3705 9.53616 19.9508 9.01841 19.9508H4.97778C4.46003 19.9508 4.04028 20.3705 4.04028 20.8883V28.717C4.04028 29.2348 4.46003 29.6545 4.97778 29.6545ZM5.91528 21.8257H8.08091V27.7794H5.91528V21.8257Z" fill="white"/>
<path d="M4.04028 40.5863C4.04028 41.1041 4.46003 41.5238 4.97778 41.5238H9.01841C9.53616 41.5238 9.95591 41.1041 9.95591 40.5863V32.7576C9.95591 32.2398 9.53616 31.8201 9.01841 31.8201H4.97778C4.46003 31.8201 4.04028 32.2398 4.04028 32.7576V40.5863ZM5.91528 33.6951H8.08091V39.6488H5.91528V33.6951Z" fill="white"/>
<path d="M4.04028 59.0219C4.04028 59.5396 4.46003 59.9594 4.97778 59.9594H9.01841C9.53616 59.9594 9.95591 59.5396 9.95591 59.0219V51.1931C9.95591 50.6754 9.53616 50.2556 9.01841 50.2556H4.97778C4.46003 50.2556 4.04028 50.6754 4.04028 51.1931V59.0219ZM5.91528 52.1306H8.08091V58.0844H5.91528V52.1306Z" fill="white"/>
<path d="M63.0625 19.875C63.5804 19.875 64 19.4552 64 18.9375V13.8171C64 13.2994 63.5804 12.8796 63.0625 12.8796H51.8775V5.91563H52.2033C52.7211 5.91563 53.1408 5.49588 53.1408 4.97813V0.9375C53.1408 0.41975 52.7211 0 52.2033 0H11.7968C11.279 0 10.8593 0.41975 10.8593 0.9375V4.97813C10.8593 5.49588 11.279 5.91563 11.7968 5.91563H12.1225V12.8795H0.9375C0.41975 12.8795 0 13.2993 0 13.817V18.9375C0 19.4552 0.41975 19.875 0.9375 19.875C1.45525 19.875 1.875 19.4552 1.875 18.9375V14.7546H12.1225V43.6895H11.7968C11.279 43.6895 10.8593 44.1092 10.8593 44.627V48.6676C10.8593 49.1854 11.279 49.6051 11.7968 49.6051H12.1225V62.125H1.875V23.3195C1.875 22.8018 1.45525 22.382 0.9375 22.382C0.41975 22.382 0 22.8018 0 23.3195V63.0625C0 63.5802 0.41975 64 0.9375 64H63.0625C63.5804 64 64 63.5802 64 63.0625V23.3195C64 22.8018 63.5804 22.382 63.0625 22.382C62.5446 22.382 62.125 22.8018 62.125 23.3195V62.125H51.8775V49.6051H52.2033C52.7211 49.6051 53.1408 49.1854 53.1408 48.6676V44.627C53.1408 44.1092 52.7211 43.6895 52.2033 43.6895H51.8775V14.7546H62.125V18.9375C62.125 19.4552 62.5446 19.875 63.0625 19.875ZM51.2658 45.5645V47.7301H12.7343V45.5645H51.2658ZM31.0625 62.125H27.8866V53.6459H31.0625V62.125ZM32.9375 62.125V53.6459H36.1133V62.125H32.9375ZM50.0025 62.125H37.9884V52.7084C37.9884 52.1906 37.5688 51.7709 37.0509 51.7709H26.9492C26.4315 51.7709 26.0117 52.1906 26.0117 52.7084V62.125H13.9975V49.6051H50.0025V62.125ZM13.9975 43.6895V5.91563H42.8904C43.4082 5.91563 43.8279 5.49588 43.8279 4.97813C43.8279 4.46037 43.4082 4.04063 42.8904 4.04063H12.7343V1.875H51.2658V4.04063H47.2724C46.7545 4.04063 46.3349 4.46037 46.3349 4.97813C46.3349 5.49588 46.7545 5.91563 47.2724 5.91563H50.0025V43.6895H13.9975Z" fill="white"/>
<path d="M21.1413 8.08121H17.1007C16.583 8.08121 16.1632 8.50096 16.1632 9.01871V16.8475C16.1632 17.3652 16.583 17.785 17.1007 17.785H21.1413C21.6591 17.785 22.0788 17.3652 22.0788 16.8475V9.01871C22.0788 8.50096 21.6591 8.08121 21.1413 8.08121ZM20.2038 15.91H18.0382V9.95621H20.2038V15.91Z" fill="white"/>
<path d="M29.7276 8.08121H25.687C25.1693 8.08121 24.7495 8.50096 24.7495 9.01871V16.8475C24.7495 17.3652 25.1693 17.785 25.687 17.785H29.7276C30.2454 17.785 30.6651 17.3652 30.6651 16.8475V9.01871C30.6651 8.50096 30.2454 8.08121 29.7276 8.08121ZM28.7901 15.91H26.6245V9.95621H28.7901V15.91Z" fill="white"/>
<path d="M38.3133 8.08121H34.2727C33.7548 8.08121 33.3352 8.50096 33.3352 9.01871V16.8475C33.3352 17.3652 33.7548 17.785 34.2727 17.785H38.3133C38.8312 17.785 39.2508 17.3652 39.2508 16.8475V9.01871C39.2508 8.50096 38.8311 8.08121 38.3133 8.08121ZM37.3758 15.91H35.2102V9.95621H37.3758V15.91Z" fill="white"/>
<path d="M46.8996 8.08121H42.859C42.3411 8.08121 41.9215 8.50096 41.9215 9.01871V16.8475C41.9215 17.3652 42.3411 17.785 42.859 17.785H46.8996C47.4175 17.785 47.8371 17.3652 47.8371 16.8475V9.01871C47.8371 8.50096 47.4175 8.08121 46.8996 8.08121ZM45.9621 15.91H43.7965V9.95621H45.9621V15.91Z" fill="white"/>
<path d="M21.1413 19.9506H17.1007C16.583 19.9506 16.1632 20.3703 16.1632 20.8881V28.7168C16.1632 29.2346 16.583 29.6543 17.1007 29.6543H21.1413C21.6591 29.6543 22.0788 29.2346 22.0788 28.7168V20.8881C22.0788 20.3703 21.6591 19.9506 21.1413 19.9506ZM20.2038 27.7794H18.0382V21.8257H20.2038V27.7794Z" fill="white"/>
<path d="M29.7276 19.9506H25.687C25.1693 19.9506 24.7495 20.3703 24.7495 20.8881V28.7168C24.7495 29.2346 25.1693 29.6543 25.687 29.6543H29.7276C30.2454 29.6543 30.6651 29.2346 30.6651 28.7168V20.8881C30.6651 20.3703 30.2454 19.9506 29.7276 19.9506ZM28.7901 27.7794H26.6245V21.8257H28.7901V27.7794Z" fill="white"/>
<path d="M38.3133 19.9506H34.2727C33.7548 19.9506 33.3352 20.3703 33.3352 20.8881V28.7168C33.3352 29.2346 33.7548 29.6543 34.2727 29.6543H38.3133C38.8312 29.6543 39.2508 29.2346 39.2508 28.7168V20.8881C39.2508 20.3703 38.8311 19.9506 38.3133 19.9506ZM37.3758 27.7794H35.2102V21.8257H37.3758V27.7794Z" fill="white"/>
<path d="M46.8996 19.9506H42.859C42.3411 19.9506 41.9215 20.3703 41.9215 20.8881V28.7168C41.9215 29.2346 42.3411 29.6543 42.859 29.6543H46.8996C47.4175 29.6543 47.8371 29.2346 47.8371 28.7168V20.8881C47.8371 20.3703 47.4175 19.9506 46.8996 19.9506ZM45.9621 27.7794H43.7965V21.8257H45.9621V27.7794Z" fill="white"/>
<path d="M21.1413 31.8201H17.1007C16.583 31.8201 16.1632 32.2398 16.1632 32.7576V40.5863C16.1632 41.1041 16.583 41.5238 17.1007 41.5238H21.1413C21.6591 41.5238 22.0788 41.1041 22.0788 40.5863V32.7576C22.0788 32.2398 21.6591 31.8201 21.1413 31.8201ZM20.2038 39.6488H18.0382V33.6951H20.2038V39.6488Z" fill="white"/>
<path d="M29.7276 31.8201H25.687C25.1693 31.8201 24.7495 32.2398 24.7495 32.7576V40.5863C24.7495 41.1041 25.1693 41.5238 25.687 41.5238H29.7276C30.2454 41.5238 30.6651 41.1041 30.6651 40.5863V32.7576C30.6651 32.2398 30.2454 31.8201 29.7276 31.8201ZM28.7901 39.6488H26.6245V33.6951H28.7901V39.6488Z" fill="white"/>
<path d="M38.3133 31.8201H34.2727C33.7548 31.8201 33.3352 32.2398 33.3352 32.7576V40.5863C33.3352 41.1041 33.7548 41.5238 34.2727 41.5238H38.3133C38.8312 41.5238 39.2508 41.1041 39.2508 40.5863V32.7576C39.2508 32.2398 38.8311 31.8201 38.3133 31.8201ZM37.3758 39.6488H35.2102V33.6951H37.3758V39.6488Z" fill="white"/>
<path d="M46.8996 31.8201H42.859C42.3411 31.8201 41.9215 32.2398 41.9215 32.7576V40.5863C41.9215 41.1041 42.3411 41.5238 42.859 41.5238H46.8996C47.4175 41.5238 47.8371 41.1041 47.8371 40.5863V32.7576C47.8371 32.2398 47.4175 31.8201 46.8996 31.8201ZM45.9621 39.6488H43.7965V33.6951H45.9621V39.6488Z" fill="white"/>
<path d="M17.1007 59.9593H22.9091C23.4268 59.9593 23.8466 59.5396 23.8466 59.0218V52.7083C23.8466 52.1906 23.4268 51.7708 22.9091 51.7708H17.1007C16.583 51.7708 16.1632 52.1906 16.1632 52.7083V59.0218C16.1632 59.5396 16.583 59.9593 17.1007 59.9593ZM18.0382 53.6458H21.9716V58.0843H18.0382V53.6458Z" fill="white"/>
<path d="M41.0917 59.9593H46.9002C47.4181 59.9593 47.8377 59.5396 47.8377 59.0218V52.7083C47.8377 52.1906 47.4181 51.7708 46.9002 51.7708H41.0917C40.5738 51.7708 40.1542 52.1906 40.1542 52.7083V59.0218C40.1542 59.5396 40.5739 59.9593 41.0917 59.9593ZM42.0292 53.6458H45.9627V58.0843H42.0292V53.6458Z" fill="white"/>
<path d="M59.9588 20.8881C59.9588 20.3703 59.5392 19.9506 59.0213 19.9506H54.9807C54.4628 19.9506 54.0432 20.3703 54.0432 20.8881V28.7168C54.0432 29.2346 54.4628 29.6543 54.9807 29.6543H59.0213C59.5392 29.6543 59.9588 29.2346 59.9588 28.7168V20.8881ZM58.0838 27.7794H55.9182V21.8257H58.0838V27.7794Z" fill="white"/>
<path d="M59.9588 32.7576C59.9588 32.2398 59.5392 31.8201 59.0213 31.8201H54.9807C54.4628 31.8201 54.0432 32.2398 54.0432 32.7576V40.5863C54.0432 41.1041 54.4628 41.5238 54.9807 41.5238H59.0213C59.5392 41.5238 59.9588 41.1041 59.9588 40.5863V32.7576ZM58.0838 39.6488H55.9182V33.6951H58.0838V39.6488Z" fill="white"/>
<path d="M59.0213 50.2556H54.9807C54.4628 50.2556 54.0432 50.6754 54.0432 51.1931V59.0219C54.0432 59.5396 54.4628 59.9594 54.9807 59.9594H59.0213C59.5392 59.9594 59.9588 59.5396 59.9588 59.0219V51.1931C59.9588 50.6754 59.5391 50.2556 59.0213 50.2556ZM58.0838 58.0844H55.9182V52.1306H58.0838V58.0844Z" fill="white"/>
</svg>
