<svg width="22" height="22" viewBox="0 0 22 22" fill="none" xmlns="http://www.w3.org/2000/svg">
<g clip-path="url(#clip0)">
<path d="M21.9785 15.5319C21.927 16.7009 21.7379 17.5045 21.4672 18.2009C21.1878 18.9401 20.758 19.6018 20.195 20.152C19.6448 20.7107 18.9787 21.1448 18.2481 21.4198C17.5477 21.6906 16.7482 21.8796 15.5793 21.9312C14.4016 21.9871 14.0277 22 11.0408 22C8.05393 22 7.68006 21.9871 6.50675 21.9355C5.33781 21.884 4.53417 21.6948 3.83797 21.4242C3.09863 21.1448 2.43685 20.7151 1.88671 20.152C1.32801 19.6018 0.894042 18.9357 0.618887 18.2051C0.348098 17.5045 0.159066 16.7052 0.107527 15.5363C0.051623 14.3586 0.0386963 13.9848 0.0386963 10.9979C0.0386963 8.01094 0.051623 7.63707 0.103162 6.46376C0.154701 5.29482 0.343901 4.49118 0.61469 3.79482C0.894042 3.05564 1.32801 2.39386 1.88671 1.84372C2.43685 1.28502 3.103 0.850883 3.83361 0.575895C4.53417 0.305107 5.33344 0.116074 6.50256 0.0645351C7.6757 0.0128288 8.04973 6.86646e-05 11.0366 6.86646e-05C14.0236 6.86646e-05 14.3974 0.0128288 15.5707 0.0645351C16.7397 0.116074 17.5433 0.305107 18.2395 0.575895C19.718 1.14753 20.887 2.31647 21.4586 3.79482C21.7292 4.49538 21.9184 5.29482 21.97 6.46376C22.0215 7.63707 22.0344 8.01094 22.0344 10.9979C22.0344 13.9848 22.0301 14.3586 21.9785 15.5319ZM19.9974 6.54972C19.95 5.47529 19.7696 4.8951 19.6191 4.5083C19.2495 3.54988 18.4888 2.78922 17.5304 2.41955C17.1436 2.26913 16.5592 2.08866 15.489 2.04148C14.3286 1.98978 13.9806 1.97702 11.0452 1.97702C8.10983 1.97702 7.75745 1.98978 6.60127 2.04148C5.52684 2.08866 4.94665 2.26913 4.55986 2.41955C4.08291 2.59582 3.64877 2.87517 3.2964 3.24048C2.93109 3.59722 2.65174 4.02699 2.47547 4.50394C2.32505 4.89073 2.14458 5.47529 2.0974 6.54535C2.04569 7.70574 2.03294 8.05392 2.03294 10.9893C2.03294 13.9247 2.04569 14.277 2.0974 15.4331C2.14458 16.5075 2.32505 17.0877 2.47547 17.4745C2.65174 17.9516 2.93109 18.3856 3.30076 18.7381C3.65734 19.1034 4.08711 19.3828 4.56422 19.5589C4.95101 19.7093 5.53557 19.8898 6.60563 19.9371C7.76602 19.9886 8.1142 20.0016 11.0494 20.0016C13.9891 20.0016 14.3371 19.9886 15.4933 19.9371C16.5678 19.8898 17.148 19.7093 17.5347 19.5589C18.0117 19.3828 18.4458 19.1034 18.7982 18.7381C19.1635 18.3814 19.4429 17.9516 19.6191 17.4745C19.7696 17.0877 19.95 16.5033 19.9974 15.4331C20.0489 14.2727 20.0618 13.9247 20.0618 10.9893C20.0618 8.05392 20.0489 7.7101 19.9974 6.54972Z" fill="#403F46"/>
<path d="M11.0403 16.6494C7.92025 16.6494 5.38879 14.1181 5.38879 10.9979C5.38879 7.87771 7.92025 5.34643 11.0403 5.34643C14.1605 5.34643 16.6918 7.87771 16.6918 10.9979C16.6918 14.1181 14.1605 16.6494 11.0403 16.6494ZM11.0403 7.33194C9.01617 7.33194 7.3743 8.97363 7.3743 10.9979C7.3743 13.0222 9.01617 14.6639 11.0403 14.6639C13.0646 14.6639 14.7063 13.0222 14.7063 10.9979C14.7063 8.97363 13.0646 7.33194 11.0403 7.33194Z" fill="#403F46"/>
<path d="M18.2346 16.8728C18.2346 16.1442 17.6438 15.5534 16.9151 15.5534C16.1865 15.5534 15.5957 16.1442 15.5957 16.8728C15.5957 17.6015 16.1865 18.1921 16.9151 18.1921C17.6438 18.1921 18.2346 17.6015 18.2346 16.8728Z" fill="#403F46"/>
</g>
<defs>
<clipPath id="clip0">
<rect width="22" height="22" fill="white" transform="matrix(1 0 0 -1 0 22)"/>
</clipPath>
</defs>
</svg>
