<svg width="218" height="160" viewBox="0 0 218 160" fill="none" xmlns="http://www.w3.org/2000/svg">
<g opacity="0.45" filter="url(#filter0_d)">
<path d="M191.501 101.262H172.244V92.897H187.243V20.811H195.693V97.0797C195.693 99.4325 193.793 101.262 191.501 101.262Z" fill="#E5F4F6"/>
<path d="M172.244 101.262H191.501C192.811 101.262 193.99 100.674 194.71 99.7592L187.243 92.897H172.244V101.262Z" fill="#E5F4F6"/>
<path d="M174.405 121.262C174.405 122.7 173.226 123.811 171.785 123.811H12.62C11.179 123.811 10 122.634 10 121.262V17.0212C10 15.5834 11.179 14.4724 12.62 14.4724H171.72C173.161 14.4724 174.34 15.6488 174.34 17.0212V121.262H174.405Z" fill="white"/>
<g opacity="0.4">
<g opacity="0.4">
<path opacity="0.4" d="M171.72 14.4724H163.074V113.354C163.074 114.792 161.895 115.903 160.454 115.903H10V121.196C10 122.634 11.179 123.745 12.62 123.745H171.72C173.161 123.745 174.34 122.569 174.34 121.196V17.0212C174.405 15.5834 173.161 14.4724 171.72 14.4724Z" fill="#DAEAE9"/>
</g>
</g>
<path d="M117.188 79.6814C123.026 53.9834 106.881 28.4283 81.1254 22.6026C55.3702 16.7769 29.7583 32.8865 23.9196 58.5846C18.0809 84.2826 34.2264 109.838 59.9816 115.663C85.7369 121.489 111.349 105.379 117.188 79.6814Z" fill="#E5F4F6"/>
<path d="M114.145 69.1733C114.145 93.2238 94.6264 112.699 70.5224 112.699C46.4184 112.699 26.8994 93.2238 26.8994 69.1733C26.8994 45.1228 46.4184 25.6471 70.5224 25.6471C94.6264 25.5818 114.145 45.1228 114.145 69.1733Z" fill="#595766"/>
<path d="M78.3823 69.1733C78.3823 73.552 74.8453 77.0811 70.4568 77.0811C66.0683 77.0811 62.5312 73.552 62.5312 69.1733C62.5312 64.7945 66.0683 61.2654 70.4568 61.2654C74.8453 61.2654 78.3823 64.7945 78.3823 69.1733Z" fill="#E5F4F6"/>
<path d="M71.7665 21.3992H69.2775V116.817H71.7665V21.3992Z" fill="#E5F4F6"/>
<path d="M118.337 67.9316H22.707V70.416H118.337V67.9316Z" fill="#E5F4F6"/>
<path d="M111.555 44.6063L28.29 91.5327L29.5141 93.6951L112.779 46.7687L111.555 44.6063Z" fill="#E5F4F6"/>
<path d="M48.0791 26.9637L45.9116 28.1848L92.9328 111.275L95.1003 110.053L48.0791 26.9637Z" fill="#E5F4F6"/>
<path d="M29.1315 45.1176L27.9365 47.2961L111.823 93.1062L113.018 90.9276L29.1315 45.1176Z" fill="#E5F4F6"/>
<path d="M92.4074 26.6837L46.4763 110.375L48.6594 111.567L94.5905 27.8765L92.4074 26.6837Z" fill="#E5F4F6"/>
<path d="M75.9625 21.72L64.5825 116.46L65.1028 116.522L76.4828 21.7822L75.9625 21.72Z" fill="#E5F4F6"/>
<path d="M23.0388 63.1776L22.9766 63.6968L117.923 75.1049L117.986 74.5857L23.0388 63.1776Z" fill="#E5F4F6"/>
<path d="M114.57 50.5369L26.3223 87.3108L26.5242 87.7933L114.772 51.0193L114.57 50.5369Z" fill="#E5F4F6"/>
<path d="M52.3638 24.945L51.8801 25.146L88.6499 113.226L89.1336 113.025L52.3638 24.945Z" fill="#E5F4F6"/>
<path d="M31.7342 41.1577L31.4297 41.5833L109.244 97.0525L109.549 96.6269L31.7342 41.1577Z" fill="#E5F4F6"/>
<path d="M98.1429 30.179L42.5341 107.811L42.9604 108.115L98.5692 30.483L98.1429 30.179Z" fill="#E5F4F6"/>
<path d="M80.2359 22.4034L60.3545 115.741L60.8671 115.85L80.7485 22.5121L80.2359 22.4034Z" fill="#E5F4F6"/>
<path d="M23.7729 58.9277L23.6641 59.4392L117.187 79.3729L117.296 78.8614L23.7729 58.9277Z" fill="#E5F4F6"/>
<path d="M116.07 54.6076L24.8389 83.2139L24.996 83.7127L116.227 55.1064L116.07 54.6076Z" fill="#E5F4F6"/>
<path d="M56.4422 23.5145L55.9424 23.6716L84.5135 114.735L85.0134 114.578L56.4422 23.5145Z" fill="#E5F4F6"/>
<path d="M34.4248 37.7958L34.083 38.1921L106.56 100.445L106.902 100.049L34.4248 37.7958Z" fill="#E5F4F6"/>
<path d="M101.516 32.8229L39.1272 105.13L39.5243 105.471L101.913 33.164L101.516 32.8229Z" fill="#E5F4F6"/>
<path d="M84.2118 23.4119L56.3931 114.708L56.8944 114.86L84.7132 23.564L84.2118 23.4119Z" fill="#E5F4F6"/>
<path d="M24.8064 54.9733L24.6543 55.4736L116.12 83.3275L116.272 82.8272L24.8064 54.9733Z" fill="#E5F4F6"/>
<path d="M117.16 58.5832L23.7969 79.2412L23.9103 79.7517L117.274 59.0937L117.16 58.5832Z" fill="#E5F4F6"/>
<path d="M60.4087 22.4698L59.8972 22.5835L80.5989 115.741L81.1104 115.628L60.4087 22.4698Z" fill="#E5F4F6"/>
<path d="M37.2471 34.8271L36.8726 35.1929L103.766 103.388L104.14 103.022L37.2471 34.8271Z" fill="#E5F4F6"/>
<path d="M104.522 35.5858L36.1748 102.321L36.5413 102.694L104.888 35.9595L104.522 35.5858Z" fill="#E5F4F6"/>
<path d="M88.3209 24.8535L52.2493 113.22L52.7346 113.417L88.8062 25.0507L88.3209 24.8535Z" fill="#E5F4F6"/>
<path d="M26.2779 50.9112L26.0811 51.3958L114.625 87.434L114.822 86.9495L26.2779 50.9112Z" fill="#E5F4F6"/>
<path d="M117.923 62.8063L23.0771 75.0103L23.1442 75.529L117.991 63.325L117.923 62.8063Z" fill="#E5F4F6"/>
<path d="M64.6708 21.7484L64.1511 21.8152L76.3136 116.454L76.8333 116.387L64.6708 21.7484Z" fill="#E5F4F6"/>
<path d="M40.5059 31.955L40.0997 32.2854L100.506 106.263L100.913 105.933L40.5059 31.955Z" fill="#E5F4F6"/>
<path d="M107.46 38.8455L33.2803 99.0635L33.611 99.469L107.791 39.251L107.46 38.8455Z" fill="#E5F4F6"/>
<path d="M49.0378 111.785L48.5793 111.588L91.9403 26.4968L92.3988 26.7582L49.0378 111.785Z" fill="#E5F4F6"/>
<path d="M27.9906 47.231L27.7529 47.697L112.988 90.9689L113.226 90.5029L27.9906 47.231Z" fill="#E5F4F6"/>
<path d="M118.292 66.8552L22.748 70.9846L22.7707 71.5075L118.315 67.3781L118.292 66.8552Z" fill="#E5F4F6"/>
<path d="M68.7175 21.4397L68.194 21.4624L72.3342 116.794L72.8577 116.772L68.7175 21.4397Z" fill="#E5F4F6"/>
<path d="M43.742 29.559L43.3093 29.854L97.2417 108.649L97.6743 108.354L43.742 29.559Z" fill="#E5F4F6"/>
<path d="M109.867 41.9946L30.9336 95.8674L31.2295 96.299L110.162 42.4262L109.867 41.9946Z" fill="#E5F4F6"/>
<path d="M48.8416 123.81H36.3311V129.561H48.8416V123.81Z" fill="#595766"/>
<path d="M148.991 123.81H136.48V129.561H148.991V123.81Z" fill="#595766"/>
<path d="M180.104 83.6821H174.405V109.366H180.104V83.6821Z" fill="#595766"/>
</g>
<path d="M10.7859 128.123H166.217L217.962 159.297H48.8414L10.7859 128.123Z" fill="white" fill-opacity="0.15"/>
<defs>
<filter id="filter0_d" x="0" y="0.472412" width="205.693" height="135.089" filterUnits="userSpaceOnUse" color-interpolation-filters="sRGB">
<feFlood flood-opacity="0" result="BackgroundImageFix"/>
<feColorMatrix in="SourceAlpha" type="matrix" values="0 0 0 0 0 0 0 0 0 0 0 0 0 0 0 0 0 0 127 0"/>
<feOffset dy="-4"/>
<feGaussianBlur stdDeviation="5"/>
<feColorMatrix type="matrix" values="0 0 0 0 0 0 0 0 0 0 0 0 0 0 0 0 0 0 0.05 0"/>
<feBlend mode="normal" in2="BackgroundImageFix" result="effect1_dropShadow"/>
<feBlend mode="normal" in="SourceGraphic" in2="effect1_dropShadow" result="shape"/>
</filter>
</defs>
</svg>
