<svg width="194" height="255" viewBox="0 0 194 255" fill="none" xmlns="http://www.w3.org/2000/svg">
<g opacity="0.45" filter="url(#filter0_d)">
<path d="M41.7676 117.664C41.7676 118.709 40.9161 119.624 39.8026 119.624C38.7545 119.624 37.8375 118.775 37.8375 117.664V107.926C37.8375 106.88 38.689 105.965 39.8026 105.965C40.8506 105.965 41.7676 106.815 41.7676 107.926V117.664Z" fill="#595766"/>
<path d="M140.738 117.664C140.738 118.709 139.887 119.624 138.773 119.624C137.725 119.624 136.808 118.775 136.808 117.664V107.926C136.808 106.88 137.659 105.965 138.773 105.965C139.821 105.965 140.738 106.815 140.738 107.926V117.664Z" fill="#595766"/>
<path d="M41.7676 224.127C41.7676 225.172 40.9161 226.087 39.8026 226.087C38.7545 226.087 37.8375 225.238 37.8375 224.127V214.389C37.8375 213.343 38.689 212.428 39.8026 212.428C40.8506 212.428 41.7676 213.278 41.7676 214.389V224.127Z" fill="#595766"/>
<path d="M140.738 224.127C140.738 225.172 139.887 226.087 138.773 226.087C137.725 226.087 136.808 225.238 136.808 224.127V214.389C136.808 213.343 137.659 212.428 138.773 212.428C139.821 212.428 140.738 213.278 140.738 214.389V224.127Z" fill="#595766"/>
<path d="M41.7676 188.247H15.0435C12.227 188.247 10 185.959 10 183.214V69.6282C10 66.818 12.2925 64.5959 15.0435 64.5959H41.7676V74.7259H20.087V178.117H41.7676V188.247Z" fill="#E5F4F6"/>
<path d="M10.655 185.698C11.5065 187.201 13.144 188.247 15.0435 188.247H41.7676V178.117H20.087L10.655 185.698Z" fill="#E5F4F6"/>
<path d="M41.7675 64.5959H15.0435C13.406 64.5959 11.965 65.3802 11.048 66.5566L20.1525 74.7259H41.2435C41.44 74.4644 41.571 74.203 41.7675 73.9416V64.5959Z" fill="#E5F4F6"/>
<path d="M145.847 110.475C145.847 111.782 144.799 112.762 143.489 112.762H36.7241C35.4141 112.762 34.3661 111.717 34.3661 110.475V16.5604C34.3661 15.2533 35.4141 14.2729 36.7241 14.2729H143.489C144.799 14.2729 145.847 15.3186 145.847 16.5604V110.475Z" fill="white"/>
<path d="M143.489 14.2729H136.284V103.417C136.284 104.724 135.236 105.704 133.926 105.704H34.3661V110.475C34.3661 111.782 35.4141 112.762 36.7241 112.762H143.489C144.799 112.762 145.847 111.717 145.847 110.475V16.5604C145.847 15.2533 144.799 14.2729 143.489 14.2729Z" fill="#DAEAE9"/>
<path d="M133.206 63.5509C133.206 87.2746 113.883 106.554 90.1065 106.554C66.33 106.554 47.0074 87.2746 47.0074 63.5509C47.0074 39.8272 66.33 20.5476 90.1065 20.5476C113.883 20.5476 133.206 39.7618 133.206 63.5509Z" fill="#E5F4F6"/>
<path d="M128.865 70.2382C132.57 48.9 118.237 28.6051 96.8512 24.9083C75.4655 21.2115 55.1254 35.5128 51.4204 56.851C47.7154 78.1892 62.0485 98.4841 83.4342 102.181C104.82 105.878 125.16 91.5765 128.865 70.2382Z" fill="#595766"/>
<path d="M97.1805 63.5502C97.1805 67.4714 93.971 70.6738 90.0411 70.6738C86.1111 70.6738 82.9016 67.4714 82.9016 63.5502C82.9016 59.6289 86.1111 56.4265 90.0411 56.4265C94.0365 56.4265 97.1805 59.6289 97.1805 63.5502Z" fill="#E5F4F6"/>
<path d="M91.22 20.5476H88.993V106.554H91.22V20.5476Z" fill="#E5F4F6"/>
<path d="M133.206 62.439H47.0074V64.6618H133.206V62.439Z" fill="#E5F4F6"/>
<path d="M127.129 41.4624L52.0588 83.7346L53.1534 85.6698L128.223 43.3976L127.129 41.4624Z" fill="#E5F4F6"/>
<path d="M69.857 25.5653L67.9185 26.6587L110.269 101.563L112.208 100.47L69.857 25.5653Z" fill="#E5F4F6"/>
<path d="M52.8574 41.9247L51.7891 43.8743L127.384 85.1985L128.452 83.2489L52.8574 41.9247Z" fill="#E5F4F6"/>
<path d="M109.867 25.2574L68.4747 100.702L70.4283 101.769L111.82 26.3244L109.867 25.2574Z" fill="#E5F4F6"/>
<path d="M95.0195 20.8321L84.7275 106.219L85.1827 106.274L95.4747 20.8867L95.0195 20.8321Z" fill="#E5F4F6"/>
<path d="M132.878 68.844L47.2694 58.6486L47.3349 58.1912L132.944 68.4518L132.878 68.844Z" fill="#E5F4F6"/>
<path d="M129.761 46.7137L50.2351 79.8865L50.412 80.3085L129.938 47.1358L129.761 46.7137Z" fill="#E5F4F6"/>
<path d="M73.7039 23.745L73.2806 23.9209L106.424 103.314L106.847 103.138L73.7039 23.745Z" fill="#E5F4F6"/>
<path d="M55.1743 38.3549L54.9078 38.7273L125.048 88.7256L125.314 88.3532L55.1743 38.3549Z" fill="#E5F4F6"/>
<path d="M114.93 28.4075L64.8315 98.3911L65.2046 98.657L115.303 28.6734L114.93 28.4075Z" fill="#E5F4F6"/>
<path d="M98.8112 21.4374L80.9683 105.578L81.4168 105.672L99.2598 21.5321L98.8112 21.4374Z" fill="#E5F4F6"/>
<path d="M48.0499 54.3615L47.9547 54.8091L132.254 72.7767L132.349 72.3292L48.0499 54.3615Z" fill="#E5F4F6"/>
<path d="M131.115 50.3164L48.916 76.2043L49.054 76.6406L131.253 50.7526L131.115 50.3164Z" fill="#E5F4F6"/>
<path d="M77.4144 22.4665L76.9771 22.604L102.73 104.685L103.168 104.548L77.4144 22.4665Z" fill="#E5F4F6"/>
<path d="M57.6128 35.3382L57.3137 35.6851L122.642 91.7981L122.941 91.4513L57.6128 35.3382Z" fill="#E5F4F6"/>
<path d="M118.055 30.7859L61.802 95.9531L62.1494 96.2517L118.402 31.0845L118.055 30.7859Z" fill="#E5F4F6"/>
<path d="M102.402 22.285L77.3354 104.576L77.7741 104.709L102.841 22.4181L102.402 22.285Z" fill="#E5F4F6"/>
<path d="M131.24 76.2291L48.776 51.1983L48.907 50.8062L131.371 75.8369L131.24 76.2291Z" fill="#E5F4F6"/>
<path d="M132.062 53.8817L47.9672 72.7429L48.0677 73.1892L132.163 54.328L132.062 53.8817Z" fill="#E5F4F6"/>
<path d="M99.2111 105.573L80.5437 21.5925L80.9367 21.5271L99.6696 105.442L99.2111 105.573Z" fill="#E5F4F6"/>
<path d="M120.106 94.3975L59.78 32.9642L60.1075 32.6375L120.433 94.0707L120.106 94.3975Z" fill="#E5F4F6"/>
<path d="M120.775 33.2593L59.178 93.4294L59.4987 93.7564L121.096 33.5862L120.775 33.2593Z" fill="#E5F4F6"/>
<path d="M74.059 103.417L73.666 103.286L106.154 23.6187L106.547 23.7494L74.059 103.417Z" fill="#E5F4F6"/>
<path d="M129.93 79.9542L50.0861 47.5384L50.2826 47.1462L130.127 79.4967L129.93 79.9542Z" fill="#E5F4F6"/>
<path d="M132.782 57.736L47.3076 68.8308L47.3668 69.2844L132.841 58.1896L132.782 57.736Z" fill="#E5F4F6"/>
<path d="M84.7823 20.8695L84.3275 20.928L95.2978 106.232L95.7526 106.173L84.7823 20.8695Z" fill="#E5F4F6"/>
<path d="M63.076 30.0566L62.7206 30.3457L117.169 97.027L117.525 96.7379L63.076 30.0566Z" fill="#E5F4F6"/>
<path d="M123.391 36.1544L56.5449 90.459L56.8344 90.8138L123.681 36.5092L123.391 36.1544Z" fill="#E5F4F6"/>
<path d="M109.443 25.102L70.395 101.777L70.8038 101.984L109.851 25.3092L109.443 25.102Z" fill="#E5F4F6"/>
<path d="M51.8077 43.8205L51.5997 44.2283L128.428 83.2322L128.636 82.8245L51.8077 43.8205Z" fill="#E5F4F6"/>
<path d="M47.0729 65.6417L47.0074 65.1842L133.14 61.459V61.8511L47.0729 65.6417Z" fill="#E5F4F6"/>
<path d="M88.4639 20.5839L88.0057 20.6038L91.738 106.533L92.1961 106.513L88.4639 20.5839Z" fill="#E5F4F6"/>
<path d="M66.0184 27.8805L65.6398 28.1387L114.253 99.162L114.631 98.9039L66.0184 27.8805Z" fill="#E5F4F6"/>
<path d="M125.562 39.0811L54.3368 87.52L54.595 87.898L125.82 39.4591L125.562 39.0811Z" fill="#E5F4F6"/>
<path d="M145.847 214.846C145.847 216.153 144.799 217.133 143.489 217.133H36.7241C35.4141 217.133 34.3661 216.088 34.3661 214.846V120.931C34.3661 119.624 35.4141 118.644 36.7241 118.644H143.489C144.799 118.644 145.847 119.69 145.847 120.931V214.846Z" fill="white"/>
<path d="M143.489 118.644H136.284V209.552C136.284 210.859 135.236 211.84 133.926 211.84H34.3661V214.846C34.3661 216.153 35.4141 217.133 36.7241 217.133H143.489C144.799 217.133 145.847 216.088 145.847 214.846V120.931C145.847 119.624 144.799 118.644 143.489 118.644Z" fill="#DAEAE9"/>
<path d="M133.206 167.922C133.206 191.645 113.883 210.925 90.1065 210.925C66.33 210.925 47.0074 191.645 47.0074 167.922C47.0074 144.198 66.33 124.918 90.1065 124.918C113.883 124.918 133.206 144.132 133.206 167.922Z" fill="#E5F4F6"/>
<path d="M129.317 170.771C130.9 149.173 114.636 130.383 92.9896 128.804C71.3433 127.224 52.5122 143.452 50.929 165.05C49.3458 186.648 65.6101 205.438 87.2563 207.017C108.903 208.597 127.734 192.369 129.317 170.771Z" fill="#595766"/>
<path d="M97.1805 167.922C97.1805 171.843 93.971 175.045 90.041 175.045C86.111 175.045 82.9015 171.843 82.9015 167.922C82.9015 164 86.111 160.798 90.041 160.798C94.0365 160.798 97.1805 164 97.1805 167.922Z" fill="#E5F4F6"/>
<path d="M91.22 124.918H88.993V210.925H91.22V124.918Z" fill="#E5F4F6"/>
<path d="M133.206 166.745H47.0074V168.968H133.206V166.745Z" fill="#E5F4F6"/>
<path d="M127.095 145.769L52.0247 188.042L53.1192 189.977L128.189 147.704L127.095 145.769Z" fill="#E5F4F6"/>
<path d="M69.8573 129.935L67.9188 131.028L110.27 205.933L112.208 204.839L69.8573 129.935Z" fill="#E5F4F6"/>
<path d="M52.8579 146.292L51.7896 148.242L127.385 189.566L128.453 187.616L52.8579 146.292Z" fill="#E5F4F6"/>
<path d="M109.743 129.633L68.3684 205.078L70.3219 206.145L111.697 130.7L109.743 129.633Z" fill="#E5F4F6"/>
<path d="M94.9858 125.169L84.7454 210.565L85.2006 210.62L95.441 125.224L94.9858 125.169Z" fill="#E5F4F6"/>
<path d="M132.878 173.215L47.2694 162.955L47.3349 162.562L132.944 172.823L132.878 173.215Z" fill="#E5F4F6"/>
<path d="M129.763 151.082L50.2369 184.255L50.4138 184.677L129.94 151.504L129.763 151.082Z" fill="#E5F4F6"/>
<path d="M73.7094 128.115L73.2861 128.291L106.429 207.684L106.852 207.508L73.7094 128.115Z" fill="#E5F4F6"/>
<path d="M55.182 142.725L54.9155 143.097L125.055 193.095L125.322 192.723L55.182 142.725Z" fill="#E5F4F6"/>
<path d="M65.2165 203.017L64.889 202.755L114.997 132.761L115.324 133.022L65.2165 203.017Z" fill="#E5F4F6"/>
<path d="M98.8111 125.808L80.9681 209.949L81.4167 210.043L99.2597 125.903L98.8111 125.808Z" fill="#E5F4F6"/>
<path d="M48.0572 158.734L47.9619 159.182L132.261 177.149L132.356 176.702L48.0572 158.734Z" fill="#E5F4F6"/>
<path d="M131.126 154.769L48.9188 180.631L49.0567 181.067L131.264 155.205L131.126 154.769Z" fill="#E5F4F6"/>
<path d="M77.4157 126.841L76.9781 126.978L102.803 209.037L103.241 208.9L77.4157 126.841Z" fill="#E5F4F6"/>
<path d="M57.6213 139.719L57.3223 140.066L122.651 196.179L122.95 195.832L57.6213 139.719Z" fill="#E5F4F6"/>
<path d="M118.084 135.146L61.788 200.278L62.1352 200.577L118.431 135.444L118.084 135.146Z" fill="#E5F4F6"/>
<path d="M102.357 126.638L77.3513 208.947L77.7901 209.079L102.796 126.771L102.357 126.638Z" fill="#E5F4F6"/>
<path d="M131.24 180.6L48.776 155.57L48.907 155.177L131.371 180.208L131.24 180.6Z" fill="#E5F4F6"/>
<path d="M132.059 158.248L47.9642 177.109L48.0648 177.555L132.16 158.694L132.059 158.248Z" fill="#E5F4F6"/>
<path d="M80.9766 125.877L80.5289 125.976L99.2312 209.936L99.6788 209.837L80.9766 125.877Z" fill="#E5F4F6"/>
<path d="M60.1563 137.028L59.8286 137.348L120.124 198.817L120.452 198.497L60.1563 137.028Z" fill="#E5F4F6"/>
<path d="M120.781 137.634L59.1835 197.804L59.5042 198.131L121.101 137.961L120.781 137.634Z" fill="#E5F4F6"/>
<path d="M106.201 127.993L73.635 207.627L74.0595 207.8L106.625 128.166L106.201 127.993Z" fill="#E5F4F6"/>
<path d="M129.93 184.326L50.0861 151.91L50.2826 151.518L130.127 183.868L129.93 184.326Z" fill="#E5F4F6"/>
<path d="M132.795 162.083L47.3214 173.187L47.3806 173.64L132.855 162.537L132.795 162.083Z" fill="#E5F4F6"/>
<path d="M84.7828 125.236L84.328 125.294L95.3166 210.596L95.7714 210.537L84.7828 125.236Z" fill="#E5F4F6"/>
<path d="M63.0843 134.434L62.7289 134.723L117.178 201.404L117.533 201.115L63.0843 134.434Z" fill="#E5F4F6"/>
<path d="M123.399 140.525L56.5526 194.83L56.8421 195.185L123.689 140.88L123.399 140.525Z" fill="#E5F4F6"/>
<path d="M109.443 129.475L70.3958 206.15L70.8045 206.357L109.852 129.682L109.443 129.475Z" fill="#E5F4F6"/>
<path d="M51.8198 148.192L51.6118 148.6L128.44 187.604L128.648 187.196L51.8198 148.192Z" fill="#E5F4F6"/>
<path d="M47.0729 169.947L47.0074 169.555L133.14 165.83V166.222L47.0729 169.947Z" fill="#E5F4F6"/>
<path d="M91.7439 210.859L88.0105 124.918H88.469L92.2024 210.859H91.7439Z" fill="#E5F4F6"/>
<path d="M66.022 132.252L65.6434 132.51L114.257 203.533L114.635 203.275L66.022 132.252Z" fill="#E5F4F6"/>
<path d="M54.671 192.299L54.4089 191.972L125.542 143.479L125.804 143.806L54.671 192.299Z" fill="#E5F4F6"/>
<path d="M24.1479 188.966C24.1479 189.292 23.886 189.488 23.624 189.488C23.2965 189.488 23.1 189.227 23.1 188.966V177.594C23.1 177.267 23.362 177.071 23.624 177.071C23.9515 177.071 24.1479 177.332 24.1479 177.594V188.966Z" fill="#E5F4F6"/>
<path d="M25.851 188.966C25.851 189.292 25.5889 189.488 25.3269 189.488C24.9995 189.488 24.803 189.227 24.803 188.966V177.594C24.803 177.267 25.065 177.071 25.3269 177.071C25.6544 177.071 25.851 177.332 25.851 177.594V188.966Z" fill="#E5F4F6"/>
<path d="M24.1479 75.314C24.1479 75.6407 23.886 75.8368 23.624 75.8368C23.2965 75.8368 23.1 75.5754 23.1 75.314V63.9423C23.1 63.6155 23.362 63.4194 23.624 63.4194C23.9515 63.4194 24.1479 63.6809 24.1479 63.9423V75.314Z" fill="#E5F4F6"/>
<path d="M25.851 75.314C25.851 75.6407 25.5889 75.8368 25.3269 75.8368C24.9995 75.8368 24.803 75.5754 24.803 75.314V63.9423C24.803 63.6155 25.065 63.4194 25.3269 63.4194C25.6544 63.4194 25.851 63.6809 25.851 63.9423V75.314Z" fill="#E5F4F6"/>
</g>
<path d="M34.6279 223.538H141.917L193.662 254.712H72.618L34.6279 223.538Z" fill="white" fill-opacity="0.15"/>
<defs>
<filter id="filter0_d" x="0" y="0.272949" width="155.847" height="231.814" filterUnits="userSpaceOnUse" color-interpolation-filters="sRGB">
<feFlood flood-opacity="0" result="BackgroundImageFix"/>
<feColorMatrix in="SourceAlpha" type="matrix" values="0 0 0 0 0 0 0 0 0 0 0 0 0 0 0 0 0 0 127 0"/>
<feOffset dy="-4"/>
<feGaussianBlur stdDeviation="5"/>
<feColorMatrix type="matrix" values="0 0 0 0 0 0 0 0 0 0 0 0 0 0 0 0 0 0 0.05 0"/>
<feBlend mode="normal" in2="BackgroundImageFix" result="effect1_dropShadow"/>
<feBlend mode="normal" in="SourceGraphic" in2="effect1_dropShadow" result="shape"/>
</filter>
</defs>
</svg>
