<svg width="193" height="204" viewBox="0 0 193 204" fill="none" xmlns="http://www.w3.org/2000/svg">
<g filter="url(#filter0_d)">
<path d="M121.939 135.331V132.325H143.554C144.34 132.325 151.546 131.802 151.546 122.064V23.5747H154.624V122.064C154.624 135.07 143.686 135.396 143.62 135.396L121.939 135.331Z" fill="#E5F4F6"/>
<path d="M138.708 146.049C138.053 146.049 137.66 146.049 137.463 145.984H129.014V142.912H137.66C139.232 143.043 143.751 142.977 145.782 141.082C146.502 140.429 146.83 139.644 146.83 138.599V30.3716H149.908V138.664C149.908 140.559 149.188 142.193 147.878 143.435C145.258 145.722 140.869 146.049 138.708 146.049Z" fill="#E5F4F6"/>
<path d="M24.41 39.5865L57.8805 27.2998H96.3945L130.586 39.5865H24.41Z" fill="white"/>
<path d="M133.271 154.676C133.271 155.983 132.223 157.029 130.848 157.029H23.6239C22.3139 157.029 21.2004 155.983 21.2004 154.676V41.9392C21.2004 40.6321 22.2484 39.5864 23.6239 39.5864H130.913C132.223 39.5864 133.337 40.6321 133.337 41.9392V154.676H133.271Z" fill="white"/>
<path d="M26.5715 153.042C26.5715 153.499 26.1785 153.892 25.72 153.892C25.2615 153.892 24.8685 153.499 24.8685 153.042V43.7038C24.8685 43.2464 25.2615 42.8542 25.72 42.8542C26.1785 42.8542 26.5715 43.2464 26.5715 43.7038V153.042Z" fill="#595766"/>
<path d="M30.1085 153.042C30.1085 153.499 29.7155 153.892 29.257 153.892C28.7985 153.892 28.4055 153.499 28.4055 153.042V43.7038C28.4055 43.2464 28.7985 42.8542 29.257 42.8542C29.7155 42.8542 30.1085 43.2464 30.1085 43.7038V153.042Z" fill="#595766"/>
<path d="M33.6455 153.042C33.6455 153.499 33.2525 153.892 32.794 153.892C32.3355 153.892 31.9425 153.499 31.9425 153.042V43.7038C31.9425 43.2464 32.3355 42.8542 32.794 42.8542C33.2525 42.8542 33.6455 43.2464 33.6455 43.7038V153.042Z" fill="#595766"/>
<path d="M37.1825 153.042C37.1825 153.499 36.7895 153.892 36.331 153.892C35.8725 153.892 35.4795 153.499 35.4795 153.042V43.7038C35.4795 43.2464 35.8725 42.8542 36.331 42.8542C36.7895 42.8542 37.1825 43.2464 37.1825 43.7038V153.042Z" fill="#595766"/>
<path d="M40.7196 153.042C40.7196 153.499 40.3266 153.892 39.8681 153.892C39.4096 153.892 39.0166 153.499 39.0166 153.042V43.7038C39.0166 43.2464 39.4096 42.8542 39.8681 42.8542C40.3266 42.8542 40.7196 43.2464 40.7196 43.7038V153.042Z" fill="#595766"/>
<path d="M44.2565 153.042C44.2565 153.499 43.8635 153.892 43.405 153.892C42.9465 153.892 42.5535 153.499 42.5535 153.042V43.7038C42.5535 43.2464 42.9465 42.8542 43.405 42.8542C43.8635 42.8542 44.2565 43.2464 44.2565 43.7038V153.042Z" fill="#595766"/>
<path d="M47.7935 153.042C47.7935 153.499 47.4005 153.892 46.942 153.892C46.4835 153.892 46.0905 153.499 46.0905 153.042V43.7038C46.0905 43.2464 46.4835 42.8542 46.942 42.8542C47.4005 42.8542 47.7935 43.2464 47.7935 43.7038V153.042Z" fill="#595766"/>
<path d="M51.3305 153.042C51.3305 153.499 50.9375 153.892 50.479 153.892C50.0205 153.892 49.6275 153.499 49.6275 153.042V43.7038C49.6275 43.2464 50.0205 42.8542 50.479 42.8542C50.9375 42.8542 51.3305 43.2464 51.3305 43.7038V153.042Z" fill="#595766"/>
<path d="M54.8676 153.042C54.8676 153.499 54.4746 153.892 54.0161 153.892C53.5576 153.892 53.1646 153.499 53.1646 153.042V43.7038C53.1646 43.2464 53.5576 42.8542 54.0161 42.8542C54.4746 42.8542 54.8676 43.2464 54.8676 43.7038V153.042Z" fill="#595766"/>
<path d="M58.3389 153.042C58.3389 153.499 57.946 153.892 57.4875 153.892C57.029 153.892 56.636 153.499 56.636 153.042V43.7038C56.636 43.2464 57.029 42.8542 57.4875 42.8542C57.946 42.8542 58.3389 43.2464 58.3389 43.7038V153.042Z" fill="#595766"/>
<path d="M61.876 153.042C61.876 153.499 61.483 153.892 61.0245 153.892C60.566 153.892 60.173 153.499 60.173 153.042V43.7038C60.173 43.2464 60.566 42.8542 61.0245 42.8542C61.483 42.8542 61.876 43.2464 61.876 43.7038V153.042Z" fill="#595766"/>
<path d="M65.413 153.042C65.413 153.499 65.02 153.892 64.5615 153.892C64.103 153.892 63.71 153.499 63.71 153.042V43.7038C63.71 43.2464 64.103 42.8542 64.5615 42.8542C65.02 42.8542 65.413 43.2464 65.413 43.7038V153.042Z" fill="#595766"/>
<path d="M68.9501 153.042C68.9501 153.499 68.5571 153.892 68.0985 153.892C67.64 153.892 67.2469 153.499 67.2469 153.042V43.7038C67.2469 43.2464 67.64 42.8542 68.0985 42.8542C68.5571 42.8542 68.9501 43.2464 68.9501 43.7038V153.042Z" fill="#595766"/>
<path d="M72.4871 153.042C72.4871 153.499 72.0941 153.892 71.6356 153.892C71.1771 153.892 70.7841 153.499 70.7841 153.042V43.7038C70.7841 43.2464 71.1771 42.8542 71.6356 42.8542C72.0941 42.8542 72.4871 43.2464 72.4871 43.7038V153.042Z" fill="#595766"/>
<path d="M76.024 153.042C76.024 153.499 75.6311 153.892 75.1725 153.892C74.714 153.892 74.321 153.499 74.321 153.042V43.7038C74.321 43.2464 74.714 42.8542 75.1725 42.8542C75.6311 42.8542 76.024 43.2464 76.024 43.7038V153.042Z" fill="#595766"/>
<path d="M79.5612 153.042C79.5612 153.499 79.1681 153.892 78.7096 153.892C78.251 153.892 77.858 153.499 77.858 153.042V43.7038C77.858 43.2464 78.251 42.8542 78.7096 42.8542C79.1681 42.8542 79.5612 43.2464 79.5612 43.7038V153.042Z" fill="#595766"/>
<path d="M83.098 153.042C83.098 153.499 82.705 153.892 82.2465 153.892C81.788 153.892 81.395 153.499 81.395 153.042V43.7038C81.395 43.2464 81.788 42.8542 82.2465 42.8542C82.705 42.8542 83.098 43.2464 83.098 43.7038V153.042Z" fill="#595766"/>
<path d="M86.635 153.042C86.635 153.499 86.242 153.892 85.7835 153.892C85.325 153.892 84.932 153.499 84.932 153.042V43.7038C84.932 43.2464 85.325 42.8542 85.7835 42.8542C86.242 42.8542 86.635 43.2464 86.635 43.7038V153.042Z" fill="#595766"/>
<path d="M90.1721 153.042C90.1721 153.499 89.7791 153.892 89.3206 153.892C88.8621 153.892 88.4691 153.499 88.4691 153.042V43.7038C88.4691 43.2464 88.8621 42.8542 89.3206 42.8542C89.7791 42.8542 90.1721 43.2464 90.1721 43.7038V153.042Z" fill="#595766"/>
<path d="M93.7089 153.042C93.7089 153.499 93.316 153.892 92.8575 153.892C92.399 153.892 92.006 153.499 92.006 153.042V43.7038C92.006 43.2464 92.399 42.8542 92.8575 42.8542C93.316 42.8542 93.7089 43.2464 93.7089 43.7038V153.042Z" fill="#595766"/>
<path d="M97.1805 153.042C97.1805 153.499 96.7875 153.892 96.329 153.892C95.8705 153.892 95.4775 153.499 95.4775 153.042V43.7038C95.4775 43.2464 95.8705 42.8542 96.329 42.8542C96.7875 42.8542 97.1805 43.2464 97.1805 43.7038V153.042Z" fill="#595766"/>
<path d="M100.718 153.042C100.718 153.499 100.325 153.892 99.866 153.892C99.4076 153.892 99.0145 153.499 99.0145 153.042V43.7038C99.0145 43.2464 99.4076 42.8542 99.866 42.8542C100.325 42.8542 100.718 43.2464 100.718 43.7038V153.042Z" fill="#595766"/>
<path d="M104.255 153.042C104.255 153.499 103.862 153.892 103.403 153.892C102.945 153.892 102.552 153.499 102.552 153.042V43.7038C102.552 43.2464 102.945 42.8542 103.403 42.8542C103.862 42.8542 104.255 43.2464 104.255 43.7038V153.042Z" fill="#595766"/>
<path d="M107.792 153.042C107.792 153.499 107.399 153.892 106.94 153.892C106.482 153.892 106.089 153.499 106.089 153.042V43.7038C106.089 43.2464 106.482 42.8542 106.94 42.8542C107.399 42.8542 107.792 43.2464 107.792 43.7038V153.042Z" fill="#595766"/>
<path d="M111.329 153.042C111.329 153.499 110.936 153.892 110.477 153.892C110.019 153.892 109.625 153.499 109.625 153.042V43.7038C109.625 43.2464 110.019 42.8542 110.477 42.8542C110.936 42.8542 111.329 43.2464 111.329 43.7038V153.042Z" fill="#595766"/>
<path d="M114.865 153.042C114.865 153.499 114.472 153.892 114.014 153.892C113.555 153.892 113.162 153.499 113.162 153.042V43.7038C113.162 43.2464 113.555 42.8542 114.014 42.8542C114.472 42.8542 114.865 43.2464 114.865 43.7038V153.042Z" fill="#595766"/>
<path d="M118.403 153.042C118.403 153.499 118.01 153.892 117.551 153.892C117.093 153.892 116.7 153.499 116.7 153.042V43.7038C116.7 43.2464 117.093 42.8542 117.551 42.8542C118.01 42.8542 118.403 43.2464 118.403 43.7038V153.042Z" fill="#595766"/>
<path d="M121.94 153.042C121.94 153.499 121.547 153.892 121.088 153.892C120.63 153.892 120.237 153.499 120.237 153.042V43.7038C120.237 43.2464 120.63 42.8542 121.088 42.8542C121.547 42.8542 121.94 43.2464 121.94 43.7038V153.042Z" fill="#595766"/>
<path d="M125.477 153.042C125.477 153.499 125.084 153.892 124.625 153.892C124.167 153.892 123.774 153.499 123.774 153.042V43.7038C123.774 43.2464 124.167 42.8542 124.625 42.8542C125.084 42.8542 125.477 43.2464 125.477 43.7038V153.042Z" fill="#595766"/>
<path d="M129.013 153.042C129.013 153.499 128.62 153.892 128.162 153.892C127.703 153.892 127.31 153.499 127.31 153.042V43.7038C127.31 43.2464 127.703 42.8542 128.162 42.8542C128.62 42.8542 129.013 43.2464 129.013 43.7038V153.042Z" fill="#595766"/>
<path d="M131.83 49.1282H23.2311V50.5006H131.83V49.1282Z" fill="white"/>
<path d="M131.83 63.1143H23.2311V64.4867H131.83V63.1143Z" fill="white"/>
<path d="M131.83 77.1653H23.2311V78.5377H131.83V77.1653Z" fill="white"/>
<path d="M131.83 91.1514H23.2311V92.5238H131.83V91.1514Z" fill="white"/>
<path d="M131.83 105.137H23.2311V106.51H131.83V105.137Z" fill="white"/>
<path d="M131.83 119.123H23.2311V120.495H131.83V119.123Z" fill="white"/>
<path d="M131.83 133.109H23.2311V134.481H131.83V133.109Z" fill="white"/>
<path d="M131.83 147.16H23.2311V148.533H131.83V147.16Z" fill="white"/>
<path d="M44.453 158.924C44.453 159.969 43.6015 160.884 42.488 160.884H29.912C28.864 160.884 27.947 160.035 27.947 158.924C27.947 157.878 28.7985 156.963 29.912 156.963H42.488C43.536 156.963 44.453 157.878 44.453 158.924Z" fill="#595766"/>
<path d="M126.656 158.924C126.656 159.969 125.804 160.884 124.691 160.884H112.115C111.067 160.884 110.15 160.035 110.15 158.924C110.15 157.878 111.001 156.963 112.115 156.963H124.691C125.739 156.963 126.656 157.878 126.656 158.924Z" fill="#595766"/>
<path d="M144.995 167.224C144.995 170.034 142.703 172.322 139.886 172.322H15.109C12.2925 172.322 10 170.034 10 167.224V165.459C10 162.649 12.2925 160.362 15.109 160.362H139.886C142.703 160.362 144.995 162.649 144.995 165.459V167.224Z" fill="#E5F4F6"/>
<path d="M160.519 35.2731C160.519 38.0834 158.227 40.3708 155.41 40.3708H143.685C140.869 40.3708 138.576 38.0834 138.576 35.2731V19.2612C138.576 16.451 140.869 14.1636 143.685 14.1636H155.41C158.227 14.1636 160.519 16.451 160.519 19.2612V35.2731Z" fill="#E5F4F6"/>
</g>
<path d="M13.144 172.583H143.817L192.483 203.757H51.134L13.144 172.583Z" fill="white" fill-opacity="0.15"/>
<defs>
<filter id="filter0_d" x="0" y="0.163574" width="170.519" height="178.158" filterUnits="userSpaceOnUse" color-interpolation-filters="sRGB">
<feFlood flood-opacity="0" result="BackgroundImageFix"/>
<feColorMatrix in="SourceAlpha" type="matrix" values="0 0 0 0 0 0 0 0 0 0 0 0 0 0 0 0 0 0 127 0"/>
<feOffset dy="-4"/>
<feGaussianBlur stdDeviation="5"/>
<feColorMatrix type="matrix" values="0 0 0 0 0 0 0 0 0 0 0 0 0 0 0 0 0 0 0.05 0"/>
<feBlend mode="normal" in2="BackgroundImageFix" result="effect1_dropShadow"/>
<feBlend mode="normal" in="SourceGraphic" in2="effect1_dropShadow" result="shape"/>
</filter>
</defs>
</svg>
