<svg width="197" height="144" viewBox="0 0 197 144" fill="none" xmlns="http://www.w3.org/2000/svg">
<path d="M11.8997 112.569H144.603L196.348 143.677H49.9551L11.8997 112.569Z" fill="white" fill-opacity="0.5"/>
<g filter="url(#filter0_d)">
<path d="M151.873 106.164C151.873 107.406 150.825 108.386 149.581 108.386H12.2925C11.048 108.386 10 107.406 10 106.164V16.236C10 14.9943 11.048 14.0139 12.2925 14.0139H149.581C150.825 14.0139 151.873 14.9943 151.873 16.236V106.164Z" fill="white"/>
<path d="M43.536 108.386H32.7285V113.353H43.536V108.386Z" fill="#595766"/>
<path d="M129.93 108.386H119.123V113.353H129.93V108.386Z" fill="#595766"/>
<path d="M100.783 98.8441C100.783 101.393 98.687 103.484 96.1325 103.484H18.9735C16.419 103.484 14.323 101.393 14.323 98.8441V23.5557C14.323 21.0069 16.419 18.9155 18.9735 18.9155H96.1325C98.687 18.9155 100.783 21.0069 100.783 23.5557V98.8441Z" fill="#DAEAE9"/>
<path d="M36.593 93.7465L16.288 58.7165L36.593 23.6211H77.203L97.4425 58.7165L77.203 93.7465H36.593Z" fill="#E5F4F6"/>
<path d="M38.034 91.263L19.17 58.7164L38.034 26.1045H75.7621L94.5605 58.7164L75.7621 91.263H38.034Z" fill="#595766"/>
<path d="M63.71 60.873C63.71 64.5982 60.6314 67.6699 56.8979 67.6699C53.1645 67.6699 50.0859 64.5982 50.0859 60.873C50.0859 57.1478 53.1645 54.0762 56.8979 54.0762C60.6314 54.0762 63.71 57.0825 63.71 60.873Z" fill="#E5F4F6"/>
<path d="M58.0116 19.6997H55.85V102.046H58.0116V19.6997Z" fill="#E5F4F6"/>
<path d="M98.163 59.8274H15.6329V61.9849H98.163V59.8274Z" fill="#E5F4F6"/>
<path d="M92.3196 39.6677L20.4774 80.1987L21.5413 82.0762L93.3835 41.5451L92.3196 39.6677Z" fill="#E5F4F6"/>
<path d="M37.6038 24.5029L35.722 25.5642L76.2707 97.2895L78.1525 96.2282L37.6038 24.5029Z" fill="#E5F4F6"/>
<path d="M21.238 40.1384L20.201 42.0308L92.5793 81.5965L93.6163 79.7042L21.238 40.1384Z" fill="#E5F4F6"/>
<path d="M75.7764 24.2316L36.1537 96.4661L38.0498 97.5015L77.6725 25.267L75.7764 24.2316Z" fill="#E5F4F6"/>
<path d="M61.6493 19.9847L51.7789 101.739L52.2341 101.793L62.1045 20.0394L61.6493 19.9847Z" fill="#E5F4F6"/>
<path d="M15.9354 55.6566L15.881 56.1108L97.8215 65.948L97.8759 65.4937L15.9354 55.6566Z" fill="#E5F4F6"/>
<path d="M94.925 44.8469L18.7581 76.5586L18.9346 76.9808L95.1016 45.2691L94.925 44.8469Z" fill="#E5F4F6"/>
<path d="M72.5525 98.9749L40.8505 22.9675L41.2435 22.7715L72.9454 98.7788L72.5525 98.9749Z" fill="#E5F4F6"/>
<path d="M23.4843 36.6826L23.2179 37.0549L90.3731 84.9257L90.6395 84.5534L23.4843 36.6826Z" fill="#E5F4F6"/>
<path d="M33.0559 94.4651L32.7284 94.2691L80.6745 27.2153L81.0675 27.4767L33.0559 94.4651Z" fill="#E5F4F6"/>
<path d="M48.514 101.197L48.0554 101.066L65.2821 20.5496L65.675 20.6149L48.514 101.197Z" fill="#E5F4F6"/>
<path d="M97.1805 69.6306L16.4845 52.5078L16.55 52.0503L97.3115 69.2385L97.1805 69.6306Z" fill="#E5F4F6"/>
<path d="M17.598 73.4212L17.467 72.9637L96.1979 48.325L96.329 48.7171L17.598 73.4212Z" fill="#E5F4F6"/>
<path d="M44.8083 21.5338L44.3708 21.6709L69.0968 100.238L69.5342 100.101L44.8083 21.5338Z" fill="#E5F4F6"/>
<path d="M25.8244 33.8246L25.5254 34.1714L88.074 87.8967L88.373 87.5499L25.8244 33.8246Z" fill="#E5F4F6"/>
<path d="M83.7588 29.5609L29.8173 91.8892L30.1643 92.1881L84.1058 29.8599L83.7588 29.5609Z" fill="#E5F4F6"/>
<path d="M45.1079 100.348L44.6494 100.217L68.6879 21.3994L69.0809 21.5301L45.1079 100.348Z" fill="#E5F4F6"/>
<path d="M96.3289 73.0288L17.3359 49.1091L17.4669 48.6516L96.3944 72.6367L96.3289 73.0288Z" fill="#E5F4F6"/>
<path d="M16.6811 70.0226L16.55 69.5652L97.115 51.7234L97.246 52.1155L16.6811 70.0226Z" fill="#E5F4F6"/>
<path d="M65.6095 101.132L47.7279 20.7457L48.1209 20.615L66.068 101.001L65.6095 101.132Z" fill="#E5F4F6"/>
<path d="M85.5869 90.4135L27.8815 31.5944L28.209 31.2676L85.9144 90.152L85.5869 90.4135Z" fill="#E5F4F6"/>
<path d="M86.2649 31.926L27.2313 89.47L27.5517 89.7972L86.5853 32.2532L86.2649 31.926Z" fill="#E5F4F6"/>
<path d="M72.2686 22.6327L41.1135 98.8857L41.5381 99.0584L72.6931 22.8053L72.2686 22.6327Z" fill="#E5F4F6"/>
<path d="M18.7728 45.1483L18.6006 45.5723L95.015 76.6738L95.1873 76.2498L18.7728 45.1483Z" fill="#E5F4F6"/>
<path d="M97.783 55.434L15.9297 65.9497L15.9882 66.4034L97.8416 55.8877L97.783 55.434Z" fill="#E5F4F6"/>
<path d="M61.9415 101.72L51.3959 20.0264H51.8544L62.3345 101.654L61.9415 101.72Z" fill="#E5F4F6"/>
<path d="M31.0745 28.7698L30.7191 29.0588L82.8508 92.9027L83.2061 92.6136L31.0745 28.7698Z" fill="#E5F4F6"/>
<path d="M88.7727 34.6998L24.7871 86.71L25.0767 87.0646L89.0623 35.0544L88.7727 34.6998Z" fill="#E5F4F6"/>
<path d="M38.3615 97.6676L37.9685 97.4715L75.4346 24.0784L75.7621 24.2744L38.3615 97.6676Z" fill="#E5F4F6"/>
<path d="M20.2642 41.9338L20.0563 42.3416L93.6152 79.6858L93.8231 79.278L20.2642 41.9338Z" fill="#E5F4F6"/>
<path d="M98.105 58.941L15.6493 62.397L15.6685 62.8543L98.1243 59.3983L98.105 58.941Z" fill="#E5F4F6"/>
<path d="M58.4701 101.981L54.8676 19.765L55.326 19.6997L58.863 101.981H58.4701Z" fill="#E5F4F6"/>
<path d="M80.0194 94.9883L33.449 27.0195L33.7765 26.7581L80.3469 94.7268L80.0194 94.9883Z" fill="#E5F4F6"/>
<path d="M90.8583 37.3966L22.7876 83.9636L23.0469 84.3409L91.1176 37.7739L90.8583 37.3966Z" fill="#E5F4F6"/>
<path d="M52.3785 66.4936L47.9246 58.7164L52.3785 50.9392H61.3521L65.8716 58.7164L61.3521 66.4936H52.3785Z" fill="#E5F4F6"/>
<path d="M98.1631 25.0587C98.1631 25.4508 97.8356 25.7776 97.4426 25.7776C97.0495 25.7776 96.722 25.4508 96.722 25.0587C96.722 24.6666 97.0495 24.3398 97.4426 24.3398C97.8356 24.3398 98.1631 24.6666 98.1631 25.0587Z" fill="#595766"/>
<path d="M98.1631 43.162C98.1631 43.5541 97.8356 43.8809 97.4426 43.8809C97.0495 43.8809 96.722 43.5541 96.722 43.162C96.722 42.7699 97.0495 42.4431 97.4426 42.4431C97.8356 42.4431 98.1631 42.7699 98.1631 43.162Z" fill="#595766"/>
<path d="M98.1631 61.2653C98.1631 61.6574 97.8356 61.9842 97.4426 61.9842C97.0495 61.9842 96.722 61.6574 96.722 61.2653C96.722 60.8731 97.0495 60.5464 97.4426 60.5464C97.8356 60.5464 98.1631 60.8731 98.1631 61.2653Z" fill="#595766"/>
<path d="M98.1631 79.3685C98.1631 79.7606 97.8356 80.0874 97.4426 80.0874C97.0495 80.0874 96.722 79.7606 96.722 79.3685C96.722 78.9764 97.0495 78.6497 97.4426 78.6497C97.8356 78.6497 98.1631 78.9764 98.1631 79.3685Z" fill="#595766"/>
<path d="M98.1631 97.4716C98.1631 97.8637 97.8356 98.1905 97.4426 98.1905C97.0495 98.1905 96.722 97.8637 96.722 97.4716C96.722 97.0795 97.0495 96.7527 97.4426 96.7527C97.8356 96.7527 98.1631 97.0795 98.1631 97.4716Z" fill="#595766"/>
<g opacity="0.4">
<g opacity="0.4">
<path opacity="0.4" d="M149.581 14.0139H142.114V99.3669C142.114 100.609 141.066 101.589 139.821 101.589H10V106.164C10 107.406 11.048 108.386 12.2925 108.386H149.581C150.825 108.386 151.873 107.406 151.873 106.164V16.236C151.873 14.9943 150.825 14.0139 149.581 14.0139Z" fill="#DAEAE9"/>
</g>
</g>
</g>
<defs>
<filter id="filter0_d" x="0" y="0.013916" width="161.873" height="119.339" filterUnits="userSpaceOnUse" color-interpolation-filters="sRGB">
<feFlood flood-opacity="0" result="BackgroundImageFix"/>
<feColorMatrix in="SourceAlpha" type="matrix" values="0 0 0 0 0 0 0 0 0 0 0 0 0 0 0 0 0 0 127 0"/>
<feOffset dy="-4"/>
<feGaussianBlur stdDeviation="5"/>
<feColorMatrix type="matrix" values="0 0 0 0 0 0 0 0 0 0 0 0 0 0 0 0 0 0 0.05 0"/>
<feBlend mode="normal" in2="BackgroundImageFix" result="effect1_dropShadow"/>
<feBlend mode="normal" in="SourceGraphic" in2="effect1_dropShadow" result="shape"/>
</filter>
</defs>
</svg>
