<svg width="244" height="145" viewBox="0 0 244 145" fill="none" xmlns="http://www.w3.org/2000/svg">
<path d="M17.467 112.896H201.457L243.639 144.07H54.54L17.467 112.896Z" fill="white" fill-opacity="0.5"/>
<g filter="url(#filter0_d)">
<path d="M109.232 106.033H109.167L19.2355 107.144C19.2355 107.144 21.004 112.895 28.733 112.895C36.331 112.895 106.416 112.895 109.167 112.895C109.232 112.895 109.232 112.895 109.232 112.895C111.983 112.895 182.068 112.895 189.666 112.895C197.395 112.895 199.164 107.144 199.164 107.144L109.232 106.033Z" fill="#595766"/>
<path d="M208.531 103.615C208.531 106.36 206.304 108.582 203.553 108.582H14.978C12.227 108.582 10 106.36 10 103.615V18.9809C10 16.236 12.227 14.0139 14.978 14.0139H203.553C206.304 14.0139 208.531 16.236 208.531 18.9809V103.615Z" fill="white"/>
<path d="M203.553 14.0139H197.985V92.4394C197.985 95.1842 195.758 97.4063 193.007 97.4063H10V103.615C10 106.36 12.227 108.582 14.978 108.582H203.553C206.304 108.582 208.531 106.36 208.531 103.615V18.9809C208.531 16.236 206.304 14.0139 203.553 14.0139Z" fill="#DAEAE9"/>
<path d="M63.7756 51.1357C63.7756 51.6587 63.3171 52.1163 62.7931 52.1163H25.72C25.196 52.1163 24.7375 51.6587 24.7375 51.1357C24.7375 50.6127 25.196 50.155 25.72 50.155H62.7931C63.3171 50.155 63.7756 50.6127 63.7756 51.1357Z" fill="#716E7F"/>
<path d="M63.7756 55.0568C63.7756 55.5799 63.3171 56.0375 62.7931 56.0375H25.72C25.196 56.0375 24.7375 55.5799 24.7375 55.0568C24.7375 54.5338 25.196 54.0762 25.72 54.0762H62.7931C63.3171 54.0762 63.7756 54.5338 63.7756 55.0568Z" fill="#716E7F"/>
<path d="M63.7756 58.9782C63.7756 59.5012 63.3171 59.9589 62.7931 59.9589H25.72C25.196 59.9589 24.7375 59.5012 24.7375 58.9782C24.7375 58.4552 25.196 57.9976 25.72 57.9976H62.7931C63.3171 58.0629 63.7756 58.4552 63.7756 58.9782Z" fill="#716E7F"/>
<path d="M63.7756 62.9648C63.7756 63.4878 63.3171 63.9455 62.7931 63.9455H25.72C25.196 63.9455 24.7375 63.4878 24.7375 62.9648C24.7375 62.4418 25.196 61.9841 25.72 61.9841H62.7931C63.3171 61.9841 63.7756 62.3764 63.7756 62.9648Z" fill="#716E7F"/>
<path d="M63.7756 66.8862C63.7756 67.4092 63.3171 67.8668 62.7931 67.8668H25.72C25.196 67.8668 24.7375 67.4092 24.7375 66.8862C24.7375 66.3632 25.196 65.9055 25.72 65.9055H62.7931C63.3171 65.9055 63.7756 66.3632 63.7756 66.8862Z" fill="#716E7F"/>
<path d="M63.7756 70.8073C63.7756 71.3303 63.3171 71.788 62.7931 71.788H25.72C25.196 71.788 24.7375 71.3303 24.7375 70.8073C24.7375 70.2843 25.196 69.8267 25.72 69.8267H62.7931C63.3171 69.8267 63.7756 70.2843 63.7756 70.8073Z" fill="#716E7F"/>
<path d="M63.7756 74.7287C63.7756 75.2517 63.3171 75.7094 62.7931 75.7094H25.72C25.196 75.7094 24.7375 75.2517 24.7375 74.7287C24.7375 74.2057 25.196 73.748 25.72 73.748H62.7931C63.3171 73.748 63.7756 74.2057 63.7756 74.7287Z" fill="#716E7F"/>
<path d="M63.7756 78.6498C63.7756 79.1729 63.3171 79.6305 62.7931 79.6305H25.72C25.196 79.6305 24.7375 79.1729 24.7375 78.6498C24.7375 78.1268 25.196 77.6692 25.72 77.6692H62.7931C63.3171 77.7346 63.7756 78.1268 63.7756 78.6498Z" fill="#716E7F"/>
<path d="M63.7756 82.6364C63.7756 83.1594 63.3171 83.617 62.7931 83.617H25.72C25.196 83.617 24.7375 83.1594 24.7375 82.6364C24.7375 82.1134 25.196 81.6558 25.72 81.6558H62.7931C63.3171 81.6558 63.7756 82.048 63.7756 82.6364Z" fill="#716E7F"/>
<path d="M63.7756 86.5578C63.7756 87.0808 63.3171 87.5385 62.7931 87.5385H25.72C25.196 87.5385 24.7375 87.0808 24.7375 86.5578C24.7375 86.0348 25.196 85.5771 25.72 85.5771H62.7931C63.3171 85.5771 63.7756 86.0348 63.7756 86.5578Z" fill="#716E7F"/>
<path d="M63.7756 90.4792C63.7756 91.0022 63.3171 91.4599 62.7931 91.4599H25.72C25.196 91.4599 24.7375 91.0022 24.7375 90.4792C24.7375 89.9562 25.196 89.4985 25.72 89.4985H62.7931C63.3171 89.4985 63.7756 89.9562 63.7756 90.4792Z" fill="#716E7F"/>
<path d="M63.7756 94.4003C63.7756 94.9233 63.3171 95.381 62.7931 95.381H25.72C25.196 95.381 24.7375 94.9233 24.7375 94.4003C24.7375 93.8773 25.196 93.4197 25.72 93.4197H62.7931C63.3171 93.4197 63.7756 93.8773 63.7756 94.4003Z" fill="#716E7F"/>
<path d="M63.7756 98.3215C63.7756 98.8445 63.3171 99.3021 62.7931 99.3021H25.72C25.196 99.3021 24.7375 98.8445 24.7375 98.3215C24.7375 97.7985 25.196 97.3408 25.72 97.3408H62.7931C63.3171 97.4062 63.7756 97.7985 63.7756 98.3215Z" fill="#716E7F"/>
<path d="M63.7756 102.243C63.7756 102.766 63.3171 103.224 62.7931 103.224H25.72C25.196 103.224 24.7375 102.766 24.7375 102.243C24.7375 101.72 25.196 101.262 25.72 101.262H62.7931C63.3171 101.328 63.7756 101.72 63.7756 102.243Z" fill="#716E7F"/>
<path d="M106.94 51.1357C106.94 51.6587 106.482 52.1163 105.958 52.1163H68.8846C68.3606 52.1163 67.9021 51.6587 67.9021 51.1357C67.9021 50.6127 68.3606 50.155 68.8846 50.155H105.958C106.482 50.155 106.94 50.6127 106.94 51.1357Z" fill="#716E7F"/>
<path d="M106.94 55.0568C106.94 55.5799 106.482 56.0375 105.958 56.0375H68.8846C68.3606 56.0375 67.9021 55.5799 67.9021 55.0568C67.9021 54.5338 68.3606 54.0762 68.8846 54.0762H105.958C106.482 54.0762 106.94 54.5338 106.94 55.0568Z" fill="#716E7F"/>
<path d="M106.94 58.9782C106.94 59.5012 106.482 59.9589 105.958 59.9589H68.8846C68.3606 59.9589 67.9021 59.5012 67.9021 58.9782C67.9021 58.4552 68.3606 57.9976 68.8846 57.9976H105.958C106.482 58.0629 106.94 58.4552 106.94 58.9782Z" fill="#716E7F"/>
<path d="M106.94 62.9648C106.94 63.4878 106.482 63.9455 105.958 63.9455H68.8846C68.3606 63.9455 67.9021 63.4878 67.9021 62.9648C67.9021 62.4418 68.3606 61.9841 68.8846 61.9841H105.958C106.482 61.9841 106.94 62.3764 106.94 62.9648Z" fill="#716E7F"/>
<path d="M106.94 66.8862C106.94 67.4092 106.482 67.8668 105.958 67.8668H68.8846C68.3606 67.8668 67.9021 67.4092 67.9021 66.8862C67.9021 66.3632 68.3606 65.9055 68.8846 65.9055H105.958C106.482 65.9055 106.94 66.3632 106.94 66.8862Z" fill="#716E7F"/>
<path d="M106.94 70.8073C106.94 71.3303 106.482 71.788 105.958 71.788H68.8846C68.3606 71.788 67.9021 71.3303 67.9021 70.8073C67.9021 70.2843 68.3606 69.8267 68.8846 69.8267H105.958C106.482 69.8267 106.94 70.2843 106.94 70.8073Z" fill="#716E7F"/>
<path d="M106.94 74.7287C106.94 75.2517 106.482 75.7094 105.958 75.7094H68.8846C68.3606 75.7094 67.9021 75.2517 67.9021 74.7287C67.9021 74.2057 68.3606 73.748 68.8846 73.748H105.958C106.482 73.748 106.94 74.2057 106.94 74.7287Z" fill="#716E7F"/>
<path d="M106.94 78.6498C106.94 79.1729 106.482 79.6305 105.958 79.6305H68.8846C68.3606 79.6305 67.9021 79.1729 67.9021 78.6498C67.9021 78.1268 68.3606 77.6692 68.8846 77.6692H105.958C106.482 77.7346 106.94 78.1268 106.94 78.6498Z" fill="#716E7F"/>
<path d="M106.94 82.6364C106.94 83.1594 106.482 83.617 105.958 83.617H68.8846C68.3606 83.617 67.9021 83.1594 67.9021 82.6364C67.9021 82.1134 68.3606 81.6558 68.8846 81.6558H105.958C106.482 81.6558 106.94 82.048 106.94 82.6364Z" fill="#716E7F"/>
<path d="M106.94 86.5578C106.94 87.0808 106.482 87.5385 105.958 87.5385H68.8846C68.3606 87.5385 67.9021 87.0808 67.9021 86.5578C67.9021 86.0348 68.3606 85.5771 68.8846 85.5771H105.958C106.482 85.5771 106.94 86.0348 106.94 86.5578Z" fill="#716E7F"/>
<path d="M106.94 90.4792C106.94 91.0022 106.482 91.4599 105.958 91.4599H68.8846C68.3606 91.4599 67.9021 91.0022 67.9021 90.4792C67.9021 89.9562 68.3606 89.4985 68.8846 89.4985H105.958C106.482 89.4985 106.94 89.9562 106.94 90.4792Z" fill="#716E7F"/>
<path d="M106.94 94.4003C106.94 94.9233 106.482 95.381 105.958 95.381H68.8846C68.3606 95.381 67.9021 94.9233 67.9021 94.4003C67.9021 93.8773 68.3606 93.4197 68.8846 93.4197H105.958C106.482 93.4197 106.94 93.8773 106.94 94.4003Z" fill="#716E7F"/>
<path d="M106.94 98.3215C106.94 98.8445 106.482 99.3021 105.958 99.3021H68.8846C68.3606 99.3021 67.9021 98.8445 67.9021 98.3215C67.9021 97.7985 68.3606 97.3408 68.8846 97.3408H105.958C106.482 97.4062 106.94 97.7985 106.94 98.3215Z" fill="#716E7F"/>
<path d="M106.94 102.243C106.94 102.766 106.482 103.224 105.958 103.224H68.8846C68.3606 103.224 67.9021 102.766 67.9021 102.243C67.9021 101.72 68.3606 101.262 68.8846 101.262H105.958C106.482 101.328 106.94 101.72 106.94 102.243Z" fill="#716E7F"/>
<path d="M150.039 51.1357C150.039 51.6587 149.581 52.1163 149.056 52.1163H111.983C111.459 52.1163 111.001 51.6587 111.001 51.1357C111.001 50.6127 111.459 50.155 111.983 50.155H149.056C149.646 50.155 150.039 50.6127 150.039 51.1357Z" fill="#716E7F"/>
<path d="M150.039 55.0568C150.039 55.5799 149.581 56.0375 149.056 56.0375H111.983C111.459 56.0375 111.001 55.5799 111.001 55.0568C111.001 54.5338 111.459 54.0762 111.983 54.0762H149.056C149.646 54.0762 150.039 54.5338 150.039 55.0568Z" fill="#716E7F"/>
<path d="M150.039 58.9782C150.039 59.5012 149.581 59.9589 149.056 59.9589H111.983C111.459 59.9589 111.001 59.5012 111.001 58.9782C111.001 58.4552 111.459 57.9976 111.983 57.9976H149.056C149.646 58.0629 150.039 58.4552 150.039 58.9782Z" fill="#716E7F"/>
<path d="M150.039 62.9648C150.039 63.4878 149.581 63.9455 149.056 63.9455H111.983C111.459 63.9455 111.001 63.4878 111.001 62.9648C111.001 62.4418 111.459 61.9841 111.983 61.9841H149.056C149.646 61.9841 150.039 62.3764 150.039 62.9648Z" fill="#716E7F"/>
<path d="M150.039 66.8862C150.039 67.4092 149.581 67.8668 149.056 67.8668H111.983C111.459 67.8668 111.001 67.4092 111.001 66.8862C111.001 66.3632 111.459 65.9055 111.983 65.9055H149.056C149.646 65.9055 150.039 66.3632 150.039 66.8862Z" fill="#716E7F"/>
<path d="M150.039 70.8073C150.039 71.3303 149.581 71.788 149.056 71.788H111.983C111.459 71.788 111.001 71.3303 111.001 70.8073C111.001 70.2843 111.459 69.8267 111.983 69.8267H149.056C149.646 69.8267 150.039 70.2843 150.039 70.8073Z" fill="#716E7F"/>
<path d="M150.039 74.7287C150.039 75.2517 149.581 75.7094 149.056 75.7094H111.983C111.459 75.7094 111.001 75.2517 111.001 74.7287C111.001 74.2057 111.459 73.748 111.983 73.748H149.056C149.646 73.748 150.039 74.2057 150.039 74.7287Z" fill="#716E7F"/>
<path d="M150.039 78.6498C150.039 79.1729 149.581 79.6305 149.056 79.6305H111.983C111.459 79.6305 111.001 79.1729 111.001 78.6498C111.001 78.1268 111.459 77.6692 111.983 77.6692H149.056C149.646 77.7346 150.039 78.1268 150.039 78.6498Z" fill="#716E7F"/>
<path d="M150.039 82.6364C150.039 83.1594 149.581 83.617 149.056 83.617H111.983C111.459 83.617 111.001 83.1594 111.001 82.6364C111.001 82.1134 111.459 81.6558 111.983 81.6558H149.056C149.646 81.6558 150.039 82.048 150.039 82.6364Z" fill="#716E7F"/>
<path d="M150.039 86.5578C150.039 87.0808 149.581 87.5385 149.056 87.5385H111.983C111.459 87.5385 111.001 87.0808 111.001 86.5578C111.001 86.0348 111.459 85.5771 111.983 85.5771H149.056C149.646 85.5771 150.039 86.0348 150.039 86.5578Z" fill="#716E7F"/>
<path d="M150.039 90.4792C150.039 91.0022 149.581 91.4599 149.056 91.4599H111.983C111.459 91.4599 111.001 91.0022 111.001 90.4792C111.001 89.9562 111.459 89.4985 111.983 89.4985H149.056C149.646 89.4985 150.039 89.9562 150.039 90.4792Z" fill="#716E7F"/>
<path d="M150.039 94.4003C150.039 94.9233 149.581 95.381 149.056 95.381H111.983C111.459 95.381 111.001 94.9233 111.001 94.4003C111.001 93.8773 111.459 93.4197 111.983 93.4197H149.056C149.646 93.4197 150.039 93.8773 150.039 94.4003Z" fill="#716E7F"/>
<path d="M150.039 98.3215C150.039 98.8445 149.581 99.3021 149.056 99.3021H111.983C111.459 99.3021 111.001 98.8445 111.001 98.3215C111.001 97.7985 111.459 97.3408 111.983 97.3408H149.056C149.646 97.4062 150.039 97.7985 150.039 98.3215Z" fill="#716E7F"/>
<path d="M150.039 102.243C150.039 102.766 149.581 103.224 149.056 103.224H111.983C111.459 103.224 111.001 102.766 111.001 102.243C111.001 101.72 111.459 101.262 111.983 101.262H149.056C149.646 101.328 150.039 101.72 150.039 102.243Z" fill="#716E7F"/>
<path d="M193.203 51.1357C193.203 51.6587 192.745 52.1163 192.221 52.1163H155.148C154.624 52.1163 154.165 51.6587 154.165 51.1357C154.165 50.6127 154.624 50.155 155.148 50.155H192.221C192.745 50.155 193.203 50.6127 193.203 51.1357Z" fill="#716E7F"/>
<path d="M193.204 55.0568C193.204 55.5799 192.745 56.0375 192.221 56.0375H155.148C154.624 56.0375 154.166 55.5799 154.166 55.0568C154.166 54.5338 154.624 54.0762 155.148 54.0762H192.221C192.745 54.0762 193.204 54.5338 193.204 55.0568Z" fill="#716E7F"/>
<path d="M193.204 58.9782C193.204 59.5012 192.745 59.9589 192.221 59.9589H155.148C154.624 59.9589 154.166 59.5012 154.166 58.9782C154.166 58.4552 154.624 57.9976 155.148 57.9976H192.221C192.745 58.0629 193.204 58.4552 193.204 58.9782Z" fill="#716E7F"/>
<path d="M193.204 62.9648C193.204 63.4878 192.745 63.9455 192.221 63.9455H155.148C154.624 63.9455 154.166 63.4878 154.166 62.9648C154.166 62.4418 154.624 61.9841 155.148 61.9841H192.221C192.745 61.9841 193.204 62.3764 193.204 62.9648Z" fill="#716E7F"/>
<path d="M193.204 66.8862C193.204 67.4092 192.745 67.8668 192.221 67.8668H155.148C154.624 67.8668 154.166 67.4092 154.166 66.8862C154.166 66.3632 154.624 65.9055 155.148 65.9055H192.221C192.745 65.9055 193.204 66.3632 193.204 66.8862Z" fill="#716E7F"/>
<path d="M193.204 70.8073C193.204 71.3303 192.745 71.788 192.221 71.788H155.148C154.624 71.788 154.166 71.3303 154.166 70.8073C154.166 70.2843 154.624 69.8267 155.148 69.8267H192.221C192.745 69.8267 193.204 70.2843 193.204 70.8073Z" fill="#716E7F"/>
<path d="M193.204 74.7287C193.204 75.2517 192.745 75.7094 192.221 75.7094H155.148C154.624 75.7094 154.166 75.2517 154.166 74.7287C154.166 74.2057 154.624 73.748 155.148 73.748H192.221C192.745 73.748 193.204 74.2057 193.204 74.7287Z" fill="#716E7F"/>
<path d="M193.204 78.6498C193.204 79.1729 192.745 79.6305 192.221 79.6305H155.148C154.624 79.6305 154.166 79.1729 154.166 78.6498C154.166 78.1268 154.624 77.6692 155.148 77.6692H192.221C192.745 77.7346 193.204 78.1268 193.204 78.6498Z" fill="#716E7F"/>
<path d="M193.204 82.6364C193.204 83.1594 192.745 83.617 192.221 83.617H155.148C154.624 83.617 154.166 83.1594 154.166 82.6364C154.166 82.1134 154.624 81.6558 155.148 81.6558H192.221C192.745 81.6558 193.204 82.048 193.204 82.6364Z" fill="#716E7F"/>
<path d="M193.204 86.5578C193.204 87.0808 192.745 87.5385 192.221 87.5385H155.148C154.624 87.5385 154.166 87.0808 154.166 86.5578C154.166 86.0348 154.624 85.5771 155.148 85.5771H192.221C192.745 85.5771 193.204 86.0348 193.204 86.5578Z" fill="#716E7F"/>
<path d="M193.204 90.4792C193.204 91.0022 192.745 91.4599 192.221 91.4599H155.148C154.624 91.4599 154.166 91.0022 154.166 90.4792C154.166 89.9562 154.624 89.4985 155.148 89.4985H192.221C192.745 89.4985 193.204 89.9562 193.204 90.4792Z" fill="#716E7F"/>
<path d="M193.204 94.4003C193.204 94.9233 192.745 95.381 192.221 95.381H155.148C154.624 95.381 154.166 94.9233 154.166 94.4003C154.166 93.8773 154.624 93.4197 155.148 93.4197H192.221C192.745 93.4197 193.204 93.8773 193.204 94.4003Z" fill="#716E7F"/>
<path d="M193.204 98.3215C193.204 98.8445 192.745 99.3021 192.221 99.3021H155.148C154.624 99.3021 154.166 98.8445 154.166 98.3215C154.166 97.7985 154.624 97.3408 155.148 97.3408H192.221C192.745 97.4062 193.204 97.7985 193.204 98.3215Z" fill="#716E7F"/>
<path d="M193.204 102.243C193.204 102.766 192.745 103.224 192.221 103.224H155.148C154.624 103.224 154.166 102.766 154.166 102.243C154.166 101.72 154.624 101.262 155.148 101.262H192.221C192.745 101.328 193.204 101.72 193.204 102.243Z" fill="#716E7F"/>
<path d="M45.108 42.901C45.108 43.4893 44.6496 43.947 44.0601 43.947C43.4706 43.947 43.0121 43.4893 43.0121 42.901C43.0121 42.3126 43.4706 41.855 44.0601 41.855C44.6496 41.9204 45.108 42.378 45.108 42.901Z" fill="#716E7F"/>
<path d="M88.469 42.901C88.469 43.4893 88.0105 43.947 87.421 43.947C86.8315 43.947 86.3729 43.4893 86.3729 42.901C86.3729 42.3126 86.8315 41.855 87.421 41.855C87.945 41.9204 88.469 42.378 88.469 42.901Z" fill="#716E7F"/>
<path d="M131.765 42.901C131.765 43.4893 131.306 43.947 130.717 43.947C130.127 43.947 129.669 43.4893 129.669 42.901C129.669 42.3126 130.127 41.855 130.717 41.855C131.306 41.9204 131.765 42.378 131.765 42.901Z" fill="#716E7F"/>
<path d="M175.125 42.901C175.125 43.4893 174.667 43.947 174.078 43.947C173.488 43.947 173.03 43.4893 173.03 42.901C173.03 42.3126 173.488 41.855 174.078 41.855C174.667 41.9204 175.125 42.378 175.125 42.901Z" fill="#716E7F"/>
</g>
<defs>
<filter id="filter0_d" x="0" y="0.013916" width="218.531" height="118.882" filterUnits="userSpaceOnUse" color-interpolation-filters="sRGB">
<feFlood flood-opacity="0" result="BackgroundImageFix"/>
<feColorMatrix in="SourceAlpha" type="matrix" values="0 0 0 0 0 0 0 0 0 0 0 0 0 0 0 0 0 0 127 0"/>
<feOffset dy="-4"/>
<feGaussianBlur stdDeviation="5"/>
<feColorMatrix type="matrix" values="0 0 0 0 0 0 0 0 0 0 0 0 0 0 0 0 0 0 0.05 0"/>
<feBlend mode="normal" in2="BackgroundImageFix" result="effect1_dropShadow"/>
<feBlend mode="normal" in="SourceGraphic" in2="effect1_dropShadow" result="shape"/>
</filter>
</defs>
</svg>
