<svg width="308" height="183" viewBox="0 0 308 183" fill="none" xmlns="http://www.w3.org/2000/svg">
<path d="M15.24 151.656H264.336L307.566 182.831H53.23L15.24 151.656Z" fill="white" fill-opacity="0.15"/>
<g opacity="0.45" filter="url(#filter0_d)">
<path d="M271.5 145.311C271.5 149.91 269.776 153.633 267.029 153.633H14.9705C12.2237 153.633 10 149.91 10 145.311V23.2862C10 18.6869 12.2237 14.9636 14.9705 14.9636H266.964C269.711 14.9636 271.5 18.6869 271.5 23.2862V145.311Z" fill="white"/>
<path d="M266.552 15.1213H260.985V137.442C260.985 140.187 258.758 142.409 256.007 142.409H10V148.618C10 151.363 12.227 153.585 14.978 153.585H266.552C269.303 153.585 271.53 151.363 271.53 148.618V20.0883C271.53 17.3434 269.303 15.1213 266.552 15.1213Z" fill="#DAEAE9"/>
<path d="M191.205 54.8706C194.646 39.7237 185.13 24.6611 169.949 21.2273C154.769 17.7935 139.673 27.2889 136.231 42.4357C132.79 57.5826 142.306 72.6452 157.487 76.079C172.667 79.5128 187.764 70.0174 191.205 54.8706Z" fill="#E5F4F6"/>
<path d="M189.412 48.6771C189.412 62.8529 177.907 74.3322 163.7 74.3322C149.492 74.3322 137.988 62.8529 137.988 48.6771C137.988 34.5014 149.492 23.0221 163.7 23.0221C177.907 22.9835 189.412 34.5014 189.412 48.6771Z" fill="#595766"/>
<path d="M168.333 48.6769C168.333 51.2578 166.248 53.338 163.661 53.338C161.075 53.338 158.99 51.2578 158.99 48.6769C158.99 46.096 161.075 44.0159 163.661 44.0159C166.248 44.0159 168.333 46.096 168.333 48.6769Z" fill="#E5F4F6"/>
<path d="M164.433 20.5181H162.966V76.7589H164.433V20.5181Z" fill="#E5F4F6"/>
<path d="M191.884 47.9451H135.518V49.4089H191.884V47.9451Z" fill="#E5F4F6"/>
<path d="M187.886 34.1967L138.808 61.856L139.53 63.1305L188.608 35.4713L187.886 34.1967Z" fill="#E5F4F6"/>
<path d="M150.471 23.798L149.194 24.5183L176.888 73.5049L178.165 72.7846L150.471 23.798Z" fill="#E5F4F6"/>
<path d="M139.301 34.4985L138.598 35.7832L188.019 62.8268L188.722 61.5422L139.301 34.4985Z" fill="#E5F4F6"/>
<path d="M176.598 23.6328L149.525 72.9617L150.812 73.6647L177.885 24.3359L176.598 23.6328Z" fill="#E5F4F6"/>
<path d="M166.906 20.7073L160.198 76.5488L160.505 76.5855L167.213 20.744L166.906 20.7073Z" fill="#E5F4F6"/>
<path d="M135.711 45.1431L135.675 45.4492L191.638 52.1734L191.675 51.8673L135.711 45.1431Z" fill="#E5F4F6"/>
<path d="M189.661 37.6935L137.647 59.3687L137.766 59.653L189.78 37.9779L189.661 37.6935Z" fill="#E5F4F6"/>
<path d="M152.997 22.6081L152.712 22.7266L174.385 74.6424L174.67 74.5239L152.997 22.6081Z" fill="#E5F4F6"/>
<path d="M140.837 32.1642L140.658 32.415L186.523 65.1096L186.702 64.8588L140.837 32.1642Z" fill="#E5F4F6"/>
<path d="M179.979 25.6929L147.202 71.4504L147.454 71.6296L180.23 25.8721L179.979 25.6929Z" fill="#E5F4F6"/>
<path d="M169.425 21.11L157.706 76.1248L158.009 76.1888L169.727 21.174L169.425 21.11Z" fill="#E5F4F6"/>
<path d="M136.145 42.6379L136.081 42.9395L191.209 54.6775L191.273 54.3759L136.145 42.6379Z" fill="#E5F4F6"/>
<path d="M190.545 40.0924L136.771 56.9534L136.864 57.2474L190.637 40.3864L190.545 40.0924Z" fill="#E5F4F6"/>
<path d="M155.4 21.7648L155.105 21.8574L171.945 75.5315L172.24 75.4389L155.4 21.7648Z" fill="#E5F4F6"/>
<path d="M142.423 30.1824L142.222 30.416L184.947 67.1019L185.149 66.8683L142.423 30.1824Z" fill="#E5F4F6"/>
<path d="M181.969 27.2516L145.196 69.8708L145.43 70.0719L182.203 27.4526L181.969 27.2516Z" fill="#E5F4F6"/>
<path d="M171.768 21.7047L155.371 75.5159L155.667 75.6055L172.064 21.7943L171.768 21.7047Z" fill="#E5F4F6"/>
<path d="M136.755 40.3074L136.665 40.6023L190.577 57.0199L190.666 56.725L136.755 40.3074Z" fill="#E5F4F6"/>
<path d="M191.188 42.4352L136.157 54.6116L136.224 54.9125L191.255 42.7362L191.188 42.4352Z" fill="#E5F4F6"/>
<path d="M157.738 21.1493L157.437 21.2163L169.639 76.1251L169.94 76.0581L157.738 21.1493Z" fill="#E5F4F6"/>
<path d="M144.085 28.4329L143.864 28.6484L183.292 68.8438L183.513 68.6282L144.085 28.4329Z" fill="#E5F4F6"/>
<path d="M183.738 28.8798L143.453 68.2146L143.669 68.4349L183.954 29.1001L183.738 28.8798Z" fill="#E5F4F6"/>
<path d="M174.19 22.5541L152.929 74.6387L153.215 74.7549L174.476 22.6703L174.19 22.5541Z" fill="#E5F4F6"/>
<path d="M137.622 37.9129L137.506 38.1985L189.695 59.4401L189.811 59.1545L137.622 37.9129Z" fill="#E5F4F6"/>
<path d="M191.638 44.9244L135.734 52.1177L135.774 52.4234L191.678 45.2302L191.638 44.9244Z" fill="#E5F4F6"/>
<path d="M160.252 20.7253L159.945 20.7646L167.114 76.5466L167.42 76.5072L160.252 20.7253Z" fill="#E5F4F6"/>
<path d="M146.008 26.7398L145.768 26.9346L181.373 70.5384L181.612 70.3436L146.008 26.7398Z" fill="#E5F4F6"/>
<path d="M185.473 30.8014L141.75 66.2949L141.944 66.534L185.668 31.0404L185.473 30.8014Z" fill="#E5F4F6"/>
<path d="M151.036 73.7927L150.766 73.6772L176.323 23.5227L176.594 23.6768L151.036 73.7927Z" fill="#E5F4F6"/>
<path d="M138.629 35.7436L138.489 36.0183L188.728 61.5235L188.868 61.2488L138.629 35.7436Z" fill="#E5F4F6"/>
<path d="M191.857 47.3109L135.542 49.7456L135.555 50.0544L191.871 47.6197L191.857 47.3109Z" fill="#E5F4F6"/>
<path d="M162.638 20.5425L162.329 20.5559L164.77 76.7463L165.078 76.7329L162.638 20.5425Z" fill="#E5F4F6"/>
<path d="M147.916 25.3276L147.661 25.5015L179.45 71.9445L179.705 71.7706L147.916 25.3276Z" fill="#E5F4F6"/>
<path d="M186.891 32.6576L140.367 64.4111L140.541 64.6655L187.065 32.9119L186.891 32.6576Z" fill="#E5F4F6"/>
<path d="M129.205 54.8706C132.646 39.7237 123.13 24.6611 107.949 21.2273C92.7688 17.7935 77.6727 27.2889 74.2313 42.4357C70.7898 57.5826 80.3063 72.6452 95.4869 76.079C110.667 79.5128 125.764 70.0174 129.205 54.8706Z" fill="#E5F4F6"/>
<path d="M127.412 48.6771C127.412 62.8529 115.907 74.3322 101.7 74.3322C87.4924 74.3322 75.9875 62.8529 75.9875 48.6771C75.9875 34.5014 87.4924 23.0221 101.7 23.0221C115.907 22.9835 127.412 34.5014 127.412 48.6771Z" fill="#595766"/>
<path d="M106.333 48.6769C106.333 51.2578 104.248 53.338 101.661 53.338C99.0746 53.338 96.9899 51.2578 96.9899 48.6769C96.9899 46.096 99.0746 44.0159 101.661 44.0159C104.248 44.0159 106.333 46.096 106.333 48.6769Z" fill="#E5F4F6"/>
<path d="M102.433 20.5181H100.966V76.7589H102.433V20.5181Z" fill="#E5F4F6"/>
<path d="M129.884 47.9451H73.5176V49.4089H129.884V47.9451Z" fill="#E5F4F6"/>
<path d="M125.886 34.1967L76.8083 61.856L77.5299 63.1305L126.608 35.4713L125.886 34.1967Z" fill="#E5F4F6"/>
<path d="M88.4714 23.798L87.1942 24.5183L114.888 73.5049L116.165 72.7846L88.4714 23.798Z" fill="#E5F4F6"/>
<path d="M77.3013 34.4985L76.598 35.7832L126.019 62.8268L126.722 61.5422L77.3013 34.4985Z" fill="#E5F4F6"/>
<path d="M114.598 23.6328L87.5251 72.9617L88.8119 73.6647L115.884 24.3359L114.598 23.6328Z" fill="#E5F4F6"/>
<path d="M104.906 20.7073L98.1985 76.5488L98.5052 76.5855L105.213 20.744L104.906 20.7073Z" fill="#E5F4F6"/>
<path d="M73.7113 45.1431L73.6746 45.4492L129.638 52.1734L129.675 51.8673L73.7113 45.1431Z" fill="#E5F4F6"/>
<path d="M127.661 37.6935L75.6467 59.3687L75.7658 59.653L127.78 37.9779L127.661 37.6935Z" fill="#E5F4F6"/>
<path d="M90.9971 22.6081L90.712 22.7266L112.385 74.6424L112.67 74.5239L90.9971 22.6081Z" fill="#E5F4F6"/>
<path d="M78.8371 32.1642L78.6576 32.415L124.523 65.1096L124.702 64.8588L78.8371 32.1642Z" fill="#E5F4F6"/>
<path d="M117.979 25.6929L85.2023 71.4504L85.4536 71.6296L118.23 25.8721L117.979 25.6929Z" fill="#E5F4F6"/>
<path d="M107.425 21.11L95.7064 76.1248L96.0085 76.1888L107.727 21.174L107.425 21.11Z" fill="#E5F4F6"/>
<path d="M74.1454 42.6379L74.0812 42.9395L129.209 54.6775L129.273 54.3759L74.1454 42.6379Z" fill="#E5F4F6"/>
<path d="M128.545 40.0924L74.7715 56.9534L74.8641 57.2474L128.637 40.3864L128.545 40.0924Z" fill="#E5F4F6"/>
<path d="M93.3996 21.7648L93.105 21.8574L109.945 75.5315L110.24 75.4389L93.3996 21.7648Z" fill="#E5F4F6"/>
<path d="M80.4234 30.1824L80.2219 30.416L122.947 67.1019L123.149 66.8683L80.4234 30.1824Z" fill="#E5F4F6"/>
<path d="M119.969 27.2516L83.1956 69.8708L83.4296 70.0719L120.203 27.4526L119.969 27.2516Z" fill="#E5F4F6"/>
<path d="M109.768 21.7047L93.3711 75.5159L93.6666 75.6055L110.063 21.7943L109.768 21.7047Z" fill="#E5F4F6"/>
<path d="M74.7548 40.3074L74.6652 40.6023L128.577 57.0199L128.666 56.725L74.7548 40.3074Z" fill="#E5F4F6"/>
<path d="M129.188 42.4352L74.1572 54.6116L74.2241 54.9125L129.255 42.7362L129.188 42.4352Z" fill="#E5F4F6"/>
<path d="M95.7385 21.1493L95.437 21.2163L107.639 76.1251L107.94 76.0581L95.7385 21.1493Z" fill="#E5F4F6"/>
<path d="M82.0851 28.4329L81.8644 28.6484L121.292 68.8438L121.513 68.6282L82.0851 28.4329Z" fill="#E5F4F6"/>
<path d="M121.738 28.8798L81.4531 68.2146L81.6691 68.4349L121.954 29.1001L121.738 28.8798Z" fill="#E5F4F6"/>
<path d="M112.19 22.5541L90.929 74.6387L91.215 74.7549L112.476 22.6703L112.19 22.5541Z" fill="#E5F4F6"/>
<path d="M75.6223 37.9129L75.5062 38.1985L127.695 59.4401L127.811 59.1545L75.6223 37.9129Z" fill="#E5F4F6"/>
<path d="M129.638 44.9244L73.7341 52.1177L73.7736 52.4234L129.678 45.2302L129.638 44.9244Z" fill="#E5F4F6"/>
<path d="M98.2515 20.7253L97.9452 20.7646L105.114 76.5466L105.42 76.5072L98.2515 20.7253Z" fill="#E5F4F6"/>
<path d="M84.0076 26.7398L83.7682 26.9346L119.373 70.5384L119.612 70.3436L84.0076 26.7398Z" fill="#E5F4F6"/>
<path d="M123.473 30.8014L79.7495 66.2949L79.9444 66.534L123.668 31.0404L123.473 30.8014Z" fill="#E5F4F6"/>
<path d="M89.036 73.7927L88.7657 73.6772L114.323 23.5227L114.594 23.6768L89.036 73.7927Z" fill="#E5F4F6"/>
<path d="M76.6292 35.7436L76.4891 36.0183L126.728 61.5235L126.868 61.2488L76.6292 35.7436Z" fill="#E5F4F6"/>
<path d="M129.857 47.3109L73.5416 49.7456L73.555 50.0544L129.871 47.6197L129.857 47.3109Z" fill="#E5F4F6"/>
<path d="M100.638 20.5425L100.329 20.5559L102.77 76.7463L103.078 76.7329L100.638 20.5425Z" fill="#E5F4F6"/>
<path d="M85.9159 25.3276L85.6609 25.5015L117.45 71.9445L117.705 71.7706L85.9159 25.3276Z" fill="#E5F4F6"/>
<path d="M124.891 32.6576L78.3666 64.4111L78.541 64.6655L125.065 32.9119L124.891 32.6576Z" fill="#E5F4F6"/>
<path d="M192.502 114.393C195.943 99.2464 186.427 84.1838 171.246 80.75C156.066 77.3162 140.97 86.8116 137.528 101.958C134.087 117.105 143.603 132.168 158.784 135.602C173.964 139.035 189.06 129.54 192.502 114.393Z" fill="#E5F4F6"/>
<path d="M190.709 108.2C190.709 122.376 179.204 133.855 164.997 133.855C150.789 133.855 139.284 122.376 139.284 108.2C139.284 94.0241 150.789 82.5448 164.997 82.5448C179.204 82.5063 190.709 94.0241 190.709 108.2Z" fill="#595766"/>
<path d="M169.63 108.2C169.63 110.781 167.545 112.861 164.958 112.861C162.372 112.861 160.287 110.781 160.287 108.2C160.287 105.619 162.372 103.539 164.958 103.539C167.545 103.539 169.63 105.619 169.63 108.2Z" fill="#E5F4F6"/>
<path d="M165.73 80.0408H164.263V136.282H165.73V80.0408Z" fill="#E5F4F6"/>
<path d="M193.18 107.468H136.814V108.932H193.18V107.468Z" fill="#E5F4F6"/>
<path d="M189.183 93.7195L140.105 121.379L140.827 122.653L189.905 94.994L189.183 93.7195Z" fill="#E5F4F6"/>
<path d="M151.768 83.3207L150.491 84.041L178.185 133.028L179.462 132.307L151.768 83.3207Z" fill="#E5F4F6"/>
<path d="M140.598 94.0215L139.895 95.3062L189.316 122.35L190.019 121.065L140.598 94.0215Z" fill="#E5F4F6"/>
<path d="M177.894 83.1558L150.822 132.485L152.109 133.188L179.181 83.8589L177.894 83.1558Z" fill="#E5F4F6"/>
<path d="M168.203 80.2301L161.495 136.072L161.802 136.108L168.51 80.2667L168.203 80.2301Z" fill="#E5F4F6"/>
<path d="M137.008 104.666L136.971 104.972L192.935 111.696L192.972 111.39L137.008 104.666Z" fill="#E5F4F6"/>
<path d="M190.958 97.2161L138.944 118.891L139.063 119.176L191.077 97.5005L190.958 97.2161Z" fill="#E5F4F6"/>
<path d="M154.294 82.1308L154.009 82.2493L175.681 134.165L175.966 134.047L154.294 82.1308Z" fill="#E5F4F6"/>
<path d="M142.134 91.6872L141.954 91.938L187.82 124.633L187.999 124.382L142.134 91.6872Z" fill="#E5F4F6"/>
<path d="M181.276 85.2159L148.499 130.973L148.75 131.153L181.527 85.3951L181.276 85.2159Z" fill="#E5F4F6"/>
<path d="M170.722 80.6327L159.003 135.647L159.305 135.712L171.024 80.6968L170.722 80.6327Z" fill="#E5F4F6"/>
<path d="M137.442 102.161L137.378 102.462L192.506 114.2L192.57 113.899L137.442 102.161Z" fill="#E5F4F6"/>
<path d="M191.842 99.6153L138.068 116.476L138.161 116.77L191.934 99.9093L191.842 99.6153Z" fill="#E5F4F6"/>
<path d="M156.696 81.2875L156.402 81.3801L173.242 135.054L173.537 134.962L156.696 81.2875Z" fill="#E5F4F6"/>
<path d="M143.72 89.7051L143.519 89.9387L186.238 126.632L186.439 126.398L143.72 89.7051Z" fill="#E5F4F6"/>
<path d="M183.266 86.7743L146.492 129.394L146.726 129.595L183.5 86.9753L183.266 86.7743Z" fill="#E5F4F6"/>
<path d="M173.065 81.2271L156.668 135.038L156.963 135.128L173.36 81.3167L173.065 81.2271Z" fill="#E5F4F6"/>
<path d="M138.052 99.8298L137.962 100.125L191.873 116.542L191.963 116.247L138.052 99.8298Z" fill="#E5F4F6"/>
<path d="M192.485 101.958L137.454 114.135L137.521 114.435L192.552 102.259L192.485 101.958Z" fill="#E5F4F6"/>
<path d="M159.035 80.672L158.734 80.739L170.936 135.648L171.237 135.581L159.035 80.672Z" fill="#E5F4F6"/>
<path d="M145.382 87.9556L145.161 88.1711L184.589 128.366L184.81 128.151L145.382 87.9556Z" fill="#E5F4F6"/>
<path d="M185.035 88.4025L144.75 127.737L144.966 127.958L185.251 88.6227L185.035 88.4025Z" fill="#E5F4F6"/>
<path d="M175.487 82.077L154.225 134.162L154.512 134.278L175.773 82.1932L175.487 82.077Z" fill="#E5F4F6"/>
<path d="M138.919 97.4356L138.803 97.7212L190.992 118.963L191.108 118.677L138.919 97.4356Z" fill="#E5F4F6"/>
<path d="M192.935 104.447L137.031 111.64L137.071 111.946L192.975 104.753L192.935 104.447Z" fill="#E5F4F6"/>
<path d="M161.548 80.248L161.242 80.2874L168.411 136.069L168.717 136.03L161.548 80.248Z" fill="#E5F4F6"/>
<path d="M147.305 86.2625L147.066 86.4573L182.671 130.061L182.91 129.866L147.305 86.2625Z" fill="#E5F4F6"/>
<path d="M186.769 90.324L143.046 125.818L143.241 126.057L186.964 90.5631L186.769 90.324Z" fill="#E5F4F6"/>
<path d="M152.333 133.315L152.062 133.2L177.62 83.0454L177.89 83.1995L152.333 133.315Z" fill="#E5F4F6"/>
<path d="M139.926 95.2663L139.786 95.541L190.025 121.046L190.165 120.772L139.926 95.2663Z" fill="#E5F4F6"/>
<path d="M193.154 106.834L136.839 109.268L136.852 109.577L193.167 107.142L193.154 106.834Z" fill="#E5F4F6"/>
<path d="M163.934 80.0652L163.626 80.0786L166.066 136.269L166.375 136.256L163.934 80.0652Z" fill="#E5F4F6"/>
<path d="M149.213 84.8503L148.958 85.0242L180.746 131.467L181.001 131.293L149.213 84.8503Z" fill="#E5F4F6"/>
<path d="M188.188 92.1802L141.663 123.934L141.838 124.188L188.362 92.4346L188.188 92.1802Z" fill="#E5F4F6"/>
<path d="M130.502 114.393C133.943 99.2464 124.427 84.1838 109.246 80.75C94.0657 77.3162 78.9696 86.8116 75.5281 101.958C72.0867 117.105 81.6032 132.168 96.7838 135.602C111.964 139.035 127.06 129.54 130.502 114.393Z" fill="#E5F4F6"/>
<path d="M128.709 108.2C128.709 122.376 117.204 133.855 102.997 133.855C88.7893 133.855 77.2844 122.376 77.2844 108.2C77.2844 94.0241 88.7893 82.5448 102.997 82.5448C117.204 82.5063 128.709 94.0241 128.709 108.2Z" fill="#595766"/>
<path d="M107.63 108.2C107.63 110.781 105.545 112.861 102.958 112.861C100.372 112.861 98.2867 110.781 98.2867 108.2C98.2867 105.619 100.372 103.539 102.958 103.539C105.545 103.539 107.63 105.619 107.63 108.2Z" fill="#E5F4F6"/>
<path d="M103.73 80.0408H102.263V136.282H103.73V80.0408Z" fill="#E5F4F6"/>
<path d="M131.18 107.468H74.8145V108.932H131.18V107.468Z" fill="#E5F4F6"/>
<path d="M127.183 93.7195L78.1052 121.379L78.8267 122.653L127.905 94.994L127.183 93.7195Z" fill="#E5F4F6"/>
<path d="M89.7683 83.3207L88.4911 84.041L116.185 133.028L117.462 132.307L89.7683 83.3207Z" fill="#E5F4F6"/>
<path d="M78.5981 94.0215L77.8949 95.3062L127.316 122.35L128.019 121.065L78.5981 94.0215Z" fill="#E5F4F6"/>
<path d="M115.894 83.1558L88.8219 132.485L90.1087 133.188L117.181 83.8589L115.894 83.1558Z" fill="#E5F4F6"/>
<path d="M106.203 80.2301L99.4954 136.072L99.802 136.108L106.51 80.2667L106.203 80.2301Z" fill="#E5F4F6"/>
<path d="M75.0082 104.666L74.9714 104.972L130.935 111.696L130.972 111.39L75.0082 104.666Z" fill="#E5F4F6"/>
<path d="M128.958 97.2161L76.9436 118.891L77.0626 119.176L129.077 97.5005L128.958 97.2161Z" fill="#E5F4F6"/>
<path d="M92.2938 82.1308L92.0087 82.2493L113.681 134.165L113.967 134.047L92.2938 82.1308Z" fill="#E5F4F6"/>
<path d="M80.1339 91.6872L79.9545 91.938L125.82 124.633L125.999 124.382L80.1339 91.6872Z" fill="#E5F4F6"/>
<path d="M119.276 85.2159L86.4989 130.973L86.7502 131.153L119.527 85.3951L119.276 85.2159Z" fill="#E5F4F6"/>
<path d="M108.722 80.6327L97.0032 135.647L97.3053 135.712L109.024 80.6968L108.722 80.6327Z" fill="#E5F4F6"/>
<path d="M75.4423 102.161L75.3781 102.462L130.506 114.2L130.57 113.899L75.4423 102.161Z" fill="#E5F4F6"/>
<path d="M129.842 99.6153L76.0684 116.476L76.161 116.77L129.934 99.9093L129.842 99.6153Z" fill="#E5F4F6"/>
<path d="M94.6963 81.2875L94.4017 81.3801L111.242 135.054L111.537 134.962L94.6963 81.2875Z" fill="#E5F4F6"/>
<path d="M81.7202 89.7051L81.5188 89.9387L124.238 126.632L124.439 126.398L81.7202 89.7051Z" fill="#E5F4F6"/>
<path d="M121.265 86.7743L84.4923 129.394L84.7264 129.595L121.5 86.9753L121.265 86.7743Z" fill="#E5F4F6"/>
<path d="M111.065 81.2271L94.6678 135.038L94.9634 135.128L111.36 81.3167L111.065 81.2271Z" fill="#E5F4F6"/>
<path d="M76.0517 99.8298L75.962 100.125L129.873 116.542L129.963 116.247L76.0517 99.8298Z" fill="#E5F4F6"/>
<path d="M130.485 101.958L75.4541 114.135L75.521 114.435L130.552 102.259L130.485 101.958Z" fill="#E5F4F6"/>
<path d="M97.0352 80.672L96.7338 80.739L108.936 135.648L109.237 135.581L97.0352 80.672Z" fill="#E5F4F6"/>
<path d="M83.382 87.9556L83.1613 88.1711L122.589 128.366L122.81 128.151L83.382 87.9556Z" fill="#E5F4F6"/>
<path d="M123.035 88.4025L82.75 127.737L82.966 127.958L123.251 88.6227L123.035 88.4025Z" fill="#E5F4F6"/>
<path d="M113.487 82.077L92.2255 134.162L92.5115 134.278L113.773 82.1932L113.487 82.077Z" fill="#E5F4F6"/>
<path d="M76.9191 97.4356L76.8031 97.7212L128.992 118.963L129.108 118.677L76.9191 97.4356Z" fill="#E5F4F6"/>
<path d="M130.935 104.447L75.031 111.64L75.0705 111.946L130.975 104.753L130.935 104.447Z" fill="#E5F4F6"/>
<path d="M99.5481 80.248L99.2418 80.2874L106.411 136.069L106.717 136.03L99.5481 80.248Z" fill="#E5F4F6"/>
<path d="M85.3054 86.2625L85.066 86.4573L120.671 130.061L120.91 129.866L85.3054 86.2625Z" fill="#E5F4F6"/>
<path d="M124.769 90.324L81.0464 125.818L81.2413 126.057L124.964 90.5631L124.769 90.324Z" fill="#E5F4F6"/>
<path d="M90.3327 133.315L90.0625 133.2L115.62 83.0454L115.89 83.1995L90.3327 133.315Z" fill="#E5F4F6"/>
<path d="M77.9261 95.2663L77.786 95.541L128.025 121.046L128.165 120.772L77.9261 95.2663Z" fill="#E5F4F6"/>
<path d="M131.154 106.834L74.8385 109.268L74.8519 109.577L131.167 107.142L131.154 106.834Z" fill="#E5F4F6"/>
<path d="M101.934 80.0652L101.626 80.0786L104.066 136.269L104.375 136.256L101.934 80.0652Z" fill="#E5F4F6"/>
<path d="M87.2126 84.8503L86.9576 85.0242L118.746 131.467L119.001 131.293L87.2126 84.8503Z" fill="#E5F4F6"/>
<path d="M126.188 92.1802L79.6632 123.934L79.8376 124.188L126.362 92.4346L126.188 92.1802Z" fill="#E5F4F6"/>
<path d="M253.464 54.8706C256.905 39.7237 247.389 24.6611 232.208 21.2273C217.028 17.7935 201.931 27.2889 198.49 42.4357C195.049 57.5826 204.565 72.6452 219.746 76.079C234.926 79.5128 250.022 70.0174 253.464 54.8706Z" fill="#E5F4F6"/>
<path d="M251.671 48.6771C251.671 62.8529 240.166 74.3322 225.958 74.3322C211.751 74.3322 200.246 62.8529 200.246 48.6771C200.246 34.5014 211.751 23.0221 225.958 23.0221C240.166 22.9835 251.671 34.5014 251.671 48.6771Z" fill="#595766"/>
<path d="M230.592 48.6769C230.592 51.2578 228.507 53.338 225.92 53.338C223.333 53.338 221.249 51.2578 221.249 48.6769C221.249 46.096 223.333 44.0159 225.92 44.0159C228.507 44.0159 230.592 46.096 230.592 48.6769Z" fill="#E5F4F6"/>
<path d="M226.692 20.5181H225.225V76.7589H226.692V20.5181Z" fill="#E5F4F6"/>
<path d="M254.142 47.9451H197.776V49.4089H254.142V47.9451Z" fill="#E5F4F6"/>
<path d="M250.145 34.1967L201.067 61.856L201.789 63.1305L250.867 35.4713L250.145 34.1967Z" fill="#E5F4F6"/>
<path d="M212.729 23.798L211.452 24.5183L239.146 73.5049L240.423 72.7846L212.729 23.798Z" fill="#E5F4F6"/>
<path d="M201.56 34.4985L200.857 35.7832L250.278 62.8268L250.981 61.5422L201.56 34.4985Z" fill="#E5F4F6"/>
<path d="M238.857 23.6328L211.784 72.9617L213.071 73.6647L240.143 24.3359L238.857 23.6328Z" fill="#E5F4F6"/>
<path d="M229.164 20.7073L222.456 76.5488L222.763 76.5855L229.47 20.744L229.164 20.7073Z" fill="#E5F4F6"/>
<path d="M197.97 45.1431L197.933 45.4492L253.897 52.1734L253.934 51.8673L197.97 45.1431Z" fill="#E5F4F6"/>
<path d="M251.92 37.6934L199.906 59.3687L200.025 59.653L252.039 37.9778L251.92 37.6934Z" fill="#E5F4F6"/>
<path d="M215.256 22.6081L214.971 22.7266L236.644 74.6424L236.929 74.5239L215.256 22.6081Z" fill="#E5F4F6"/>
<path d="M203.096 32.1642L202.916 32.415L248.782 65.1096L248.961 64.8588L203.096 32.1642Z" fill="#E5F4F6"/>
<path d="M242.238 25.6929L209.461 71.4504L209.712 71.6296L242.489 25.8721L242.238 25.6929Z" fill="#E5F4F6"/>
<path d="M231.684 21.1097L219.965 76.1245L220.267 76.1886L231.986 21.1738L231.684 21.1097Z" fill="#E5F4F6"/>
<path d="M198.404 42.6379L198.34 42.9395L253.467 54.6774L253.532 54.3759L198.404 42.6379Z" fill="#E5F4F6"/>
<path d="M252.803 40.0923L199.03 56.9534L199.123 57.2474L252.896 40.3863L252.803 40.0923Z" fill="#E5F4F6"/>
<path d="M217.659 21.7648L217.364 21.8574L234.204 75.5315L234.499 75.4389L217.659 21.7648Z" fill="#E5F4F6"/>
<path d="M204.682 30.1824L204.481 30.416L247.206 67.1019L247.408 66.8683L204.682 30.1824Z" fill="#E5F4F6"/>
<path d="M244.227 27.2516L207.454 69.8708L207.688 70.0719L244.462 27.4526L244.227 27.2516Z" fill="#E5F4F6"/>
<path d="M234.027 21.7047L217.63 75.5159L217.925 75.6055L234.322 21.7943L234.027 21.7047Z" fill="#E5F4F6"/>
<path d="M199.014 40.3074L198.924 40.6023L252.835 57.0198L252.925 56.7249L199.014 40.3074Z" fill="#E5F4F6"/>
<path d="M253.447 42.4352L198.416 54.6116L198.483 54.9125L253.514 42.7362L253.447 42.4352Z" fill="#E5F4F6"/>
<path d="M219.998 21.1493L219.696 21.2163L231.898 76.1251L232.199 76.0581L219.998 21.1493Z" fill="#E5F4F6"/>
<path d="M206.345 28.4329L206.124 28.6484L245.552 68.8438L245.773 68.6282L206.345 28.4329Z" fill="#E5F4F6"/>
<path d="M245.997 28.8798L205.712 68.2146L205.928 68.4349L246.213 29.1001L245.997 28.8798Z" fill="#E5F4F6"/>
<path d="M236.449 22.5543L215.188 74.6389L215.474 74.7552L236.735 22.6705L236.449 22.5543Z" fill="#E5F4F6"/>
<path d="M199.881 37.9129L199.765 38.1985L251.954 59.4401L252.07 59.1545L199.881 37.9129Z" fill="#E5F4F6"/>
<path d="M253.897 44.9244L197.993 52.1177L198.032 52.4234L253.937 45.2302L253.897 44.9244Z" fill="#E5F4F6"/>
<path d="M222.511 20.7253L222.204 20.7646L229.373 76.5466L229.679 76.5072L222.511 20.7253Z" fill="#E5F4F6"/>
<path d="M208.266 26.7398L208.027 26.9346L243.632 70.5384L243.871 70.3436L208.266 26.7398Z" fill="#E5F4F6"/>
<path d="M247.731 30.8013L204.008 66.2949L204.203 66.534L247.926 31.0404L247.731 30.8013Z" fill="#E5F4F6"/>
<path d="M213.295 73.7927L213.025 73.6772L238.582 23.5227L238.853 23.6768L213.295 73.7927Z" fill="#E5F4F6"/>
<path d="M200.888 35.7436L200.748 36.0183L250.987 61.5235L251.127 61.2488L200.888 35.7436Z" fill="#E5F4F6"/>
<path d="M254.116 47.3109L197.8 49.7456L197.814 50.0544L254.129 47.6197L254.116 47.3109Z" fill="#E5F4F6"/>
<path d="M224.896 20.5425L224.587 20.5559L227.028 76.7463L227.336 76.7329L224.896 20.5425Z" fill="#E5F4F6"/>
<path d="M210.174 25.3276L209.919 25.5015L241.708 71.9445L241.963 71.7707L210.174 25.3276Z" fill="#E5F4F6"/>
<path d="M249.149 32.6571L202.625 64.4106L202.799 64.665L249.324 32.9115L249.149 32.6571Z" fill="#E5F4F6"/>
<path d="M254.761 114.393C258.202 99.2464 248.686 84.1838 233.505 80.75C218.324 77.3162 203.228 86.8116 199.787 101.958C196.345 117.105 205.862 132.168 221.043 135.602C236.223 139.035 251.319 129.54 254.761 114.393Z" fill="#E5F4F6"/>
<path d="M252.967 108.2C252.967 122.376 241.463 133.855 227.255 133.855C213.048 133.855 201.543 122.376 201.543 108.2C201.543 94.0241 213.048 82.5448 227.255 82.5448C241.463 82.5063 252.967 94.0241 252.967 108.2Z" fill="#595766"/>
<path d="M231.888 108.2C231.888 110.781 229.804 112.861 227.217 112.861C224.63 112.861 222.546 110.781 222.546 108.2C222.546 105.619 224.63 103.539 227.217 103.539C229.804 103.539 231.888 105.619 231.888 108.2Z" fill="#E5F4F6"/>
<path d="M227.989 80.0408H226.522V136.282H227.989V80.0408Z" fill="#E5F4F6"/>
<path d="M255.439 107.468H199.073V108.932H255.439V107.468Z" fill="#E5F4F6"/>
<path d="M251.442 93.7195L202.364 121.379L203.086 122.653L252.163 94.994L251.442 93.7195Z" fill="#E5F4F6"/>
<path d="M214.027 83.3207L212.75 84.041L240.444 133.028L241.721 132.307L214.027 83.3207Z" fill="#E5F4F6"/>
<path d="M202.857 94.0215L202.154 95.3062L251.575 122.35L252.278 121.065L202.857 94.0215Z" fill="#E5F4F6"/>
<path d="M240.153 83.1558L213.081 132.485L214.368 133.188L241.44 83.8589L240.153 83.1558Z" fill="#E5F4F6"/>
<path d="M230.462 80.23L223.754 136.072L224.061 136.108L230.768 80.2667L230.462 80.23Z" fill="#E5F4F6"/>
<path d="M199.267 104.666L199.23 104.972L255.194 111.696L255.231 111.39L199.267 104.666Z" fill="#E5F4F6"/>
<path d="M253.217 97.2161L201.202 118.891L201.321 119.176L253.336 97.5005L253.217 97.2161Z" fill="#E5F4F6"/>
<path d="M216.553 82.1308L216.268 82.2493L237.94 134.165L238.226 134.047L216.553 82.1308Z" fill="#E5F4F6"/>
<path d="M204.393 91.6872L204.213 91.938L250.079 124.633L250.258 124.382L204.393 91.6872Z" fill="#E5F4F6"/>
<path d="M243.535 85.2159L210.758 130.973L211.009 131.153L243.786 85.3951L243.535 85.2159Z" fill="#E5F4F6"/>
<path d="M232.981 80.6327L221.262 135.647L221.564 135.712L233.283 80.6967L232.981 80.6327Z" fill="#E5F4F6"/>
<path d="M199.701 102.161L199.637 102.462L254.764 114.2L254.829 113.899L199.701 102.161Z" fill="#E5F4F6"/>
<path d="M254.1 99.6153L200.327 116.476L200.42 116.77L254.193 99.9093L254.1 99.6153Z" fill="#E5F4F6"/>
<path d="M218.955 81.2875L218.661 81.3801L235.501 135.054L235.796 134.962L218.955 81.2875Z" fill="#E5F4F6"/>
<path d="M205.979 89.7051L205.778 89.9387L248.497 126.632L248.698 126.398L205.979 89.7051Z" fill="#E5F4F6"/>
<path d="M245.524 86.7743L208.751 129.394L208.985 129.595L245.758 86.9753L245.524 86.7743Z" fill="#E5F4F6"/>
<path d="M235.324 81.2271L218.927 135.038L219.222 135.128L235.619 81.3167L235.324 81.2271Z" fill="#E5F4F6"/>
<path d="M200.31 99.8298L200.221 100.125L254.132 116.542L254.222 116.247L200.31 99.8298Z" fill="#E5F4F6"/>
<path d="M254.744 101.958L199.713 114.135L199.78 114.435L254.811 102.259L254.744 101.958Z" fill="#E5F4F6"/>
<path d="M221.294 80.672L220.993 80.739L233.195 135.648L233.496 135.581L221.294 80.672Z" fill="#E5F4F6"/>
<path d="M207.641 87.9556L207.42 88.1711L246.848 128.366L247.069 128.151L207.641 87.9556Z" fill="#E5F4F6"/>
<path d="M247.293 88.4025L207.009 127.737L207.225 127.958L247.509 88.6227L247.293 88.4025Z" fill="#E5F4F6"/>
<path d="M237.746 82.077L216.484 134.162L216.771 134.278L238.032 82.1932L237.746 82.077Z" fill="#E5F4F6"/>
<path d="M201.178 97.4356L201.062 97.7212L253.251 118.963L253.367 118.677L201.178 97.4356Z" fill="#E5F4F6"/>
<path d="M255.194 104.447L199.29 111.64L199.329 111.946L255.233 104.753L255.194 104.447Z" fill="#E5F4F6"/>
<path d="M223.807 80.248L223.501 80.2874L230.67 136.069L230.976 136.03L223.807 80.248Z" fill="#E5F4F6"/>
<path d="M209.563 86.2625L209.324 86.4573L244.929 130.061L245.168 129.866L209.563 86.2625Z" fill="#E5F4F6"/>
<path d="M249.028 90.324L205.305 125.818L205.5 126.057L249.223 90.5631L249.028 90.324Z" fill="#E5F4F6"/>
<path d="M214.592 133.315L214.321 133.2L239.879 83.0454L240.149 83.1995L214.592 133.315Z" fill="#E5F4F6"/>
<path d="M202.185 95.2663L202.045 95.541L252.284 121.046L252.424 120.772L202.185 95.2663Z" fill="#E5F4F6"/>
<path d="M255.413 106.834L199.097 109.268L199.111 109.577L255.426 107.142L255.413 106.834Z" fill="#E5F4F6"/>
<path d="M226.192 80.0652L225.884 80.0786L228.324 136.269L228.632 136.256L226.192 80.0652Z" fill="#E5F4F6"/>
<path d="M211.471 84.8505L211.216 85.0244L243.005 131.467L243.26 131.294L211.471 84.8505Z" fill="#E5F4F6"/>
<path d="M250.446 92.1801L203.922 123.934L204.096 124.188L250.621 92.4344L250.446 92.1801Z" fill="#E5F4F6"/>
<path d="M46 21.1067C46.5333 21.1067 47 21.5639 47 22.0863L47 134.854C47 135.376 46.5333 135.833 46 135.833C45.4667 135.833 45 135.376 45 134.854L45 22.0863C45 21.5639 45.4667 21.1067 46 21.1067Z" fill="#716E7F"/>
</g>
<defs>
<filter id="filter0_d" x="0" y="0.963623" width="281.53" height="158.67" filterUnits="userSpaceOnUse" color-interpolation-filters="sRGB">
<feFlood flood-opacity="0" result="BackgroundImageFix"/>
<feColorMatrix in="SourceAlpha" type="matrix" values="0 0 0 0 0 0 0 0 0 0 0 0 0 0 0 0 0 0 127 0"/>
<feOffset dy="-4"/>
<feGaussianBlur stdDeviation="5"/>
<feColorMatrix type="matrix" values="0 0 0 0 0 0 0 0 0 0 0 0 0 0 0 0 0 0 0.05 0"/>
<feBlend mode="normal" in2="BackgroundImageFix" result="effect1_dropShadow"/>
<feBlend mode="normal" in="SourceGraphic" in2="effect1_dropShadow" result="shape"/>
</filter>
</defs>
</svg>
