<svg width="97" height="61" viewBox="0 0 97 61" fill="none" xmlns="http://www.w3.org/2000/svg">
<mask id="path-1-inside-1" fill="white">
<path d="M22.0564 24.6664C22.0564 21.6695 22.0564 19.0404 22.0564 16.4152C22.0564 14.1696 22.7583 13.4975 25.0141 13.4698C26.6467 13.4698 28.2833 13.4698 30.2787 13.4698C30.2787 11.8488 30.0539 10.3069 30.3458 8.89152C30.5982 7.65009 31.1345 6.15959 32.0533 5.40445C40.8081 -1.799 56.0066 -1.75551 64.9427 5.25817C66.5911 6.55495 66.7331 8.14034 66.741 9.9748C66.741 13.9284 66.2125 13.4263 70.1719 13.4658C70.7634 13.4658 71.355 13.4658 71.9465 13.4658C74.2811 13.4975 74.9278 14.1617 74.9397 16.5694C74.9397 19.1867 74.9397 21.804 74.9397 24.6703H77.2585C82.4522 24.6703 87.6419 24.6703 92.8356 24.6703C95.8288 24.6703 96.9842 25.8564 96.9882 28.8809C96.9882 38.2351 96.9882 47.5919 96.9882 56.9514C96.9882 59.9482 95.9471 60.988 92.9776 60.988H4.06188C1.05688 60.9959 0 59.9759 0 57.0068C0 47.5867 0 38.1652 0 28.7425C0 25.888 1.21068 24.6901 4.10131 24.6743C9.29105 24.6505 14.4847 24.6743 19.6745 24.6743L22.0564 24.6664ZM21.8592 58.1414C21.9184 56.9554 22.0248 55.8681 22.0209 54.769C22.0209 49.7638 21.9341 44.7546 21.9775 39.7454C21.9775 38.6819 21.5832 36.9779 23.3499 36.9779C25.1166 36.9779 24.7222 38.587 24.7301 39.7454C24.7301 43.2364 24.7301 46.7274 24.7301 50.2184V58.0742H35.2831V51.958C34.5772 51.9185 35.1017 51.958 33.4454 51.8157C32.3964 51.7287 31.4973 51.5666 31.4973 50.2817C31.4973 48.4077 31.2567 46.4862 31.4973 44.6281C31.5801 44.0469 32.7829 43.2008 33.4691 43.1969C43.4595 43.102 53.4498 43.0954 63.4402 43.1771C64.0948 43.1771 65.274 43.8057 65.3055 44.2129C65.4829 46.4049 65.4829 48.6077 65.3055 50.7996C65.274 51.195 64.5799 51.5903 63.598 51.8236C62.9787 51.9239 62.352 51.9702 61.7248 51.962V58.0782H72.2541C72.2541 51.6576 72.2068 45.403 72.3172 39.1484C72.3172 38.4051 72.2896 37.0451 73.6738 37.0451C74.9988 37.0451 75.0185 38.1442 75.0146 39.1642C74.9988 43.3814 74.9817 47.5985 74.9633 51.8157C74.9633 53.8992 74.9633 55.9828 74.9633 58.1177H94.0305C94.1143 57.9037 94.1738 57.6809 94.208 57.4535C94.208 47.9016 94.2079 38.3498 94.2434 28.7979C94.2434 27.6118 93.7189 27.3667 92.666 27.3785C89.1838 27.4181 85.7017 27.3785 82.2195 27.3785H74.9712C74.9712 28.7227 74.9712 29.8258 74.9712 30.9368C74.9712 31.8975 75.1053 32.8187 73.6619 32.8187C72.0845 32.8187 72.3882 31.5891 72.333 30.8814C72.1555 28.6555 72.258 26.4099 72.2541 24.1603C72.2541 21.5509 72.2541 18.9416 72.2541 16.3006H66.8159V18.6095C66.8159 23.2866 66.8159 27.9597 66.8159 32.6368C66.8159 36.6299 65.8971 37.5511 61.9772 37.5511C53.0384 37.5511 44.0996 37.5511 35.1609 37.5511C31.0556 37.5511 30.0894 36.5864 30.0934 32.4115C30.0934 27.8016 30.1565 23.1917 30.1683 18.5739C30.1683 17.8187 30.0618 17.0596 30.0027 16.2808H24.7459V18.5264C24.7459 22.6105 24.7459 26.6946 24.7459 30.7826C24.7459 31.7986 24.6868 32.9136 23.2907 32.8977C21.9578 32.8977 22.0564 31.7947 22.0485 30.8656C22.0485 29.7705 22.0485 28.6793 22.0485 27.3983C16.1331 27.3983 10.4781 27.4576 4.8427 27.3588C3.1864 27.3311 2.73289 27.8451 2.74472 29.4739C2.81965 38.4328 2.78022 47.3956 2.7881 56.3584C2.7881 56.9277 2.86698 57.501 2.91824 58.1533L21.8592 58.1414ZM43.4305 13.11C43.4305 16.5496 43.3951 19.6927 43.4818 22.8358C43.4818 23.1719 43.3872 23.7689 44.5978 23.7689C47.2243 23.7689 49.8507 23.8638 52.485 23.7689C52.8793 23.7689 53.5458 23.6621 53.5458 22.5828C53.5458 19.4634 53.6404 16.3361 53.4985 13.2207C50.2411 13.0467 47.0428 13.11 43.4305 13.11ZM34.1158 48.8782L62.7422 48.9454C63.2115 45.6204 63.176 45.8537 59.7885 45.8379C52.2326 45.7983 44.6767 45.7983 37.1208 45.8379C33.8358 45.8616 33.6663 45.5967 34.1158 48.8782ZM48.5059 26.5562C47.2637 26.5562 46.0215 26.5918 44.7792 26.5562C43.75 26.5127 43.3359 26.9199 43.3872 28.0111C43.4995 29.7475 43.4995 31.4895 43.3872 33.2259C43.257 34.8627 44.1483 34.9378 45.7296 34.8073C47.5089 34.6412 49.3002 34.6532 51.0771 34.8429C53.0489 35.0564 53.5931 34.7006 53.5931 32.8977C53.5931 32.5024 53.5931 32.107 53.5931 31.7117C53.6049 26.5522 54.3187 26.5562 48.5059 26.5562ZM40.5399 13.2642H33.126V23.6503H40.5596L40.5399 13.2642ZM56.464 13.2088V23.7215H63.8858V13.2088H56.464ZM53.6089 10.2792C53.6089 8.25499 53.5419 6.43238 53.6326 4.61768C53.6838 3.52254 53.2382 2.9809 52.2326 2.96113C49.756 2.90973 47.2755 2.88601 44.799 2.9888C44.3218 2.9888 43.4936 3.62138 43.47 4.00488C43.3359 6.0647 43.4069 8.14034 43.4069 10.2792H53.6089ZM40.5162 34.8231V26.6748H32.9643C32.9643 29.1339 32.917 31.4784 33.0195 33.815C33.0195 34.1668 33.7333 34.7559 34.1355 34.7757C36.2138 34.8745 38.296 34.8192 40.5162 34.8192V34.8231ZM64.016 26.6827H56.5232V34.7915C58.7198 34.7915 60.7468 34.8548 62.758 34.7401C63.1957 34.7164 63.9411 34.0759 63.9608 33.6885C64.0751 31.4231 64.016 29.1379 64.016 26.6787V26.6827ZM47.0862 51.9541H38.2526V58.2363H47.0862V51.9541ZM58.842 52.0173H49.9295V58.181H58.842V52.0173ZM40.5912 4.07209C35.291 5.31352 32.704 7.48799 33.2206 10.2081H40.5912V4.07209ZM56.4562 10.3504H63.9056C64.0515 7.33776 60.9913 4.94188 56.4562 4.14721V10.3504Z"/>
</mask>
<path d="M22.0564 24.6664C22.0564 21.6695 22.0564 19.0404 22.0564 16.4152C22.0564 14.1696 22.7583 13.4975 25.0141 13.4698C26.6467 13.4698 28.2833 13.4698 30.2787 13.4698C30.2787 11.8488 30.0539 10.3069 30.3458 8.89152C30.5982 7.65009 31.1345 6.15959 32.0533 5.40445C40.8081 -1.799 56.0066 -1.75551 64.9427 5.25817C66.5911 6.55495 66.7331 8.14034 66.741 9.9748C66.741 13.9284 66.2125 13.4263 70.1719 13.4658C70.7634 13.4658 71.355 13.4658 71.9465 13.4658C74.2811 13.4975 74.9278 14.1617 74.9397 16.5694C74.9397 19.1867 74.9397 21.804 74.9397 24.6703H77.2585C82.4522 24.6703 87.6419 24.6703 92.8356 24.6703C95.8288 24.6703 96.9842 25.8564 96.9882 28.8809C96.9882 38.2351 96.9882 47.5919 96.9882 56.9514C96.9882 59.9482 95.9471 60.988 92.9776 60.988H4.06188C1.05688 60.9959 0 59.9759 0 57.0068C0 47.5867 0 38.1652 0 28.7425C0 25.888 1.21068 24.6901 4.10131 24.6743C9.29105 24.6505 14.4847 24.6743 19.6745 24.6743L22.0564 24.6664ZM21.8592 58.1414C21.9184 56.9554 22.0248 55.8681 22.0209 54.769C22.0209 49.7638 21.9341 44.7546 21.9775 39.7454C21.9775 38.6819 21.5832 36.9779 23.3499 36.9779C25.1166 36.9779 24.7222 38.587 24.7301 39.7454C24.7301 43.2364 24.7301 46.7274 24.7301 50.2184V58.0742H35.2831V51.958C34.5772 51.9185 35.1017 51.958 33.4454 51.8157C32.3964 51.7287 31.4973 51.5666 31.4973 50.2817C31.4973 48.4077 31.2567 46.4862 31.4973 44.6281C31.5801 44.0469 32.7829 43.2008 33.4691 43.1969C43.4595 43.102 53.4498 43.0954 63.4402 43.1771C64.0948 43.1771 65.274 43.8057 65.3055 44.2129C65.4829 46.4049 65.4829 48.6077 65.3055 50.7996C65.274 51.195 64.5799 51.5903 63.598 51.8236C62.9787 51.9239 62.352 51.9702 61.7248 51.962V58.0782H72.2541C72.2541 51.6576 72.2068 45.403 72.3172 39.1484C72.3172 38.4051 72.2896 37.0451 73.6738 37.0451C74.9988 37.0451 75.0185 38.1442 75.0146 39.1642C74.9988 43.3814 74.9817 47.5985 74.9633 51.8157C74.9633 53.8992 74.9633 55.9828 74.9633 58.1177H94.0305C94.1143 57.9037 94.1738 57.6809 94.208 57.4535C94.208 47.9016 94.2079 38.3498 94.2434 28.7979C94.2434 27.6118 93.7189 27.3667 92.666 27.3785C89.1838 27.4181 85.7017 27.3785 82.2195 27.3785H74.9712C74.9712 28.7227 74.9712 29.8258 74.9712 30.9368C74.9712 31.8975 75.1053 32.8187 73.6619 32.8187C72.0845 32.8187 72.3882 31.5891 72.333 30.8814C72.1555 28.6555 72.258 26.4099 72.2541 24.1603C72.2541 21.5509 72.2541 18.9416 72.2541 16.3006H66.8159V18.6095C66.8159 23.2866 66.8159 27.9597 66.8159 32.6368C66.8159 36.6299 65.8971 37.5511 61.9772 37.5511C53.0384 37.5511 44.0996 37.5511 35.1609 37.5511C31.0556 37.5511 30.0894 36.5864 30.0934 32.4115C30.0934 27.8016 30.1565 23.1917 30.1683 18.5739C30.1683 17.8187 30.0618 17.0596 30.0027 16.2808H24.7459V18.5264C24.7459 22.6105 24.7459 26.6946 24.7459 30.7826C24.7459 31.7986 24.6868 32.9136 23.2907 32.8977C21.9578 32.8977 22.0564 31.7947 22.0485 30.8656C22.0485 29.7705 22.0485 28.6793 22.0485 27.3983C16.1331 27.3983 10.4781 27.4576 4.8427 27.3588C3.1864 27.3311 2.73289 27.8451 2.74472 29.4739C2.81965 38.4328 2.78022 47.3956 2.7881 56.3584C2.7881 56.9277 2.86698 57.501 2.91824 58.1533L21.8592 58.1414ZM43.4305 13.11C43.4305 16.5496 43.3951 19.6927 43.4818 22.8358C43.4818 23.1719 43.3872 23.7689 44.5978 23.7689C47.2243 23.7689 49.8507 23.8638 52.485 23.7689C52.8793 23.7689 53.5458 23.6621 53.5458 22.5828C53.5458 19.4634 53.6404 16.3361 53.4985 13.2207C50.2411 13.0467 47.0428 13.11 43.4305 13.11ZM34.1158 48.8782L62.7422 48.9454C63.2115 45.6204 63.176 45.8537 59.7885 45.8379C52.2326 45.7983 44.6767 45.7983 37.1208 45.8379C33.8358 45.8616 33.6663 45.5967 34.1158 48.8782ZM48.5059 26.5562C47.2637 26.5562 46.0215 26.5918 44.7792 26.5562C43.75 26.5127 43.3359 26.9199 43.3872 28.0111C43.4995 29.7475 43.4995 31.4895 43.3872 33.2259C43.257 34.8627 44.1483 34.9378 45.7296 34.8073C47.5089 34.6412 49.3002 34.6532 51.0771 34.8429C53.0489 35.0564 53.5931 34.7006 53.5931 32.8977C53.5931 32.5024 53.5931 32.107 53.5931 31.7117C53.6049 26.5522 54.3187 26.5562 48.5059 26.5562ZM40.5399 13.2642H33.126V23.6503H40.5596L40.5399 13.2642ZM56.464 13.2088V23.7215H63.8858V13.2088H56.464ZM53.6089 10.2792C53.6089 8.25499 53.5419 6.43238 53.6326 4.61768C53.6838 3.52254 53.2382 2.9809 52.2326 2.96113C49.756 2.90973 47.2755 2.88601 44.799 2.9888C44.3218 2.9888 43.4936 3.62138 43.47 4.00488C43.3359 6.0647 43.4069 8.14034 43.4069 10.2792H53.6089ZM40.5162 34.8231V26.6748H32.9643C32.9643 29.1339 32.917 31.4784 33.0195 33.815C33.0195 34.1668 33.7333 34.7559 34.1355 34.7757C36.2138 34.8745 38.296 34.8192 40.5162 34.8192V34.8231ZM64.016 26.6827H56.5232V34.7915C58.7198 34.7915 60.7468 34.8548 62.758 34.7401C63.1957 34.7164 63.9411 34.0759 63.9608 33.6885C64.0751 31.4231 64.016 29.1379 64.016 26.6787V26.6827ZM47.0862 51.9541H38.2526V58.2363H47.0862V51.9541ZM58.842 52.0173H49.9295V58.181H58.842V52.0173ZM40.5912 4.07209C35.291 5.31352 32.704 7.48799 33.2206 10.2081H40.5912V4.07209ZM56.4562 10.3504H63.9056C64.0515 7.33776 60.9913 4.94188 56.4562 4.14721V10.3504Z" fill="white" stroke="#CF3A47" stroke-width="0.6" mask="url(#path-1-inside-1)"/>
<path d="M9.77845 44.5094L9.77871 44.5094C10.6955 44.491 11.6141 44.4971 12.5304 44.5033C12.9876 44.5064 13.4443 44.5094 13.8998 44.5094C15.1319 44.5233 15.8639 44.7004 16.2979 45.1337C16.7314 45.5665 16.9055 46.2932 16.9055 47.5223H16.9055L16.9056 47.5264C16.9173 47.9534 16.9159 48.3885 16.9144 48.8302C16.9139 48.9786 16.9134 49.1278 16.9134 49.2777C16.9134 50.5478 16.9073 51.4942 16.8211 52.2053C16.7348 52.9171 16.5712 53.3633 16.2806 53.6564C15.9902 53.9494 15.5481 54.1144 14.8423 54.2015C14.1369 54.2886 13.1978 54.295 11.9368 54.295H10.7544C9.98311 54.2881 9.38051 54.2481 8.90829 54.147C8.43759 54.0461 8.10779 53.8869 7.87117 53.6497C7.63457 53.4125 7.47645 53.0826 7.37733 52.6122C7.27788 52.1402 7.24012 51.5382 7.23618 50.7678V50.7609V50.7536V50.7462V50.7389V50.7316V50.7243V50.717V50.7096V50.7023V50.695V50.6877V50.6804V50.673V50.6657V50.6584V50.6511V50.6438V50.6365V50.6291V50.6218V50.6145V50.6072V50.5999V50.5925V50.5852V50.5779V50.5706V50.5633V50.5559V50.5486V50.5413V50.534V50.5267V50.5194V50.512V50.5047V50.4974V50.4901V50.4828V50.4755V50.4681V50.4608V50.4535V50.4462V50.4389V50.4316V50.4242V50.4169V50.4096V50.4023V50.395V50.3877V50.3803V50.373V50.3657V50.3584V50.3511V50.3438V50.3364V50.3291V50.3218V50.3145V50.3072V50.2999V50.2926V50.2852V50.2779V50.2706V50.2633V50.256V50.2487V50.2414V50.234V50.2267V50.2194V50.2121V50.2048V50.1975V50.1901V50.1828V50.1755V50.1682V50.1609V50.1536V50.1463V50.139V50.1316V50.1243V50.117V50.1097V50.1024V50.0951V50.0878V50.0804V50.0731V50.0658V50.0585V50.0512V50.0439V50.0366V50.0292V50.0219V50.0146V50.0073V50V49.9927V49.9854V49.9781V49.9707V49.9634V49.9561V49.9488V49.9415V49.9342V49.9269V49.9196V49.9122V49.9049V49.8976V49.8903V49.883V49.8757V49.8684V49.8611V49.8538V49.8464V49.8391V49.8318V49.8245V49.8172V49.8099V49.8026V49.7953V49.7879V49.7806V49.7733V49.766V49.7587V49.7514V49.7441V49.7368V49.7295V49.7221V49.7148V49.7075V49.7002V49.6929V49.6856V49.6783V49.671V49.6637V49.6564V49.649V49.6417V49.6344V49.6271V49.6198V49.6125V49.6052V49.5979V49.5906V49.5832V49.5759V49.5686V49.5613V49.554V49.5467V49.5394V49.5321V49.5248V49.5175V49.5101V49.5028V49.4955V49.4882V49.4809V49.4736V49.4663V49.459V49.4517V49.4444V49.437V49.4297V49.4224V49.4151V49.4078V49.4005V49.3932V49.3859V49.3786V49.3713V49.3639V49.3566V49.3493V49.342V49.3347V49.3274V49.3201V49.3128V49.3055V49.2982V49.2909V49.2835V49.2762V49.2689V49.2616V49.2543V49.247V49.2397V49.2324V49.2251V49.2178V49.2105V49.2031V49.1958V49.1885V49.1812V49.1739V49.1666V49.1593V49.152V49.1447V49.1374V49.1301V49.1227V49.1154V49.1081V49.1008V49.0935V49.0862V49.0789V49.0716V49.0643V49.057V49.0497V49.0423V49.035V49.0277V49.0204V49.0131V49.0058V48.9985V48.9912V48.9839V48.9766V48.9693V48.962V48.9546V48.9473V48.94V48.9327V48.9254V48.9181V48.9108V48.9035V48.8962V48.8889V48.8816V48.8742V48.8669V48.8596V48.8523V48.845V48.8377V48.8304V48.8231V48.8158V48.8085V48.8012V48.7939V48.7865V48.7792V48.7719V48.7646V48.7573V48.75V48.7427V48.7354V48.7281V48.7208V48.7135V48.7061V48.6988V48.6915V48.6842V48.6769V48.6696V48.6623V48.655V48.6477V48.6404V48.6331V48.6257V48.6184V48.6111V48.6038V48.5965V48.5892V48.5819V48.5746V48.5673V48.56V48.5527V48.5453V48.538V48.5307V48.5234V48.5161V48.5088V48.5015V48.4942V48.4869V48.4796V48.4723V48.4649V48.4576V48.4503V48.443V48.4357V48.4284V48.4211V48.4138V48.4065V48.3992V48.3919V48.3845V48.3772V48.3699V48.3626V48.3553V48.348V48.3407V48.3334V48.3261V48.3188V48.3114V48.3041V48.2968V48.2895V48.2822V48.2749V48.2676V48.2603V48.253V48.2457V48.2383V48.231V48.2237V48.2164V48.2091V48.2018V48.1945V48.1872V48.1799V48.1726V48.1652V48.1579V48.1506V48.1433V48.136V48.1287V48.1214V48.1141V48.1068V48.0994V48.0921V48.0848V48.0775V48.0702V48.0629V48.0556V48.0483V48.041V48.0336V48.0263V48.019V48.0117V48.0044V47.9971V47.9898V47.9825V47.9752V47.9678V47.9605V47.9532V47.9459V47.9386V47.9313V47.924V47.9167V47.9093V47.902V47.8947V47.8874V47.8801V47.8728V47.8655V47.8582V47.8509V47.8435V47.8362V47.8289V47.8216V47.8143V47.807V47.7997V47.7924V47.785V47.7777V47.7704V47.7631V47.7558V47.7485V47.7412V47.7338V47.7265V47.7192V47.7119V47.7046V47.6973V47.69V47.6827V47.6753V47.668V47.6607V47.6534V47.6461V47.6388V47.6315V47.6241V47.6168V47.6095V47.6022V47.5949V47.5876V47.5803V47.5729V47.5656V47.5583V47.551V47.5437V47.5364V47.5291V47.5217V47.5144V47.5071V47.4998V47.4925V47.4852V47.4778V47.4705V47.4632V47.4559V47.4486V47.4413V47.434V47.4266V47.4193V47.412V47.4047V47.3974V47.3901V47.3827V47.3754V47.3681V47.3608V47.3535V47.3462V47.3388V47.3315V47.3242V47.3169V47.3096V47.3023V47.2949V47.2876V47.2803V47.273V47.2657V47.2584V47.251V47.2437V47.2364V47.2291V47.2218V47.2144V47.2071V47.1998V47.1925V47.1852V47.1779V47.1705V47.1632V47.1559V47.1486V47.1413V47.1339V47.1266V47.1193V47.112V47.1047V47.0973V47.09V47.0827V47.0754V47.0681V47.0607V47.0534V47.0461V47.0388V47.0315V47.0241C7.23618 46.1529 7.47015 45.5397 7.88847 45.1389C8.30842 44.7365 8.93834 44.5248 9.77845 44.5094ZM14.374 47.1744V47.0244H14.224H10.0754H9.92541V47.1744V51.6182V51.7682H10.0754H14.224H14.374V51.6182V47.1744Z" fill="white" stroke="#D03B48" stroke-width="0.3"/>
<path d="M79.4942 49.3056V49.3053C79.4942 48.0908 79.5021 47.1852 79.5871 46.5041C79.6722 45.8225 79.8316 45.3945 80.1113 45.1123C80.3908 44.8303 80.8148 44.6695 81.4896 44.5826C82.1642 44.4957 83.0606 44.4856 84.2623 44.4817C85.5328 44.4787 86.4732 44.4772 87.1759 44.5568C87.8792 44.6364 88.3116 44.7943 88.5923 45.0831C88.8738 45.3728 89.0287 45.8208 89.1077 46.5479C89.1865 47.2734 89.1872 48.2442 89.1872 49.5544C89.1872 50.7429 89.1774 51.6312 89.0915 52.3004C89.0055 52.9699 88.8463 53.3925 88.57 53.6718C88.2941 53.9509 87.8776 54.1111 87.2181 54.1976C86.5587 54.2841 85.684 54.294 84.5141 54.295C83.2445 54.295 82.2974 54.2873 81.5854 54.1991C80.8727 54.1109 80.4248 53.9448 80.1303 53.6517C79.836 53.3589 79.6702 52.9146 79.5833 52.2083C79.4965 51.5023 79.4913 50.5638 79.4942 49.3056ZM82.0297 51.6419V51.7919H82.1797H86.3638H86.5138V51.6419V47.2336V47.0836H86.3638H82.1797H82.0297V47.2336V51.6419Z" fill="white" stroke="#CF3A47" stroke-width="0.3"/>
<path d="M7.22471 35.4894L7.22471 35.4892C7.23954 34.2245 7.25073 33.2884 7.33553 32.589C7.42046 31.8886 7.57629 31.4579 7.85429 31.1792C8.13187 30.9009 8.55707 30.7483 9.24765 30.6706C9.93749 30.5929 10.8598 30.5927 12.1067 30.5927C13.3496 30.5927 14.2692 30.5929 14.9562 30.6682C15.6444 30.7437 16.0662 30.8919 16.3388 31.1608C16.611 31.4293 16.7609 31.8445 16.8373 32.5227C16.9136 33.2001 16.9138 34.1069 16.9138 35.3333C16.9138 36.6219 16.9136 37.5756 16.8346 38.2881C16.7555 39.0018 16.6001 39.4405 16.3168 39.7246C16.0335 40.0086 15.5961 40.1643 14.8844 40.2436C14.1737 40.3227 13.2225 40.323 11.9371 40.323C10.7203 40.323 9.81592 40.3183 9.13857 40.2362C8.46056 40.154 8.04113 39.9971 7.76919 39.7184C7.4969 39.4393 7.34696 39.0119 7.27436 38.324C7.20186 37.637 7.2089 36.7211 7.22471 35.4894ZM14.406 33.3288V33.1788H14.256H9.96536H9.81536V33.3288V37.5315V37.6815H9.96536H14.256H14.406V37.5315V33.3288Z" fill="white" stroke="#D03B48" stroke-width="0.3"/>
<path d="M82.552 30.6006L82.5528 30.6006C83.1511 30.5927 83.7377 30.5927 84.3294 30.5927C85.5851 30.5927 86.5141 30.5929 87.2081 30.6708C87.903 30.7487 88.3292 30.9018 88.6051 31.1803C88.8812 31.4592 89.0331 31.8902 89.1103 32.5924C89.1875 33.2933 89.1877 34.2316 89.1877 35.4993C89.1877 36.7434 89.1875 37.6639 89.1124 38.3516C89.0372 39.0406 88.8895 39.4629 88.6214 39.7358C88.3539 40.0081 87.9404 40.1581 87.2645 40.2345C86.5895 40.3109 85.6857 40.3111 84.4634 40.3111C83.185 40.3111 82.239 40.3109 81.5318 40.2317C80.8237 40.1525 80.3879 39.9968 80.1045 39.7127C79.8209 39.4284 79.6639 38.9893 79.5814 38.2756C79.4991 37.5631 79.4937 36.6094 79.4868 35.321V35.3184V35.3153V35.3122V35.3091V35.306V35.3029V35.2999V35.2968V35.2937V35.2906V35.2875V35.2845V35.2814V35.2783V35.2752V35.2721V35.2691V35.266V35.2629V35.2598V35.2567V35.2537V35.2506V35.2475V35.2444V35.2413V35.2382V35.2352V35.2321V35.229V35.2259V35.2228V35.2198V35.2167V35.2136V35.2105V35.2074V35.2044V35.2013V35.1982V35.1951V35.192V35.1889V35.1859V35.1828V35.1797V35.1766V35.1735V35.1705V35.1674V35.1643V35.1612V35.1581V35.1551V35.152V35.1489V35.1458V35.1427V35.1396V35.1366V35.1335V35.1304V35.1273V35.1242V35.1212V35.1181V35.115V35.1119V35.1088V35.1058V35.1027V35.0996V35.0965V35.0934V35.0903V35.0873V35.0842V35.0811V35.078V35.0749V35.0719V35.0688V35.0657V35.0626V35.0595V35.0564V35.0534V35.0503V35.0472V35.0441V35.041V35.038V35.0349V35.0318V35.0287V35.0256V35.0225V35.0195V35.0164V35.0133V35.0102V35.0071V35.0041V35.001V34.9979V34.9948V34.9917V34.9886V34.9856V34.9825V34.9794V34.9763V34.9732V34.9702V34.9671V34.964V34.9609V34.9578V34.9547V34.9517V34.9486V34.9455V34.9424V34.9393V34.9363V34.9332V34.9301V34.927V34.9239V34.9208V34.9178V34.9147V34.9116V34.9085V34.9054V34.9023V34.8993V34.8962V34.8931V34.89V34.8869V34.8838V34.8808V34.8777V34.8746V34.8715V34.8684V34.8653V34.8623V34.8592V34.8561V34.853V34.8499V34.8469V34.8438V34.8407V34.8376V34.8345V34.8314V34.8284V34.8253V34.8222V34.8191V34.816V34.8129V34.8099V34.8068V34.8037V34.8006V34.7975V34.7944V34.7913V34.7883V34.7852V34.7821V34.779V34.7759V34.7728V34.7698V34.7667V34.7636V34.7605V34.7574V34.7543V34.7513V34.7482V34.7451V34.742V34.7389V34.7358V34.7328V34.7297V34.7266V34.7235V34.7204V34.7173V34.7142V34.7112V34.7081V34.705V34.7019V34.6988V34.6957V34.6927V34.6896V34.6865V34.6834V34.6803V34.6772V34.6741V34.6711V34.668V34.6649V34.6618V34.6587V34.6556V34.6526V34.6495V34.6464V34.6433V34.6402V34.6371V34.634V34.631V34.6279V34.6248V34.6217V34.6186V34.6155V34.6124V34.6094V34.6063V34.6032V34.6001V34.597V34.5939V34.5908V34.5878V34.5847V34.5816V34.5785V34.5754V34.5723V34.5692V34.5662V34.5631V34.56V34.5569V34.5538V34.5507V34.5476V34.5445V34.5415V34.5384V34.5353V34.5322V34.5291V34.526V34.5229V34.5199V34.5168V34.5137V34.5106V34.5075V34.5044V34.5013V34.4982V34.4952V34.4921V34.489V34.4859V34.4828V34.4797V34.4766V34.4735V34.4705V34.4674V34.4643V34.4612V34.4581V34.455V34.4519V34.4488V34.4458V34.4427V34.4396V34.4365V34.4334V34.4303V34.4272V34.4241V34.421V34.418V34.4149V34.4118V34.4087V34.4056V34.4025V34.3994V34.3963V34.3932V34.3902V34.3871V34.384V34.3809V34.3778V34.3747V34.3716V34.3685V34.3654V34.3624V34.3593V34.3562V34.3531V34.35V34.3469V34.3438V34.3407V34.3376V34.3345V34.3315V34.3284V34.3253V34.3222V34.3191V34.316V34.3129V34.3098V34.3067V34.3036V34.3005V34.2975V34.2944V34.2913V34.2882V34.2851V34.282V34.2789V34.2758V34.2727V34.2696V34.2665V34.2635V34.2604V34.2573V34.2542V34.2511V34.248V34.2449V34.2418V34.2387V34.2356V34.2325V34.2294V34.2264V34.2233V34.2202V34.2171V34.214V34.2109V34.2078V34.2047V34.2016V34.1985V34.1954V34.1923V34.1892V34.1862V34.1831V34.18V34.1769V34.1738V34.1707V34.1676V34.1645V34.1614V34.1583V34.1552V34.1521V34.149V34.1459V34.1428V34.1397V34.1367V34.1336V34.1305V34.1274V34.1243V34.1212V34.1181V34.115V34.1119V34.1088V34.1057V34.1026V34.0995V34.0964V34.0933V34.0902V34.0871V34.084V34.081V34.0779V34.0748V34.0717V34.0686V34.0655V34.0624V34.0593V34.0562V34.0531V34.05V34.0469V34.0438V34.0407V34.0376V34.0345V34.0314V34.0283V34.0252V34.0221V34.019V34.0159V34.0128V34.0097V34.0066V34.0035V34.0004V33.9974V33.9943V33.9912V33.9881V33.985V33.9819V33.9788V33.9757V33.9726V33.9695V33.9664V33.9633V33.9602V33.9571V33.954V33.9509V33.9478V33.9447V33.9416V33.9385V33.9354V33.9323V33.9292V33.9261V33.923V33.9199V33.9168V33.9137V33.9106V33.9075V33.9044V33.9013V33.8982V33.8951V33.892V33.8889V33.8858V33.8827V33.8796V33.8765V33.8734V33.8703V33.8672V33.8641V33.861V33.8579V33.8548V33.8517V33.8486V33.8455V33.8424V33.8393V33.8362V33.8331V33.83V33.8269V33.8238V33.8207V33.8176V33.8145V33.8114V33.8083V33.8052V33.8021V33.799V33.7959V33.7928V33.7897V33.7866V33.7834V33.7803V33.7772V33.7741V33.771V33.7679V33.7648V33.7617V33.7586V33.7555V33.7524V33.7493V33.7462V33.7431V33.74C79.4868 32.4328 79.655 31.6736 80.0926 31.2278C80.5295 30.7826 81.274 30.6105 82.552 30.6006ZM86.6247 33.3367V33.1867H86.4747H82.2077H82.0577V33.3367V37.5948V37.7448H82.2077H86.4747H86.6247V37.5948V33.3367Z" fill="white" stroke="#CF3A47" stroke-width="0.3"/>
</svg>
