<svg width="64" height="64" viewBox="0 0 64 64" fill="none" xmlns="http://www.w3.org/2000/svg">
<path d="M13.8042 47.978C14.322 47.978 14.7417 47.5583 14.7417 47.0405C14.7417 46.5228 14.322 46.103 13.8042 46.103C13.2864 46.103 12.8667 46.5228 12.8667 47.0405C12.8667 47.5583 13.2864 47.978 13.8042 47.978Z" fill="white"/>
<path d="M21.0635 47.978C21.5812 47.978 22.001 47.5583 22.001 47.0405C22.001 46.5228 21.5812 46.103 21.0635 46.103C20.5457 46.103 20.126 46.5228 20.126 47.0405C20.126 47.5583 20.5457 47.978 21.0635 47.978Z" fill="white"/>
<path d="M28.3219 47.978C28.8397 47.978 29.2594 47.5583 29.2594 47.0405C29.2594 46.5228 28.8397 46.103 28.3219 46.103C27.8041 46.103 27.3844 46.5228 27.3844 47.0405C27.3844 47.5583 27.8041 47.978 28.3219 47.978Z" fill="white"/>
<path d="M35.5803 47.978C36.098 47.978 36.5178 47.5583 36.5178 47.0405C36.5178 46.5228 36.098 46.103 35.5803 46.103C35.0625 46.103 34.6428 46.5228 34.6428 47.0405C34.6428 47.5583 35.0625 47.978 35.5803 47.978Z" fill="white"/>
<path d="M42.8389 47.978C43.3567 47.978 43.7764 47.5583 43.7764 47.0405C43.7764 46.5228 43.3567 46.103 42.8389 46.103C42.3212 46.103 41.9014 46.5228 41.9014 47.0405C41.9014 47.5583 42.3212 47.978 42.8389 47.978Z" fill="white"/>
<path d="M50.0986 47.978C50.6163 47.978 51.0361 47.5583 51.0361 47.0405C51.0361 46.5228 50.6163 46.103 50.0986 46.103C49.5808 46.103 49.1611 46.5228 49.1611 47.0405C49.1611 47.5583 49.5808 47.978 50.0986 47.978Z" fill="white"/>
<path d="M57.357 47.978C57.8748 47.978 58.2945 47.5583 58.2945 47.0405C58.2945 46.5228 57.8748 46.103 57.357 46.103C56.8392 46.103 56.4195 46.5228 56.4195 47.0405C56.4195 47.5583 56.8392 47.978 57.357 47.978Z" fill="white"/>
<path d="M59.6735 42.002V34.642C59.6735 33.6581 58.8732 32.8577 57.8894 32.8577H50.007C49.0232 32.8577 48.2228 33.6581 48.2228 34.642V41.9335H43.7767V34.642C43.7767 33.6581 42.9763 32.8577 41.9925 32.8577H34.1102C33.1264 32.8577 32.326 33.6581 32.326 34.642V41.9335H9.53915V32.648C9.53915 30.8709 8.0934 29.4251 6.3164 29.4251H4.87478C3.09778 29.4251 1.65203 30.8709 1.65203 32.648V46.8161C0.661279 47.8186 0.0482788 49.1952 0.0482788 50.7127V62.1157C0.0482788 62.9984 0.766279 63.7164 1.6489 63.7164H16.8187C17.3364 63.7164 17.7562 63.2966 17.7562 62.7789C17.7562 62.2611 17.3364 61.8414 16.8187 61.8414H11.1429V52.1476H60.042V61.8414H20.5688C20.051 61.8414 19.6313 62.2611 19.6313 62.7789C19.6313 63.2966 20.051 63.7164 20.5688 63.7164H60.3164C61.199 63.7164 61.917 62.9984 61.917 62.1157V51.2101C61.917 51.1797 61.9153 51.1497 61.9125 51.1201C63.1497 50.1872 63.9512 48.7059 63.9512 47.0406C63.951 44.5071 62.0963 42.3996 59.6735 42.002ZM50.0978 34.7329H57.7985V41.9336H50.0978V34.7329ZM34.2009 34.7329H41.9015V41.9336H34.2009V34.7329ZM4.87478 31.3001H6.31628C7.0594 31.3001 7.66403 31.9047 7.66403 32.648V45.5671C7.02428 45.309 6.32653 45.1655 5.59553 45.1655C4.86453 45.1655 4.16665 45.309 3.52703 45.5671V32.648C3.52703 31.9049 4.13165 31.3001 4.87478 31.3001ZM1.9234 50.7129C1.9234 48.688 3.57078 47.0406 5.59565 47.0406C7.62053 47.0406 9.2679 48.688 9.2679 50.7129V61.8414H1.9234V50.7129ZM58.8439 50.2726H11.1238C11.0178 48.9302 10.433 47.7207 9.53915 46.8162V43.8086H58.407H58.8439C60.626 43.8086 62.0759 45.2585 62.0759 47.0406C62.076 48.8227 60.626 50.2726 58.8439 50.2726Z" fill="white"/>
<path d="M61.8271 0.283813H2.17287C0.97475 0.283813 0 1.25869 0 2.45681V5.82506C0 7.02319 0.97475 7.99794 2.17287 7.99794H17.018V15.2171C17.018 16.7873 18.2601 18.0724 19.8132 18.1426V20.9493L15.553 22.8166C15.2121 22.9661 14.9919 23.3029 14.9919 23.6752V34.2827C14.9919 35.2666 15.7922 36.0669 16.7761 36.0669H24.6584C25.6423 36.0669 26.4426 35.2666 26.4426 34.2827V23.6752C26.4426 23.3029 26.2224 22.9659 25.8815 22.8166L21.6882 20.9787V18.1426C23.2415 18.0724 24.4835 16.7873 24.4835 15.2171V7.99794H42.8394C43.3573 7.99794 43.7769 7.57819 43.7769 7.06044C43.7769 6.54269 43.3573 6.12294 42.8394 6.12294H24.4836V2.15894H61.8271C61.9915 2.15894 62.1251 2.29256 62.1251 2.45681V5.82506C62.1251 5.98931 61.9915 6.12294 61.8271 6.12294H47.3394C46.8216 6.12294 46.4019 6.54269 46.4019 7.06044C46.4019 7.57819 46.8216 7.99794 47.3394 7.99794H61.827C63.0252 7.99794 64 7.02319 64 5.82506V2.45681C64 1.25869 63.0254 0.283813 61.8271 0.283813ZM2.17287 6.12294C2.00863 6.12294 1.875 5.98931 1.875 5.82506V2.45681C1.875 2.29256 2.00863 2.15894 2.17287 2.15894H17.018V6.12294H2.17287ZM24.5678 34.1919H16.867V26.9912H24.5678V34.1919ZM24.5678 25.1162H16.867V24.2879L20.7174 22.6003L24.5678 24.2879V25.1162ZM22.6086 15.2171C22.6086 15.7982 22.1359 16.2709 21.5548 16.2709H19.9469C19.3657 16.2709 18.893 15.7982 18.893 15.2171V2.15894H22.6086V15.2171Z" fill="white"/>
</svg>
