<svg width="62" height="62" viewBox="0 0 62 62" fill="none" xmlns="http://www.w3.org/2000/svg">
<path d="M59.9423 25.2401L52.123 21.3304L51.036 18.882L52.0802 18.1859C53.0851 17.5176 53.6887 16.3902 53.6875 15.1832V9.34375H51.625V15.1832C51.6255 15.7005 51.3669 16.1838 50.9363 16.4703L47.3269 18.8765C46.8075 19.224 46.13 19.224 45.6106 18.8765L42.0012 16.4702C41.5706 16.1836 41.312 15.7005 41.3125 15.1832V13.4688H41.9778C43.8062 13.4724 45.4834 12.4541 46.3237 10.8303L48.1693 7.28125H52.4416C53.7224 7.2797 54.7604 6.24175 54.7619 4.96094V3.21825C54.7652 2.08182 53.9422 1.11141 52.8205 0.929137L47.831 0.103234C47.7374 0.0761641 47.6405 0.0625 47.5432 0.0625H45.4807C45.3216 0.0625 45.1647 0.0992382 45.0223 0.170008L39.9516 2.68626C38.2801 3.50816 37.2239 5.2114 37.2307 7.0741V12.4375C37.2307 13.007 37.6924 13.4688 38.2619 13.4688H39.25V15.1832C39.2486 16.3904 39.852 17.5181 40.8572 18.1867L41.8498 18.8488L40.5402 21.468L36.7258 23.3758L37.6482 25.2205L40.9369 23.575L41.361 24.2546C42.471 26.041 44.415 27.1381 46.518 27.1648H46.6115C48.6814 27.1685 50.615 26.133 51.7591 24.408L52.236 23.692L59.02 27.084C59.5456 27.3446 59.8773 27.8816 59.875 28.4684V43.375H47.5V39.25H55.75V37.1875H45.3019L48.358 32.6033L46.642 31.4592L42.8058 37.2135C39.6245 37.5114 37.1914 40.1798 37.1875 43.375H22.75V41.3125H32.8047C34.0855 41.311 35.1235 40.273 35.125 38.9922V21.9766C35.1235 20.6957 34.0855 19.6578 32.8047 19.6562H21.4308L20.7313 17.5579C22.9912 15.825 23.4184 12.5884 21.6855 10.3286C19.9526 8.06874 16.716 7.64154 14.4562 9.37443C12.1963 11.1073 11.7691 14.3439 13.502 16.6038C13.7768 16.9622 14.0977 17.2831 14.4562 17.5579L13.7567 19.6562H2.38281C1.102 19.6578 0.0640469 20.6957 0.0625 21.9766V24.8125H2.125V21.9766C2.125 21.8341 2.24037 21.7188 2.38281 21.7188H32.8047C32.9471 21.7188 33.0625 21.8341 33.0625 21.9766V38.9922C33.0625 39.1346 32.9471 39.25 32.8047 39.25H22.3919L20.6709 29.7843C20.5817 29.2939 20.1546 28.9375 19.6562 28.9375H15.5312C15.0329 28.9375 14.6058 29.2939 14.5166 29.7843L12.7956 39.25H2.38281C2.24037 39.25 2.125 39.1346 2.125 38.9922V26.875H0.0625V38.9922C0.0640469 40.273 1.102 41.311 2.38281 41.3125H12.4375V43.375H1.09375C0.524242 43.375 0.0625 43.8367 0.0625 44.4062V48.5312C0.0625 49.1008 0.524242 49.5625 1.09375 49.5625H2.125V60.9062C2.125 61.4758 2.58674 61.9375 3.15625 61.9375H58.8438C59.4133 61.9375 59.875 61.4758 59.875 60.9062V55.75H57.8125V59.875H4.1875V49.5625H57.8125V53.6875H59.875V49.5625H60.9062C61.4758 49.5625 61.9375 49.1008 61.9375 48.5312V28.4684C61.9421 27.0999 61.1683 25.8479 59.9423 25.2401ZM52.6994 3.21825V4.96094C52.6994 5.10338 52.5841 5.21875 52.4416 5.21875H48.5744V2.31694L52.4838 2.96392C52.6084 2.98416 52.6998 3.09205 52.6994 3.21825ZM39.2932 7.0741C39.2893 5.99567 39.9008 5.00954 40.8685 4.53374L45.7225 2.125H46.4688V6.081L44.4939 9.87871C44.0074 10.8188 43.0364 11.4083 41.9778 11.4062H39.2932V7.0741ZM50.0425 23.2656C48.7793 25.1614 46.2183 25.6742 44.3225 24.411C43.8343 24.0857 43.4213 23.6601 43.1106 23.1625L42.4934 22.1738L43.5798 20.0009L44.4666 20.5922C45.6782 21.4031 47.2593 21.4031 48.4709 20.5922L49.2948 20.043L50.4523 22.6504L50.0425 23.2656ZM17.5938 10.375C19.3024 10.375 20.6875 11.7601 20.6875 13.4688C20.6875 15.1774 19.3024 16.5625 17.5938 16.5625C15.8851 16.5625 14.5 15.1774 14.5 13.4688C14.5019 11.7609 15.8859 10.3769 17.5938 10.375ZM15.9309 19.6562L16.2745 18.625H18.913L19.2566 19.6562H15.9309ZM43.375 39.25H45.4375V43.375H39.25C39.2526 41.0979 41.0979 39.2526 43.375 39.25ZM14.5 41.4054L16.392 31H18.7955L20.6875 41.4054V43.375H14.5V41.4054ZM59.875 47.5H2.125V45.4375H59.875V47.5Z" fill="white"/>
<path d="M16.5625 12.4375H18.625V14.5H16.5625V12.4375Z" fill="white"/>
<path d="M15.5312 24.8125H19.6562V26.875H15.5312V24.8125Z" fill="white"/>
</svg>
