<svg width="22" height="22" viewBox="0 0 22 22" fill="none" xmlns="http://www.w3.org/2000/svg">
<path d="M9.10996 12.89C7.0101 10.7902 6.53596 8.69031 6.429 7.849C6.39911 7.61637 6.47916 7.38309 6.64558 7.21782L8.34489 5.51927C8.59486 5.26946 8.63923 4.88013 8.45186 4.58048L5.74624 0.379239C5.53895 0.0474371 5.11334 -0.0723136 4.76345 0.102722L0.419964 2.14834C0.13702 2.28767 -0.0294028 2.58829 0.00272223 2.90203C0.230308 5.0641 1.17289 10.379 6.396 15.6025C11.6191 20.826 16.9332 21.7682 19.0964 21.9958C19.4102 22.0279 19.7108 21.8615 19.8501 21.5785L21.8958 17.235C22.0701 16.8859 21.9512 16.4614 21.6208 16.2538L17.4195 13.5489C17.12 13.3613 16.7307 13.4054 16.4807 13.6551L14.7822 15.3544C14.6169 15.5208 14.3836 15.6009 14.151 15.571C13.3097 15.464 11.2098 14.9899 9.10996 12.89Z" fill="white"/>
<path d="M17.4484 11.7587C17.0294 11.7587 16.6897 11.4191 16.6897 11.0001C16.6862 7.85928 14.1409 5.31401 11.0001 5.31046C10.5811 5.31046 10.2415 4.97081 10.2415 4.55183C10.2415 4.13286 10.5811 3.79321 11.0001 3.79321C14.9785 3.7976 18.2026 7.02168 18.207 11.0001C18.207 11.4191 17.8673 11.7587 17.4484 11.7587Z" fill="white"/>
<path d="M21.2415 11.7586C20.8225 11.7586 20.4828 11.419 20.4828 11C20.477 5.76524 16.2348 1.52309 11.0001 1.51724C10.5811 1.51724 10.2415 1.1776 10.2415 0.758621C10.2415 0.339646 10.5811 0 11.0001 0C17.0724 0.00668947 21.9934 4.92764 22.0001 11C22.0001 11.2012 21.9202 11.3942 21.7779 11.5364C21.6356 11.6787 21.4427 11.7586 21.2415 11.7586Z" fill="white"/>
</svg>
