<svg width="64" height="64" viewBox="0 0 64 64" fill="none" xmlns="http://www.w3.org/2000/svg">
<path d="M31.9997 6.5C38.4535 6.5 44.6116 8.91586 49.3396 13.3028L50.785 11.745C45.6627 6.99234 38.9914 4.375 31.9997 4.375C26.4533 4.375 21.1037 6.01245 16.5289 9.11016L17.7205 10.8697C21.9421 8.01101 26.8798 6.5 31.9997 6.5Z" fill="white"/>
<path d="M43.584 54.7234C39.9772 56.5659 36.0799 57.5001 31.9999 57.5001C25.5461 57.5001 19.388 55.0842 14.66 50.6973L13.2146 52.255C18.3369 57.0077 25.0082 59.6251 31.9999 59.6251C36.4191 59.6251 40.6418 58.6125 44.5508 56.6157C48.2784 54.7114 51.581 51.9312 54.1013 48.5757L52.4023 47.2995C50.0749 50.398 47.0255 52.9652 43.584 54.7234Z" fill="white"/>
<path d="M31.9997 16.0625C35.6635 16.0625 39.1078 17.2711 41.9603 19.5576L43.2894 17.8996C40.1021 15.3446 36.0926 13.9375 31.9997 13.9375C25.4381 13.9375 19.3824 17.505 16.1956 23.2481L18.0536 24.2792C20.866 19.211 26.2098 16.0625 31.9997 16.0625Z" fill="white"/>
<path d="M25.0279 46.3358L24.097 48.246C26.5704 49.4513 29.2293 50.0625 32.0001 50.0625C34.7708 50.0625 37.4297 49.4513 39.9029 48.246L38.972 46.3358C36.7913 47.3986 34.4455 47.9375 32.0001 47.9375C29.5546 47.9375 27.2088 47.3986 25.0279 46.3358Z" fill="white"/>
<path d="M15 18.6468V0.125H12.875V12.875H8.625V0.125H6.5V12.875H2.25V0.125H0.125V18.1854C0.125 19.8906 0.630617 22.4626 1.27595 24.0409L3.3125 29.0213V33.0625H5.4375V28.8125C5.4375 28.6746 5.41067 28.5381 5.35848 28.4103L3.24291 23.2366C2.70462 21.9205 2.25 19.6074 2.25 18.1854V15H12.875V18.6468C12.875 20.0621 12.3983 22.3545 11.8341 23.6525L9.77555 28.389C9.71752 28.5226 9.6875 28.6668 9.6875 28.8125V59.625C9.6875 60.7967 8.73417 61.75 7.5625 61.75C6.39083 61.75 5.4375 60.7967 5.4375 59.625V35.1875H3.3125V59.625C3.3125 61.9685 5.21902 63.875 7.5625 63.875C9.90598 63.875 11.8125 61.9685 11.8125 59.625V29.0334L13.783 24.4995C14.4654 22.9296 15 20.3589 15 18.6468Z" fill="white"/>
<path d="M63.875 39.4375V1.1875C63.875 0.600734 63.3993 0.125 62.8125 0.125C56.9539 0.125 52.1875 4.89138 52.1875 10.75V35.7188C52.1875 37.5889 53.5753 39.1412 55.375 39.3996V59.625C55.375 61.9685 57.2815 63.875 59.625 63.875C61.9685 63.875 63.875 61.9685 63.875 59.625V41.5625H61.75V59.625C61.75 60.7967 60.7967 61.75 59.625 61.75C58.4533 61.75 57.5 60.7967 57.5 59.625V38.375C57.5 37.7882 57.0243 37.3125 56.4375 37.3125H55.9062C55.0274 37.3125 54.3125 36.5976 54.3125 35.7188V10.75C54.3125 6.42297 57.5628 2.84062 61.75 2.31601V39.4375H63.875Z" fill="white"/>
<path d="M57.5 5.4375H59.625V16.0625H57.5V5.4375Z" fill="white"/>
<path d="M57.5 18.1875H59.625V20.3125H57.5V18.1875Z" fill="white"/>
<path d="M15 43.4219C15 44.7401 16.0725 45.8126 17.3906 45.8126H46.6094C47.9275 45.8126 49 44.7401 49 43.4219V36.25H46.875V43.4219C46.875 43.5684 46.7559 43.6876 46.6094 43.6876H44.0001L34.7005 37.6944L33.5494 39.4806L40.0774 43.6876H17.3906C17.2441 43.6876 17.125 43.5684 17.125 43.4219V29.6267L31.4533 38.2236L32.5465 36.4013L28.7651 34.1325L46.875 21.3048V34.1251H49V19.25C49 18.8528 48.7785 18.4888 48.4256 18.3063C48.0727 18.1241 47.6476 18.1537 47.3234 18.383L34.7339 27.3006L28.5268 20.6502C28.2846 20.3908 27.9288 20.2695 27.5785 20.3265C27.2282 20.3839 26.9298 20.6123 26.7829 20.9354L22.4943 30.37L16.6092 26.839C16.281 26.6423 15.872 26.6371 15.5391 26.8254C15.206 27.014 15 27.3673 15 27.75V43.4219ZM28.0589 23.2632L32.984 28.5402L26.7748 32.9384L24.3284 31.4705L28.0589 23.2632Z" fill="white"/>
</svg>
