<svg width="68" height="62" viewBox="0 0 68 62" fill="none" xmlns="http://www.w3.org/2000/svg">
<path d="M49.3784 46.5665V37.7832C49.3784 36.2124 48.1004 34.9344 46.5296 34.9344C44.9588 34.9344 43.6808 36.2124 43.6808 37.7832V46.5665C43.6808 48.1372 44.9587 49.4153 46.5296 49.4153C48.1005 49.4153 49.3784 48.1372 49.3784 46.5665ZM45.6731 46.5665V37.7832C45.6731 37.3109 46.0575 36.9266 46.5297 36.9266C47.0022 36.9266 47.3864 37.3109 47.3864 37.7832V46.5665C47.3864 47.0387 47.002 47.4231 46.5297 47.4231C46.0573 47.423 45.6731 47.0387 45.6731 46.5665Z" fill="white"/>
<path d="M36.8484 46.5665V37.7832C36.8484 36.2124 35.5705 34.9344 33.9996 34.9344C32.4287 34.9344 31.1508 36.2124 31.1508 37.7832V46.5665C31.1508 48.1372 32.4287 49.4153 33.9996 49.4153C35.5705 49.4153 36.8484 48.1372 36.8484 46.5665ZM33.1429 46.5665V37.7832C33.1429 37.3109 33.5273 36.9266 33.9996 36.9266C34.4719 36.9266 34.8562 37.3109 34.8562 37.7832V46.5665C34.8562 47.0387 34.4719 47.4231 33.9996 47.4231C33.5273 47.4231 33.1429 47.0387 33.1429 46.5665Z" fill="white"/>
<path d="M24.3184 46.5665V37.7832C24.3184 36.2124 23.0405 34.9344 21.4696 34.9344C19.8986 34.9344 18.6207 36.2124 18.6207 37.7832V46.5665C18.6207 48.1372 19.8988 49.4153 21.4696 49.4153C23.0403 49.4153 24.3184 48.1372 24.3184 46.5665ZM20.613 46.5665V37.7832C20.613 37.3109 20.9974 36.9266 21.4697 36.9266C21.942 36.9266 22.3263 37.3109 22.3263 37.7832V46.5665C22.3263 47.0387 21.942 47.4231 21.4697 47.4231C20.9973 47.423 20.613 47.0387 20.613 46.5665Z" fill="white"/>
<path d="M65.5617 21.5454H50.9267L47.0413 13.3698C46.8052 12.873 46.211 12.6615 45.7141 12.8977C45.2173 13.1338 45.0058 13.728 45.242 14.2249L48.721 21.5454H46.2795L37.8279 3.7683C37.7014 3.50268 37.6863 3.20372 37.785 2.92627C37.8838 2.64883 38.0844 2.42663 38.3511 2.30006C38.6172 2.17349 38.9165 2.15808 39.1941 2.25676C39.4711 2.35531 39.6931 2.55572 39.8192 2.82161L43.2006 9.93371C43.4368 10.4306 44.0311 10.642 44.528 10.4056C45.0248 10.1695 45.2361 9.57512 44.9998 9.07827L41.6187 1.9667C41.2645 1.2203 40.6404 0.656642 39.8617 0.379596C39.0827 0.102417 38.2421 0.145448 37.4961 0.500455C36.7493 0.854798 36.1855 1.47902 35.9082 2.25796C35.6307 3.03717 35.6736 3.87747 36.0288 4.62374L44.0736 21.5451H23.9263L31.971 4.62414C32.3262 3.87747 32.3691 3.03717 32.0917 2.25809C31.8144 1.47915 31.2506 0.855064 30.5047 0.500986C29.7578 0.145581 28.9173 0.102417 28.1381 0.379729C27.3593 0.656642 26.7354 1.22043 26.3814 1.96617L17.0733 21.5451H2.43817C1.09371 21.5454 0 22.6391 0 23.9834V26.714C0 28.0585 1.09371 29.1522 2.43817 29.1522H5.23665L6.43648 38.7469C6.49957 39.2508 6.92855 39.6195 7.42367 39.6195C7.46485 39.6195 7.50655 39.6168 7.54852 39.6117C8.09437 39.5434 8.48152 39.0455 8.41326 38.4996L7.24424 29.1522H38.126C38.6761 29.1522 39.1221 28.7062 39.1221 28.1561C39.1221 27.606 38.6761 27.16 38.126 27.16H2.43817C2.1922 27.16 1.99218 26.96 1.99218 26.714V23.9834C1.99218 23.7374 2.1922 23.5374 2.43817 23.5374H65.5617C65.8077 23.5374 66.0077 23.7374 66.0077 23.9834V26.714C66.0077 26.96 65.8077 27.16 65.5617 27.16H42.7744C42.2243 27.16 41.7783 27.606 41.7783 28.1561C41.7783 28.7062 42.2243 29.1522 42.7744 29.1522H60.7556L57.5631 54.6815C57.5263 54.9756 57.275 55.1974 56.9786 55.1974H11.0214C10.725 55.1974 10.4737 54.9756 10.4369 54.6815L8.99139 43.1226C8.92326 42.5767 8.42601 42.1891 7.87935 42.2578C7.33349 42.3261 6.94635 42.8239 7.01461 43.3699L8.46014 54.9286C8.62137 56.2176 9.72252 57.1895 11.0214 57.1895H11.4743V58.7964C11.4743 60.2508 12.6575 61.4342 14.112 61.4342H21.0665C21.956 61.4342 22.7793 60.9908 23.2688 60.2483L25.2853 57.1896H42.7147L44.7312 60.2483C45.2207 60.9908 46.044 61.4342 46.9335 61.4342H53.888C55.3425 61.4342 56.5257 60.2508 56.5257 58.7964V57.1895H56.9786C58.2775 57.1895 59.3786 56.2176 59.5399 54.9286L62.7633 29.1522H65.5618C66.9063 29.1522 68 28.0585 68 26.714V23.9834C67.9999 22.6391 66.9062 21.5454 65.5617 21.5454ZM28.1809 2.82108C28.3068 2.55572 28.5287 2.35531 28.8058 2.25676C29.0834 2.15795 29.3826 2.17349 29.6497 2.30046C29.9154 2.42663 30.1162 2.64896 30.2149 2.92627C30.3137 3.20358 30.2985 3.50268 30.1719 3.76857L21.7204 21.5452H19.2792L28.1809 2.82108ZM21.6055 59.1518C21.4857 59.3335 21.2842 59.442 21.0665 59.442H14.112C13.756 59.442 13.4665 59.1523 13.4665 58.7964V57.1895H22.8992L21.6055 59.1518ZM54.5334 58.7965C54.5334 59.1525 54.2438 59.4421 53.8879 59.4421H46.9333C46.7156 59.4421 46.5142 59.3336 46.3944 59.1519L45.1008 57.1898H54.5335V58.7965H54.5334Z" fill="white"/>
</svg>
