<svg width="64" height="64" viewBox="0 0 64 64" fill="none" xmlns="http://www.w3.org/2000/svg">
<path d="M59 6C59.553 6 60 5.553 60 5V1C60 0.447 59.553 0 59 0H5C4.447 0 4 0.447 4 1V5C4 5.553 4.447 6 5 6H8V44H5C4.447 44 4 44.447 4 45V49C4 49.553 4.447 50 5 50H12V62H8V64H13H17H29V62H18V50H46V62H35V64H47H51H56V62H52V50H59C59.553 50 60 49.553 60 49V45C60 44.447 59.553 44 59 44H56V6H59ZM16 62H14V50H16V62ZM50 62H48V50H50V62ZM58 46V48H51H47H17H13H6V46H9H55H58ZM10 44V6H54V44H10ZM55 4H9H6V2H58V4H55Z" fill="white"/>
<path d="M36 18H28V20H36V18Z" fill="white"/>
<path d="M46 10H38V12H46V10Z" fill="white"/>
<path d="M50 10H48V12H50V10Z" fill="white"/>
<path d="M42 14H38V16H42V14Z" fill="white"/>
<path d="M50 14H44V16H50V14Z" fill="white"/>
<path d="M46 18H38V20H46V18Z" fill="white"/>
<path d="M50 18H48V20H50V18Z" fill="white"/>
<path d="M49 22H15C14.447 22 14 22.447 14 23V39C14 39.553 14.447 40 15 40H49C49.553 40 50 39.553 50 39V23C50 22.447 49.553 22 49 22ZM48 38H16V24H48V38Z" fill="white"/>
<path d="M25 10H15C14.447 10 14 10.447 14 11V19C14 19.553 14.447 20 15 20H25C25.553 20 26 19.553 26 19V11C26 10.447 25.553 10 25 10ZM24 18H16V12H24V18Z" fill="white"/>
<path d="M30 10H28V12H30V10Z" fill="white"/>
<path d="M36 10H32V12H36V10Z" fill="white"/>
<path d="M36 14H34V16H36V14Z" fill="white"/>
<path d="M32 14H28V16H32V14Z" fill="white"/>
<path d="M60 62H58V64H60V62Z" fill="white"/>
<path d="M6 62H4V64H6V62Z" fill="white"/>
<path d="M33 62H31V64H33V62Z" fill="white"/>
</svg>
