<svg width="76" height="61" viewBox="0 0 76 61" fill="none" xmlns="http://www.w3.org/2000/svg">
<path d="M36.6304 56.9012C38.5739 56.9012 40.155 55.3201 40.155 53.3767C40.155 51.4332 38.5739 49.8521 36.6304 49.8521C34.687 49.8521 33.1058 51.4332 33.1058 53.3767C33.1058 55.3201 34.687 56.9012 36.6304 56.9012ZM36.6304 52.0787C37.3462 52.0787 37.9285 52.6611 37.9285 53.3768C37.9285 54.0926 37.3462 54.6749 36.6304 54.6749C35.9147 54.6749 35.3324 54.0926 35.3324 53.3768C35.3324 52.6611 35.9147 52.0787 36.6304 52.0787Z" fill="white"/>
<path d="M57.5768 53.3767C57.5768 55.3201 59.1579 56.9012 61.1014 56.9012C63.0448 56.9012 64.6259 55.3201 64.6259 53.3767C64.6259 51.4332 63.0448 49.8521 61.1014 49.8521C59.1578 49.8521 57.5768 51.4332 57.5768 53.3767ZM62.3993 53.3767C62.3993 54.0924 61.817 54.6747 61.1012 54.6747C60.3855 54.6747 59.8032 54.0924 59.8032 53.3767C59.8032 52.6609 60.3855 52.0786 61.1012 52.0786C61.817 52.0786 62.3993 52.6609 62.3993 53.3767Z" fill="white"/>
<path d="M53.0983 21.7445V30.5483C53.0983 32.3996 54.6044 33.9057 56.4557 33.9057C58.307 33.9057 59.8131 32.3997 59.8131 30.5483V21.7445C59.8131 19.8932 58.3071 18.387 56.4557 18.387C54.6043 18.387 53.0983 19.8931 53.0983 21.7445ZM57.5866 21.7445V30.5483C57.5866 31.1719 57.0794 31.6792 56.4557 31.6792C55.832 31.6792 55.3248 31.1719 55.3248 30.5483V21.7445C55.3248 21.1209 55.8321 20.6136 56.4557 20.6136C57.0793 20.6136 57.5866 21.1209 57.5866 21.7445Z" fill="white"/>
<path d="M42.8052 21.7445V30.5483C42.8052 32.3996 44.3112 33.9057 46.1626 33.9057C48.014 33.9057 49.5201 32.3997 49.5201 30.5483V21.7445C49.5201 19.8932 48.014 18.387 46.1626 18.387C44.3112 18.387 42.8052 19.8931 42.8052 21.7445ZM47.2934 21.7445V30.5483C47.2934 31.1719 46.7862 31.6792 46.1625 31.6792C45.5389 31.6792 45.0315 31.1719 45.0315 30.5483V21.7445C45.0315 21.1209 45.5389 20.6136 46.1625 20.6136C46.7862 20.6136 47.2934 21.1209 47.2934 21.7445Z" fill="white"/>
<path d="M32.5142 21.7445V30.5483C32.5142 32.3996 34.0202 33.9057 35.8716 33.9057C37.723 33.9057 39.229 32.3997 39.229 30.5483V21.7445C39.229 19.8932 37.723 18.387 35.8716 18.387C34.0202 18.387 32.5142 19.8931 32.5142 21.7445ZM37.0024 21.7445V30.5483C37.0024 31.1719 36.495 31.6792 35.8714 31.6792C35.2479 31.6792 34.7405 31.1719 34.7405 30.5483V21.7445C34.7405 21.1209 35.2477 20.6136 35.8714 20.6136C36.495 20.6136 37.0024 21.1209 37.0024 21.7445Z" fill="white"/>
<path d="M69.0593 35.9238L75.82 14.8042C76.1849 13.6644 75.9895 12.4562 75.2839 11.4894C74.5782 10.5226 73.4872 9.96809 72.2902 9.96809H62.888C62.2731 9.96809 61.7747 10.4665 61.7747 11.0814C61.7747 11.6962 62.2731 12.1946 62.888 12.1946H72.2902C72.7681 12.1946 73.2037 12.4159 73.4854 12.802C73.7672 13.1879 73.8451 13.6703 73.6995 14.1254L66.9387 35.245C66.0095 38.1476 63.3376 40.0979 60.2898 40.0979H24.9624L22.8663 12.1946H57.6929C58.3077 12.1946 58.8062 11.6962 58.8062 11.0814C58.8062 10.4665 58.3077 9.96809 57.6929 9.96809H22.699L22.4402 6.52249C22.2202 3.5869 19.7419 1.2872 16.7983 1.2872H14.131C13.6261 0.629638 12.8347 0.203186 11.9435 0.203186H4.36798C1.95948 0.203334 0 2.16282 0 4.57131C0 6.97981 1.95948 8.93929 4.36798 8.93929H11.9435C12.8351 8.93929 13.627 8.51225 14.1319 7.85409H15.9561L17.3892 26.9267C17.4332 27.5114 17.9212 27.9566 18.4982 27.9566C18.5261 27.9566 18.5545 27.9555 18.5828 27.9535C19.1958 27.9073 19.6555 27.3729 19.6095 26.7599L18.1124 6.83776C18.0556 6.15912 17.4783 5.62757 16.7982 5.62757H14.7029V3.51387H16.7983C18.5835 3.51387 20.0864 4.90856 20.2199 6.68918L23.3756 48.6981C23.5292 50.7294 25.2445 52.3206 27.2808 52.3206H29.1225C29.0742 52.666 29.0474 53.0182 29.0474 53.3767C29.0474 53.7358 29.0743 54.0885 29.1227 54.4343H27.2808C24.144 54.4343 21.5034 51.9834 21.269 48.8544L19.9999 31.9581C19.9539 31.345 19.4212 30.8856 18.8063 30.9313C18.1933 30.9775 17.7336 31.5117 17.7796 32.1249L19.0487 49.021C19.3697 53.305 22.9855 56.661 27.2808 56.661H29.796C31.0222 59.2032 33.6257 60.9616 36.6321 60.9616C39.6385 60.9616 42.2421 59.2032 43.4683 56.661H54.2654C55.4916 59.2032 58.095 60.9616 61.1016 60.9616C64.1081 60.9616 66.7115 59.2032 67.9377 56.661H69.8964C71.7069 56.661 73.1798 55.1881 73.1798 53.3776C73.1798 51.5671 71.7069 50.0942 69.8964 50.0942H67.9392C67.6045 49.3979 67.1633 48.7499 66.6212 48.1747C66.1995 47.7274 65.4951 47.7065 65.0475 48.1284C64.6002 48.5501 64.5794 49.2547 65.0012 49.7021C65.9417 50.6997 66.4597 52.0047 66.4597 53.3767C66.4597 56.3312 64.0561 58.7349 61.1016 58.7349C58.1471 58.7349 55.7435 56.3313 55.7435 53.3767C55.7435 50.4221 58.1471 48.0185 61.1016 48.0185C61.7164 48.0185 62.2148 47.5201 62.2148 46.9053C62.2148 46.2904 61.7164 45.792 61.1016 45.792C58.0946 45.792 55.4907 47.551 54.2648 50.0941H43.469C42.2431 47.551 39.6393 45.792 36.6321 45.792C33.625 45.792 31.0213 47.551 29.7952 50.0941H27.2808C26.4023 50.0941 25.6621 49.4071 25.5959 48.5308L25.1297 42.3244H60.2898C64.3095 42.3244 67.8338 39.7522 69.0593 35.9238ZM11.9435 6.71278H4.36798C3.18718 6.71278 2.22652 5.75211 2.22652 4.57131C2.22652 3.39052 3.18718 2.42985 4.36798 2.42985H11.9435C12.2372 2.42985 12.4764 2.66883 12.4764 2.96273V6.1799C12.4764 6.47365 12.2372 6.71278 11.9435 6.71278ZM69.8963 52.3206C70.479 52.3206 70.9531 52.7947 70.9531 53.3774C70.9531 53.9602 70.479 54.4343 69.8963 54.4343H68.6107C68.6592 54.0885 68.686 53.7358 68.686 53.3767C68.686 53.0208 68.6607 52.6681 68.6123 52.3206H69.8963ZM53.592 52.3206C53.5436 52.666 53.5168 53.0182 53.5168 53.3767C53.5168 53.7358 53.5437 54.0885 53.5921 54.4343H44.1413C44.1898 54.0885 44.2165 53.7358 44.2165 53.3767C44.2165 53.0182 44.1898 52.666 44.1414 52.3206H53.592ZM36.6321 48.0185C39.5866 48.0185 41.9903 50.4221 41.9903 53.3767C41.9903 56.3313 39.5867 58.7349 36.6321 58.7349C33.6775 58.7349 31.274 56.3313 31.274 53.3767C31.274 50.4221 33.6775 48.0185 36.6321 48.0185Z" fill="white"/>
</svg>
